<?xml version="1.0" standalone="no"?>
<!DOCTYPE svg PUBLIC "-//W3C//DTD SVG 1.1//EN" "http://www.w3.org/Graphics/SVG/1.1/DTD/svg11.dtd" >
<svg>
<metadata>
Created by FontForge 20090914 at Sat Mar  7 09:32:28 2015
 By www-data
Copyright (c) 2009 by Kris Sowersby. All rights reserved.
</metadata>
<defs>
<font id="Karbon-Light" horiz-adv-x="520" >
  <font-face 
    font-family="Karbon Light"
    font-weight="500"
    font-stretch="normal"
    units-per-em="1000"
    panose-1="0 0 4 0 0 0 0 0 0 0"
    ascent="680"
    descent="-320"
    x-height="436"
    cap-height="594"
    bbox="-90 -188 993.998 848"
    underline-thickness="50"
    underline-position="-50"
    unicode-range="U+0020-U+FB04"
  />
<missing-glyph horiz-adv-x="190" 
 />
    <glyph glyph-name="ff" unicode="ff" horiz-adv-x="514" 
d="M123 408l-0.00195312 -408.002h-33v408h-66v28h66v114c0 40.667 10.333 72.334 31 95.001s49.667 34 87 34c30.667 0 55.334 -7 74.001 -21v-36c-22 18 -46.667 27 -74 27c-56.667 0 -85 -35 -85 -105v-108h233v123c0 40.667 10.333 72.334 31 95.001s49.667 34 87 34
c30.667 0 55.334 -7 74.001 -21v-36c-22 18 -46.667 27 -74 27c-56.667 0 -85 -35 -85 -105v-117h125v-28h-125v-408h-33v408h-233z" />
    <glyph glyph-name="fi" unicode="fi" horiz-adv-x="469" 
d="M123 408v-408.001h-33v408h-66v28h66v105c0 44.667 11.667 80.334 35 107.001s57 40 101 40c40.667 0 75 -11 103 -33v-37c-32.667 26.667 -67 40 -103 40c-68.667 0 -103 -41 -103 -123v-99h266v-436h-33v408h-233z" />
    <glyph glyph-name="fl" unicode="fl" horiz-adv-x="469" 
d="M90 436l-0.000976562 122.999c0 40.667 10.333 72.334 31 95.001s49.667 34 87 34c30.667 0 55.334 -7 74.001 -21v-36c-22 18 -46.667 27 -74 27c-56.667 0 -85 -35 -85 -105v-117h133v-28h-133v-408h-33v408h-66v28h66zM388.999 679.999v-680h-33v680h33z" />
    <glyph glyph-name="ffi" unicode="ffi" horiz-adv-x="736" 
d="M389 408l-0.000976562 -408.002h-33v408h-233v-408h-33v408h-66v28h66v114c0 40.667 10.333 72.334 31 95.001s49.667 34 87 34c30.667 0 55.334 -7 74.001 -21v-36c-22 18 -46.667 27 -74 27c-56.667 0 -85 -35 -85 -105v-108h233v105
c0 44.667 11.667 80.334 35 107.001s57 40 101 40c40.667 0 75 -11 103 -33v-37c-32.667 26.667 -67 40 -103 40c-68.667 0 -103 -41 -103 -123v-99h267v-436h-33v408h-234z" />
    <glyph glyph-name="ffl" unicode="ffl" horiz-adv-x="736" 
d="M389 408l-0.00195312 -408h-33v408h-233v-408h-33v408h-66v28h66v114c0 40.667 10.333 72.334 31 95.001s49.667 34 87 34c30.667 0 55.334 -7 74.001 -21v-36c-22 18 -46.667 27 -74 27c-56.667 0 -85 -35 -85 -105v-108h233v123c0 41.333 10.167 73.166 30.5 95.499
s49.5 33.5 87.5 33.5c30.667 0 55.334 -7 74.001 -21v-34c-22 18 -46.667 27 -74 27c-56.667 0 -85 -35 -85 -105v-119h133v-28h-133zM655.998 680v-680h-33v680h33z" />
    <glyph glyph-name="f_f_j" unicode="ffj" horiz-adv-x="736" 
d="M623 408l-234.001 -0.00195312v-408h-33v408h-233v-408h-33v408h-66v28h66v114c0 40.667 10.333 72.334 31 95.001s49.667 34 87 34c30.667 0 55.334 -7 74.001 -21v-36c-22 18 -46.667 27 -74 27c-56.667 0 -85 -35 -85 -105v-108h233v105
c0 44.667 11.667 80.334 35 107.001s57 40 101 40c40.667 0 75 -11 103 -33v-37c-32.667 26.667 -67 40 -103 40c-68.667 0 -103 -41 -103 -123v-99h267v-502c0 -81.333 -35.333 -122 -106 -122c-21.333 0 -40.666 4 -57.999 12v31c21.333 -9.33301 40.666 -14 57.999 -14
c24 0 42.167 6.66699 54.5 20s18.5 37 18.5 71v476z" />
    <glyph glyph-name="f_j" unicode="fj" horiz-adv-x="469" 
d="M356 -68v475.999h-233v-408h-33v408h-66v28h66v105c0 44.667 11.667 80.334 35 107.001s57 40 101 40c40.667 0 75 -11 103 -33v-37c-32.667 26.667 -67 40 -103 40c-68.667 0 -103 -41 -103 -123v-99h266v-502c0 -81.333 -35.333 -122 -106 -122
c-21.333 0 -40.666 4 -57.999 12v31c21.333 -9.33301 40.666 -14 57.999 -14c24 0 42.167 6.66699 54.5 20s18.5 37 18.5 71z" />
    <glyph glyph-name="f_b" unicode="fb" horiz-adv-x="773" 
d="M90 436l-0.000976562 122.999c0 40.667 10.333 72.334 31 95.001s49.667 34 87 34c30.667 0 55.334 -7 74.001 -21v-36c-22 18 -46.667 27 -74 27c-56.667 0 -85 -35 -85 -105v-117h133v-28h-133v-408h-33v408h-66v28h66zM355.999 11.999v668h33v-259
c29.333 15.333 66.333 23 111 23c66.667 0 121.167 -19.333 163.5 -58s63.5 -94 63.5 -166c0 -70 -22.333 -125.5 -67 -166.5s-103 -61.5 -175 -61.5c-49.333 0 -92.333 6.66699 -129 20zM388.999 392.999v-358c25.333 -9.33301 57.333 -14 96 -14
c64.667 0 115.5 17.833 152.5 53.5s55.5 84.167 55.5 145.5c0 62 -18.167 110 -54.5 144s-82.5 51 -138.5 51c-40 0 -77 -7.33301 -111 -22z" />
    <glyph glyph-name="f_k" unicode="fk" horiz-adv-x="710" 
d="M90 436l-0.000976562 122.999c0 40.667 10.333 72.334 31 95.001s49.667 34 87 34c30.667 0 55.334 -7 74.001 -21v-36c-22 18 -46.667 27 -74 27c-56.667 0 -85 -35 -85 -105v-117h133v-28h-133v-408h-33v408h-66v28h66zM651.999 -0.000976562l-258 236l247 200h48
l-249 -200l257 -236h-45zM388.999 679.999v-680h-33v680h33z" />
    <glyph glyph-name="f_h" unicode="fh" horiz-adv-x="771" 
d="M90 436l-0.000976562 122.999c0 40.667 10.333 72.334 31 95.001s49.667 34 87 34c30.667 0 55.334 -7 74.001 -21v-36c-22 18 -46.667 27 -74 27c-56.667 0 -85 -35 -85 -105v-117h133v-28h-133v-408h-33v408h-66v28h66zM355.999 -0.000976562l-0.00195312 680h33v-261
c48.667 16.667 93 25 133 25c116 0 174 -48 174 -144v-300h-33v292c0 45.333 -12.667 76.833 -38 94.5s-59.666 26.5 -102.999 26.5c-39.333 0 -83.666 -7.66699 -132.999 -23v-390h-33z" />
    <glyph glyph-name="f_f_b" unicode="ffb" horiz-adv-x="1040" 
d="M389 408l-0.00195312 -408h-33v408h-233v-408h-33v408h-66v28h66v114c0 40.667 10.333 72.334 31 95.001s49.667 34 87 34c30.667 0 55.334 -7 74.001 -21v-36c-22 18 -46.667 27 -74 27c-56.667 0 -85 -35 -85 -105v-108h233v123c0 41.333 10.167 73.166 30.5 95.499
s49.5 33.5 87.5 33.5c30.667 0 55.334 -7 74.001 -21v-34c-22 18 -46.667 27 -74 27c-56.667 0 -85 -35 -85 -105v-119h133v-28h-133zM622.998 12v668h33v-259c29.333 15.333 66.333 23 111 23c66.667 0 121.167 -19.333 163.5 -58s63.5 -94 63.5 -166
c0 -70 -22.333 -125.5 -67 -166.5s-103 -61.5 -175 -61.5c-49.333 0 -92.333 6.66699 -129 20zM655.998 393v-358c25.333 -9.33301 57.333 -14 96 -14c64.667 0 115.5 17.833 152.5 53.5s55.5 84.167 55.5 145.5c0 62 -18.167 110 -54.5 144s-82.5 51 -138.5 51
c-40 0 -77 -7.33301 -111 -22z" />
    <glyph glyph-name="f_f_h" unicode="ffh" horiz-adv-x="1038" 
d="M389 408l-0.00195312 -408h-33v408h-233v-408h-33v408h-66v28h66v114c0 40.667 10.333 72.334 31 95.001s49.667 34 87 34c30.667 0 55.334 -7 74.001 -21v-36c-22 18 -46.667 27 -74 27c-56.667 0 -85 -35 -85 -105v-108h233v123c0 41.333 10.167 73.166 30.5 95.499
s49.5 33.5 87.5 33.5c30.667 0 55.334 -7 74.001 -21v-34c-22 18 -46.667 27 -74 27c-56.667 0 -85 -35 -85 -105v-119h133v-28h-133zM622.998 0l-0.00195312 680h33v-261c48.667 16.667 93 25 133 25c116 0 174 -48 174 -144v-300h-33v292
c0 45.333 -12.667 76.833 -38 94.5s-59.666 26.5 -102.999 26.5c-39.333 0 -83.666 -7.66699 -132.999 -23v-390h-33z" />
    <glyph glyph-name="f_f_k" unicode="ffk" horiz-adv-x="977" 
d="M389 408l-0.00195312 -408h-33v408h-233v-408h-33v408h-66v28h66v114c0 40.667 10.333 72.334 31 95.001s49.667 34 87 34c30.667 0 55.334 -7 74.001 -21v-36c-22 18 -46.667 27 -74 27c-56.667 0 -85 -35 -85 -105v-108h233v123c0 41.333 10.167 73.166 30.5 95.499
s49.5 33.5 87.5 33.5c30.667 0 55.334 -7 74.001 -21v-34c-22 18 -46.667 27 -74 27c-56.667 0 -85 -35 -85 -105v-119h133v-28h-133zM918.998 0l-258 236l247 200h48l-249 -200l257 -236h-45zM655.998 680v-680h-33v680h33z" />
    <glyph glyph-name=".notdef" horiz-adv-x="190" 
 />
    <glyph glyph-name="space" unicode=" " horiz-adv-x="190" 
 />
    <glyph glyph-name="exclam" unicode="!" horiz-adv-x="236" 
d="M135 594v-437h-34v437h34zM90 26c0 8 2.66699 14.667 8 20s12 8 20 8s14.667 -2.66699 20 -8s8 -12 8 -20s-2.66699 -14.667 -8 -20s-12 -8 -20 -8s-14.667 2.66699 -20 8s-8 12 -8 20z" />
    <glyph glyph-name="quotedbl" unicode="&#x22;" horiz-adv-x="246" 
d="M59 457l16 187h31l-20 -187h-27zM144 457l16 187h31l-20 -187h-27z" />
    <glyph glyph-name="numbersign" unicode="#" horiz-adv-x="479" 
d="M152 196l-40 -196h-31l40 196h-96v27h101l32 157h-101v27h106l38 187h31l-38 -187h134l38 187h31l-38 -187h95v-27h-100l-32 -157h100v-27h-105l-40 -196h-31l40 196h-134zM157 223h134l32 157h-134z" />
    <glyph glyph-name="dollar" unicode="$" horiz-adv-x="422" 
d="M190 -95v87c-60 0.666992 -109.333 17 -148 49v40c44 -38 93.333 -57.667 148 -59v276c-24.667 9.33301 -45 18.166 -61 26.499s-31.333 18.833 -46 31.5s-25.334 27.334 -32.001 44.001s-10 36.334 -10 59.001c0 42 14.333 75.5 43 100.5s64 38.833 106 41.5v79h28v-78
c52.667 -3.33301 94.334 -18.333 125.001 -45v-38c-38 32.667 -79.667 50.334 -125 53.001v-252c54.667 -20.667 94.5 -42.834 119.5 -66.501s37.5 -58.834 37.5 -105.501c0 -45.333 -14.833 -81.5 -44.5 -108.5s-67.167 -42.5 -112.5 -46.5v-88h-28zM190 330v241.002
c-33.333 -2.66699 -61 -13.834 -83 -33.501s-33 -45.834 -33 -78.501c0 -30.667 8.66699 -55.5 26 -74.5s47.333 -37.167 90 -54.5zM218 287.002v-264c36.667 4 66.5 16.5 89.5 37.5s34.5 50.167 34.5 87.5c0 35.333 -10 63 -30 83s-51.333 38.667 -94 56z" />
    <glyph glyph-name="percent" unicode="%" horiz-adv-x="619" 
d="M40 474c0 36.667 12.5 67.167 37.5 91.5s55.167 36.5 90.5 36.5s65.5 -12.167 90.5 -36.5s37.5 -54.833 37.5 -91.5s-12.5 -67.167 -37.5 -91.5s-55.167 -36.5 -90.5 -36.5s-65.5 12.167 -90.5 36.5s-37.5 54.833 -37.5 91.5zM71 474c0 -30 9.33301 -54.167 28 -72.5
s41.667 -27.5 69 -27.5c28 0 51.333 9.16699 70 27.5s28 42.5 28 72.5s-9.33301 54 -28 72s-42 27 -70 27s-51.167 -9 -69.5 -27s-27.5 -42 -27.5 -72zM579 120c0 -36.667 -12.5 -67 -37.5 -91s-55.5 -36 -91.5 -36c-35.333 0 -65.5 12 -90.5 36s-37.5 54.333 -37.5 91
c0 37.333 12.5 68.166 37.5 92.499s55.167 36.5 90.5 36.5c36 0 66.5 -12.167 91.5 -36.5s37.5 -55.166 37.5 -92.499zM548 120c0 30 -9.33301 54.167 -28 72.5s-42 27.5 -70 27.5c-27.333 0 -50.333 -9.16699 -69 -27.5s-28 -42.5 -28 -72.5
c0 -29.333 9.33301 -53.166 28 -71.499s41.667 -27.5 69 -27.5c28 0 51.333 9.16699 70 27.5s28 42.166 28 71.499zM507 595l-362 -595h-33l362 595h33z" />
    <glyph glyph-name="ampersand" unicode="&#x26;" horiz-adv-x="541" 
d="M187 325l-29 30.001c-40 40 -60 81.333 -60 124c0 34 11.5 63 34.5 87s54.5 36 94.5 36c41.333 0 73.833 -12 97.5 -36s35.5 -54.333 35.5 -91c0 -34 -10.833 -63 -32.5 -87s-52.5 -47 -92.5 -69l177 -185c26 45.333 39 96.666 39 153.999h29
c0 -65.333 -15.667 -123.666 -47 -174.999l108 -113h-41l-85 88c-48.667 -64 -114 -96 -196 -96c-52 0 -94.667 13.667 -128 41s-50 64.333 -50 111c0 38.667 10.833 71.167 32.5 97.5s59.5 54.166 113.5 83.499zM181 376.001l34 -36.002c22 11.333 40 21.833 54 31.5
s27.333 23.834 40 42.501s19 39 19 61c-0.666992 29.333 -10.167 52.833 -28.5 70.5s-42.5 26.834 -72.5 27.501c-30 0 -53.667 -9.33301 -71 -28s-26 -40.667 -26 -66c0 -20 4 -37.333 12 -52s21 -31.667 39 -51zM396 107.999l-189 196c-46 -24 -79.667 -48 -101 -72
s-32 -53.333 -32 -88c0 -38 14 -68.167 42 -90.5s62.333 -33.5 103 -33.5c74 0 133 29.333 177 88z" />
    <glyph glyph-name="quotesingle" unicode="'" horiz-adv-x="161" 
d="M59 457l16 187h31l-20 -187h-27z" />
    <glyph glyph-name="parenleft" unicode="(" horiz-adv-x="280" 
d="M270 -141l-38 -0.00390625c-120 111.333 -180 248.333 -180 411c0 162 60 298.667 180 410h38c-28 -27.333 -51.833 -53.166 -71.5 -77.499s-39 -53.166 -58 -86.499s-33.5 -70.666 -43.5 -111.999s-15 -86 -15 -134s5 -92.667 15 -134s24.5 -78.833 43.5 -112.5
s38.333 -62.667 58 -87s43.5 -50.166 71.5 -77.499z" />
    <glyph glyph-name="parenright" unicode=")" horiz-adv-x="280" 
d="M10 680l38 0.00390625c120 -111.333 180 -248 180 -410c0 -162.667 -60 -299.667 -180 -411h-38c28 27.333 51.833 53.166 71.5 77.499s39 53.333 58 87s33.5 71.167 43.5 112.5s15 86 15 134s-5 92.667 -15 134s-24.5 78.666 -43.5 111.999s-38.333 62.166 -58 86.499
s-43.5 50.166 -71.5 77.499z" />
    <glyph glyph-name="asterisk" unicode="*" horiz-adv-x="303" 
d="M151 530l-65 -90l-21 14l67 90l-107 35l7 24l107 -36l-1 113h26l-1 -113l107 36l8 -24l-108 -34l68 -90l-21 -15z" />
    <glyph glyph-name="plus" unicode="+" horiz-adv-x="435" 
d="M203 278h-163v29h163v163h29v-163h163v-29h-163v-163h-29v163z" />
    <glyph glyph-name="comma" unicode="," horiz-adv-x="196" 
d="M85 65l36 -0.000976562c0 -37.333 -9.5 -74.666 -28.5 -111.999s-40.833 -64.333 -65.5 -81h-28c25.333 22 46 50.333 62 85s24 70.667 24 108z" />
    <glyph glyph-name="hyphen" unicode="-" horiz-adv-x="355" 
d="M64 247v29h227v-29h-227z" />
    <glyph glyph-name="period" unicode="." horiz-adv-x="196" 
d="M70 26c0 8 2.66699 14.667 8 20s12 8 20 8s14.667 -2.66699 20 -8s8 -12 8 -20s-2.66699 -14.667 -8 -20s-12 -8 -20 -8s-14.667 2.66699 -20 8s-8 12 -8 20z" />
    <glyph glyph-name="slash" unicode="/" horiz-adv-x="383" 
d="M18 -138l310 818h32l-310 -818h-32z" />
    <glyph glyph-name="zero" unicode="0" horiz-adv-x="524" 
d="M45 297c0 91.333 19.833 165 59.5 221s92.167 84 157.5 84s117.833 -28 157.5 -84s59.5 -129.667 59.5 -221s-19.833 -165 -59.5 -221s-92.167 -84 -157.5 -84s-117.833 28 -157.5 84s-59.5 129.667 -59.5 221zM78 297c0 -84 17 -151 51 -201s78.333 -75 133 -75
s99 25 133 75s51 117 51 201s-17 151 -51 201s-78.333 75 -133 75s-99 -25 -133 -75s-51 -117 -51 -201z" />
    <glyph glyph-name="one" unicode="1" horiz-adv-x="273" 
d="M15 544v28l163 30v-602h-33v565z" />
    <glyph glyph-name="two" unicode="2" horiz-adv-x="409" 
d="M53 29h317v-29h-365v24c47.333 40 87 74.833 119 104.5s64.833 63.167 98.5 100.5s58.834 73.5 75.501 108.5s25 68.5 25 100.5c0 43.333 -11.333 76.5 -34 99.5s-54 34.5 -94 34.5c-62.667 0 -117.334 -30 -164.001 -90v39c18 23.333 41.333 42.666 70 57.999
s60 23 94 23c48.667 0 87.667 -13.833 117 -41.5s44 -68.5 44 -122.5c0 -111.333 -101 -247.666 -303 -408.999z" />
    <glyph glyph-name="three" unicode="3" horiz-adv-x="387" 
d="M27 489l-0.000976562 36.998c16 22 37.5 40.167 64.5 54.5s57.167 21.5 90.5 21.5c46 0 82.667 -13 110 -39s41 -59.333 41 -100c0 -39.333 -13.833 -73 -41.5 -101s-63.167 -47.333 -106.5 -58c44.667 -4.66699 83 -20.5 115 -47.5s48 -61.833 48 -104.5
c0 -48.667 -16.5 -87.5 -49.5 -116.5s-77.167 -43.5 -132.5 -43.5c-28 0 -55.667 5.16699 -83 15.5s-48.333 22.833 -63 37.5v35c44.667 -39.333 93.334 -59 146.001 -59c46 0 82.167 11.833 108.5 35.5s39.5 55.5 39.5 95.5c0 75.333 -59.667 121.333 -179 138v22
c56 14.667 97.333 33.834 124 57.501s40 54.834 40 93.501c0 32.667 -11 59.167 -33 79.5s-50 30.5 -84 30.5c-60 0 -111.667 -28 -155 -84z" />
    <glyph glyph-name="four" unicode="4" horiz-adv-x="476" 
d="M353 594v-391h103v-27h-103v-176h-32v176h-311v23l301 395h42zM321 562l-271 -359h271v359z" />
    <glyph glyph-name="five" unicode="5" horiz-adv-x="394" 
d="M113 564l-13.999 -198.999c75.333 -8.66699 136 -29.167 182 -61.5s69 -78.5 69 -138.5c0 -50.667 -16.667 -92.167 -50 -124.5s-80.333 -48.5 -141 -48.5c-56.667 0 -102.334 15.333 -137.001 46v35c42 -34.667 87.667 -52 137 -52c48.667 0 87 13 115 39s42 61 42 105
c0 54 -21.5 94.167 -64.5 120.5s-104.5 44.166 -184.5 53.499l18 255h250v-30h-222z" />
    <glyph glyph-name="six" unicode="6" horiz-adv-x="460" 
d="M251 594l37.001 -0.000976562l-154 -232l-42 -65c16 20.667 36.5 37.667 61.5 51s51.167 20 78.5 20c56 0 102.167 -16.833 138.5 -50.5s54.5 -79.167 54.5 -136.5c0 -52 -17.167 -96.5 -51.5 -133.5s-81.5 -55.5 -141.5 -55.5c-58.667 0 -105.334 18.5 -140.001 55.5
s-52 81.5 -52 133.5c0 60.667 20.667 122.334 62 185.001zM72.001 180.999c0 -48 15.167 -86.667 45.5 -116s68.5 -44 114.5 -44s84.167 14.667 114.5 44s45.5 68 45.5 116c0 47.333 -15.167 85.5 -45.5 114.5s-68.5 43.5 -114.5 43.5c-45.333 0 -83.333 -14.5 -114 -43.5
s-46 -67.167 -46 -114.5z" />
    <glyph glyph-name="seven" unicode="7" horiz-adv-x="381" 
d="M326 564h-316v30h351v-28l-269 -566h-35z" />
    <glyph glyph-name="eight" unicode="8" horiz-adv-x="484" 
d="M242 -8c-56 0 -101.998 14.833 -137.998 44.5s-54 70.834 -54 123.501c0 41.333 13 76 39 104s57.667 45.333 95 52c-28.667 8.66699 -52.667 24.167 -72 46.5s-29 51.5 -29 87.5c0 46 15.167 82.833 45.5 110.5s68.166 41.5 113.499 41.5s83.166 -13.833 113.499 -41.5
s45.5 -64.5 45.5 -110.5c0 -36 -9.66699 -65.167 -29 -87.5s-43.333 -37.833 -72 -46.5c37.333 -6.66699 69 -24 95 -52s39 -62.667 39 -104c0 -52.667 -18 -93.834 -54 -123.501s-82 -44.5 -138 -44.5zM242.002 328c35.333 0 65.166 11 89.499 33s36.5 51.667 36.5 89
c0 38 -12.167 68.167 -36.5 90.5s-54.166 33.5 -89.499 33.5s-65.166 -11.167 -89.499 -33.5s-36.5 -52.5 -36.5 -90.5c0 -37.333 12.167 -67 36.5 -89s54.166 -33 89.499 -33zM242.002 20c45.333 0 83 12.167 113 36.5s45 58.833 45 103.5c0 45.333 -15.167 80 -45.5 104
s-67.833 36 -112.5 36s-82.167 -12 -112.5 -36s-45.5 -58.667 -45.5 -104c0 -44.667 15 -79.167 45 -103.5s67.667 -36.5 113 -36.5z" />
    <glyph glyph-name="nine" unicode="9" horiz-adv-x="460" 
d="M209 0l-37.001 0.000976562l154 232l42 65c-16 -20.667 -36.5 -37.667 -61.5 -51s-51.167 -20 -78.5 -20c-56 0 -102.167 16.833 -138.5 50.5s-54.5 79.167 -54.5 136.5c0 52 17.167 96.5 51.5 133.5s81.5 55.5 141.5 55.5c58.667 0 105.334 -18.5 140.001 -55.5
s52 -81.5 52 -133.5c0 -60.667 -20.667 -122.334 -62 -185.001zM387.999 413.001c0 48 -15.167 86.667 -45.5 116s-68.5 44 -114.5 44s-84.167 -14.667 -114.5 -44s-45.5 -68 -45.5 -116c0 -47.333 15.167 -85.5 45.5 -114.5s68.5 -43.5 114.5 -43.5
c45.333 0 83.333 14.5 114 43.5s46 67.167 46 114.5z" />
    <glyph glyph-name="colon" unicode=":" horiz-adv-x="196" 
d="M70 26c0 8 2.66699 14.667 8 20s12 8 20 8s14.667 -2.66699 20 -8s8 -12 8 -20s-2.66699 -14.667 -8 -20s-12 -8 -20 -8s-14.667 2.66699 -20 8s-8 12 -8 20zM70 386c0 8 2.66699 14.667 8 20s12 8 20 8s14.667 -2.66699 20 -8s8 -12 8 -20s-2.66699 -14.667 -8 -20
s-12 -8 -20 -8s-14.667 2.66699 -20 8s-8 12 -8 20z" />
    <glyph glyph-name="semicolon" unicode=";" horiz-adv-x="196" 
d="M85 65l36 -0.000976562c0 -37.333 -9.5 -74.666 -28.5 -111.999s-40.833 -64.333 -65.5 -81h-28c25.333 22 46 50.333 62 85s24 70.667 24 108zM73 385.999c0 8 2.66699 14.667 8 20s12 8 20 8s14.667 -2.66699 20 -8s8 -12 8 -20s-2.66699 -14.667 -8 -20s-12 -8 -20 -8
s-14.667 2.66699 -20 8s-8 12 -8 20z" />
    <glyph glyph-name="less" unicode="&#x3c;" horiz-adv-x="319" 
d="M25 289v4l259 159v-35l-208 -126l208 -126v-35z" />
    <glyph glyph-name="equal" unicode="=" horiz-adv-x="440" 
d="M42 219v29h356v-29h-356zM42 339v29h356v-29h-356z" />
    <glyph glyph-name="greater" unicode="&#x3e;" horiz-adv-x="319" 
d="M294 293v-4l-259 -159v35l208 126l-208 126v35z" />
    <glyph glyph-name="question" unicode="?" horiz-adv-x="379" 
d="M28 494l0.00195312 39c14.667 20 35.834 36.5 63.501 49.5s57.167 19.5 88.5 19.5c53.333 0 94.666 -15.167 123.999 -45.5s44 -68.833 44 -115.5c0 -23.333 -3.83301 -45 -11.5 -65s-16.834 -36.5 -27.501 -49.5s-24.334 -25.167 -41.001 -36.5
s-31.667 -20.166 -45 -26.499s-28.333 -12.5 -45 -18.5v-88h-34v106c56 20 98.333 43.167 127 69.5s43 62.833 43 109.5c0 37.333 -11.5 68.166 -34.5 92.499s-56.167 36.5 -99.5 36.5c-59.333 0 -110 -25.667 -152 -77zM135.002 26c0 8 2.66699 14.667 8 20s12 8 20 8
s14.667 -2.66699 20 -8s8 -12 8 -20s-2.66699 -14.667 -8 -20s-12 -8 -20 -8s-14.667 2.66699 -20 8s-8 12 -8 20z" />
    <glyph glyph-name="at" unicode="@" horiz-adv-x="768" 
d="M539 382l-0.00292969 -320.997c100.667 36.667 151 110.334 151 221.001c0 80 -25.833 144 -77.5 192s-119.834 72 -204.501 72c-101.333 0 -181.666 -31.5 -240.999 -94.5s-89 -140.833 -89 -233.5c0 -46.667 7.33301 -89 22 -127s33.834 -69.5 57.501 -94.5
s51.167 -46 82.5 -63s63.166 -29.167 95.499 -36.5s64.833 -11 97.5 -11c72.667 0 141.334 12.667 206.001 38v-31c-57.333 -24.667 -126 -37 -206 -37c-46 0 -90.833 6.66699 -134.5 20s-85 33.666 -124 60.999s-70.333 65.166 -94 113.499s-35.5 104.166 -35.5 167.499
c0 103.333 33.333 188.666 100 255.999s154.334 101 263.001 101c95.333 0 171.5 -27 228.5 -81s85.5 -124.667 85.5 -212c0 -82.667 -27.167 -147.667 -81.5 -195s-125.166 -71 -212.499 -71c-62 0 -112.5 17.5 -151.5 52.5s-58.5 82.167 -58.5 141.5
c0 60 18.333 107.667 55 143s86 53 148 53c42 0 81.333 -8 118 -24zM506.997 54.0029v308c-24 9.33301 -52.667 14 -86 14c-51.333 0 -92.5 -14 -123.5 -42s-46.5 -69.333 -46.5 -124c0 -50 16 -90 48 -120s74.667 -45 128 -45c28 0 54.667 3 80 9z" />
    <glyph glyph-name="A" unicode="A" horiz-adv-x="537" 
d="M417 180h-299l-69 -180h-35l233 594h41l235 -594h-35zM405 210l-139 353l-136 -353h275z" />
    <glyph glyph-name="B" unicode="B" horiz-adv-x="469" 
d="M93 3l-0.000976562 592.002c42 4.66699 76 7 102 7c138.667 0 208 -50.667 208 -152c0 -40.667 -12.833 -74 -38.5 -100s-59.5 -41.667 -101.5 -47c48 -2.66699 87 -16.834 117 -42.501s45 -59.834 45 -102.501c0 -52.667 -18.833 -93.5 -56.5 -122.5
s-94.167 -43.5 -169.5 -43.5c-35.333 0 -70.666 3.66699 -105.999 11zM126.999 286.002l-0.000976562 -256.999c23.333 -4 47.333 -6 72 -6c66 0 114.333 11.167 145 33.5s46 56.166 46 101.499c0 42 -17.167 73.833 -51.5 95.5s-83.166 32.5 -146.499 32.5h-65z
M126.998 569.003l0.00195312 -253h64c55.333 0 98.666 11.5 129.999 34.5s47 56.167 47 99.5c0 81.333 -57.667 122 -173 122c-20.667 0 -43.334 -1 -68.001 -3z" />
    <glyph glyph-name="C" unicode="C" horiz-adv-x="567" 
d="M512 557v-40c-42 36 -96.667 54 -164 54c-74.667 0 -137.334 -25 -188.001 -75s-76 -116.333 -76 -199s26.167 -149 78.5 -199s117.5 -75 195.5 -75c68 0 122.667 15.667 164 47v-36c-37.333 -28 -92 -42 -164 -42c-90 0 -163.833 28.167 -221.5 84.5
s-86.5 129.833 -86.5 220.5c0 89.333 28.167 162.5 84.5 219.5s127.5 85.5 213.5 85.5c64.667 0 119.334 -15 164.001 -45z" />
    <glyph glyph-name="D" unicode="D" horiz-adv-x="613" 
d="M93 1l0.000976562 593.999c35.333 4 68.666 6 99.999 6c126 0 219.167 -26.333 279.5 -79s90.5 -124 90.5 -214c0 -95.333 -29.5 -171.666 -88.5 -228.999s-147.833 -86 -266.5 -86c-34 0 -72.333 2.66699 -115 8zM127.001 567.999l-0.00195312 -539.999
c28.667 -3.33301 55.667 -5 81 -5c102.667 0 181.834 24.167 237.501 72.5s83.5 119.166 83.5 212.499c0 83.333 -28.167 148 -84.5 194s-140.166 69 -251.499 69c-19.333 0 -41.333 -1 -66 -3z" />
    <glyph glyph-name="E" unicode="E" horiz-adv-x="468" 
d="M127 30h289v-30h-323v594h320v-30h-286v-244h269v-30h-269v-260z" />
    <glyph glyph-name="F" unicode="F" horiz-adv-x="422" 
d="M127 0h-34v594h292v-30h-258v-251h239v-30h-239v-283z" />
    <glyph glyph-name="G" unicode="G" horiz-adv-x="597" 
d="M512 557v-40c-42 36 -96.667 54 -164 54c-74.667 0 -137.334 -25.5 -188.001 -76.5s-76 -117.833 -76 -200.5c0 -82 26.333 -147.667 79 -197s117.667 -74 195 -74c53.333 0 101 9.33301 143 28v196h33v-215c-51.333 -26.667 -110 -40 -176 -40
c-89.333 0 -163 28.167 -221 84.5s-87 128.833 -87 217.5c0 89.333 28.333 163 85 221s127.667 87 213 87c64.667 0 119.334 -15 164.001 -45z" />
    <glyph glyph-name="H" unicode="H" horiz-adv-x="661" 
d="M534 320v274h34v-594h-34v290h-407v-290h-34v594h34v-274h407z" />
    <glyph glyph-name="I" unicode="I" horiz-adv-x="220" 
d="M127 594v-594h-34v594h34z" />
    <glyph glyph-name="J" unicode="J" horiz-adv-x="343" 
d="M13 42v41c38 -40 79 -60 123 -60c34 0 58.667 9 74 27s23 47 23 87v457h34v-462c0 -93.333 -43.667 -140 -131 -140c-51.333 0 -92.333 16.667 -123 50z" />
    <glyph glyph-name="K" unicode="K" horiz-adv-x="498" 
d="M93 0v594h34v-594h-34zM131 291l296 303h45l-295 -300l316 -294h-49z" />
    <glyph glyph-name="L" unicode="L" horiz-adv-x="412" 
d="M93 0v594h34v-564h265v-30h-299z" />
    <glyph glyph-name="M" unicode="M" horiz-adv-x="763" 
d="M400 0h-37l-189 558l-102 -558h-34l109 594h48l187 -550l185 550h49l109 -594h-35l-102 562z" />
    <glyph glyph-name="N" unicode="N" horiz-adv-x="647" 
d="M127 594l394 -545v545h33v-594h-34l-394 545v-545h-33v594h34z" />
    <glyph glyph-name="O" unicode="O" horiz-adv-x="698" 
d="M50 297c0 90 28.167 163.333 84.5 220s127.833 85 214.5 85s158.167 -28.333 214.5 -85s84.5 -130 84.5 -220s-28.167 -163.333 -84.5 -220s-127.833 -85 -214.5 -85s-158.167 28.333 -214.5 85s-84.5 130 -84.5 220zM614 297c0 82.667 -25.167 149 -75.5 199
s-113.5 75 -189.5 75s-139.167 -25 -189.5 -75s-75.5 -116.333 -75.5 -199s25.167 -149 75.5 -199s113.5 -75 189.5 -75s139.167 25 189.5 75s75.5 116.333 75.5 199z" />
    <glyph glyph-name="P" unicode="P" horiz-adv-x="435" 
d="M127 236l0.000976562 -236h-34v595c23.333 4.66699 50.333 7 81 7c75.333 0 132.666 -15.167 171.999 -45.5s59 -74.5 59 -132.5c0 -60 -20 -106.667 -60 -140s-97.667 -50 -173 -50c-15.333 0 -30.333 0.666992 -45 2zM127.001 570l0.000976562 -304
c16 -1.33301 31 -2 45 -2c132 0 198 53.333 198 160c0 44.667 -15.5 80.5 -46.5 107.5s-80.833 40.5 -149.5 40.5c-16.667 0 -32.334 -0.666992 -47.001 -2z" />
    <glyph glyph-name="Q" unicode="Q" horiz-adv-x="698" 
d="M352 -8l-3 0.000976562c-86.667 0 -158.167 28.333 -214.5 85s-84.5 130 -84.5 220s28.167 163.333 84.5 220s127.833 85 214.5 85s158.167 -28.333 214.5 -85s84.5 -130 84.5 -220c0 -82.667 -23.833 -151.334 -71.5 -206.001s-109.5 -86.667 -185.5 -96l130 -131h-44z
M614 297.001c0 82.667 -25.167 149 -75.5 199s-113.5 75 -189.5 75s-139.167 -25 -189.5 -75s-75.5 -116.333 -75.5 -199s25.167 -149 75.5 -199s113.5 -75 189.5 -75s139.167 25 189.5 75s75.5 116.333 75.5 199z" />
    <glyph glyph-name="R" unicode="R" horiz-adv-x="488" 
d="M127 243l0.000976562 -243h-34v593c27.333 6 56.666 9 87.999 9c71.333 0 126.333 -15 165 -45s58 -74 58 -132c0 -48 -13.333 -87 -40 -117s-61 -49.333 -103 -58l217 -250h-44l-209 243h-98zM127.001 569v-296.999h71c52.667 0 94.167 13.167 124.5 39.5
s45.5 64.166 45.5 113.499c0 48 -16.333 84.667 -49 110s-78.667 38 -138 38c-17.333 0 -35.333 -1.33301 -54 -4z" />
    <glyph glyph-name="S" unicode="S" horiz-adv-x="422" 
d="M42 41v40.0029c44.667 -39.333 96 -59 154 -59c42 0 76.5 10.667 103.5 32s40.5 52.666 40.5 93.999c0 38 -11 66.833 -33 86.5s-57.667 39.167 -107 58.5c-54.667 21.333 -94.5 43.166 -119.5 65.499s-37.5 55.833 -37.5 100.5s15.833 79.667 47.5 105
s70.167 38 115.5 38c57.333 0 103 -15 137 -45v-38c-41.333 35.333 -87 53 -137 53c-37.333 0 -68.333 -10 -93 -30s-37 -47.667 -37 -83c0 -32.667 9.83301 -58.834 29.5 -78.501s54.167 -38.5 103.5 -56.5c28.667 -10.667 51.667 -20.334 69 -29.001
s34 -19.834 50 -33.501s27.5 -29.667 34.5 -48s10.5 -40.166 10.5 -65.499c0 -49.333 -16.833 -87.666 -50.5 -114.999s-75.834 -41 -126.501 -41c-63.333 0 -114.666 16.333 -153.999 49z" />
    <glyph glyph-name="T" unicode="T" horiz-adv-x="470" 
d="M252 564v-564h-34v564h-203v30h440v-30h-203z" />
    <glyph glyph-name="U" unicode="U" horiz-adv-x="592" 
d="M76 194v400h34v-404c0 -111.333 70 -167 210 -167c52.667 0 101 5 145 15v556h34v-579c-60 -15.333 -119.667 -23 -179 -23c-162.667 0 -244 67.333 -244 202z" />
    <glyph glyph-name="V" unicode="V" horiz-adv-x="527" 
d="M282 0h-37l-231 594h36l214 -556l214 556h35z" />
    <glyph glyph-name="W" unicode="W" horiz-adv-x="750" 
d="M355 594h41l151 -563l156 563h33l-166 -594h-45l-150 555l-150 -555h-45l-166 594h34l156 -563z" />
    <glyph glyph-name="X" unicode="X" horiz-adv-x="501" 
d="M472 594l-202 -287l217 -307h-39l-199 281l-196 -281h-39l216 308l-201 286h39l183 -260l182 260h39z" />
    <glyph glyph-name="Y" unicode="Y" horiz-adv-x="497" 
d="M249 277l197 317h37l-218 -350v-244h-34v244l-217 350h38z" />
    <glyph glyph-name="Z" unicode="Z" horiz-adv-x="469" 
d="M49 564v30h391v-26l-377 -538h383v-30h-423v27l376 537h-350z" />
    <glyph glyph-name="bracketleft" unicode="[" horiz-adv-x="273" 
d="M109 654v-766h114v-26h-144v818h144v-26h-114z" />
    <glyph glyph-name="backslash" unicode="\" horiz-adv-x="383" 
d="M55 680l310 -818h-32l-310 818h32z" />
    <glyph glyph-name="bracketright" unicode="]" horiz-adv-x="273" 
d="M164 -112v766h-114v26h144v-818h-144v26h114z" />
    <glyph glyph-name="asciicircum" unicode="^" horiz-adv-x="370" 
d="M202 595l143 -241h-36l-124 212l-124 -212h-36l142 241h35z" />
    <glyph glyph-name="underscore" unicode="_" horiz-adv-x="432" 
d="M50 -114v27h332v-27h-332z" />
    <glyph glyph-name="grave" unicode="`" horiz-adv-x="500" 
d="M309 513h-33l-85 152h33z" />
    <glyph glyph-name="a" unicode="a" horiz-adv-x="415" 
d="M310 249v65c0 32 -8.5 56.667 -25.5 74s-41.5 26 -73.5 26c-44 0 -85.333 -11 -124 -33v31c34.667 21.333 76.334 32 125.001 32c87.333 0 131 -42 131 -126v-311c-34.667 -10 -69.334 -15 -104.001 -15c-62 0 -110.333 10.833 -145 32.5s-52 53.5 -52 95.5
c0 86 72.333 129 217 129h51zM310 28v192h-50c-123.333 0 -185 -33.333 -185 -100c0 -33.333 15.167 -58.333 45.5 -75s69.833 -25 118.5 -25c26 0 49.667 2.66699 71 8z" />
    <glyph glyph-name="b" unicode="b" horiz-adv-x="497" 
d="M80 12v668h33v-259c29.333 15.333 66.333 23 111 23c66.667 0 121.167 -19.333 163.5 -58s63.5 -94 63.5 -166c0 -70 -22.333 -125.5 -67 -166.5s-103 -61.5 -175 -61.5c-49.333 0 -92.333 6.66699 -129 20zM113 393v-358c25.333 -9.33301 57.333 -14 96 -14
c64.667 0 115.5 17.833 152.5 53.5s55.5 84.167 55.5 145.5c0 62 -18.167 110 -54.5 144s-82.5 51 -138.5 51c-40 0 -77 -7.33301 -111 -22z" />
    <glyph glyph-name="c" unicode="c" horiz-adv-x="437" 
d="M385 408l0.000976562 -36.002c-34 28 -75 42 -123 42c-51.333 0 -94.5 -17.667 -129.5 -53s-52.5 -82.666 -52.5 -141.999s17.5 -107 52.5 -143s79.167 -54 132.5 -54c49.333 0 91.666 12.333 126.999 37v-32c-32 -23.333 -74.333 -35 -127 -35
c-62 0 -114 20.833 -156 62.5s-63 96.5 -63 164.5c0 68.667 21 123.334 63 164.001s93 61 153 61c47.333 0 88.333 -12 123 -36z" />
    <glyph glyph-name="d" unicode="d" horiz-adv-x="495" 
d="M419 680l-0.000976562 -675.001c-42.667 -8.66699 -84 -13 -124 -13c-75.333 0 -135.666 19.833 -180.999 59.5s-68 94.834 -68 165.501c0 71.333 22.5 127 67.5 167s99.833 60 164.5 60c45.333 0 81.333 -7.33301 108 -22v258h33zM385.999 27.999l-0.000976562 364
c-29.333 15.333 -65.333 23 -108 23c-57.333 0 -104.666 -17.5 -141.999 -52.5s-56 -83.5 -56 -145.5c0 -61.333 19.5 -109.333 58.5 -144s91.167 -52 156.5 -52c34.667 0 65 2.33301 91 7z" />
    <glyph glyph-name="e" unicode="e" horiz-adv-x="466" 
d="M422 227h-344v-7c0 -60.667 17 -108.834 51 -144.501s77.667 -53.5 131 -53.5c56.667 0 104.667 16.667 144 50v-35c-35.333 -30 -83.333 -45 -144 -45c-61.333 0 -112.333 20.333 -153 61s-61 96.334 -61 167.001c0 61.333 19.5 114 58.5 158s87.167 66 144.5 66
c53.333 0 95.5 -17.167 126.5 -51.5s46.5 -80.5 46.5 -138.5v-27zM81 254h308.001c0 49.333 -12.5 88.5 -37.5 117.5s-59.167 43.5 -102.5 43.5c-42 0 -78.833 -15.167 -110.5 -45.5s-50.834 -68.833 -57.501 -115.5z" />
    <glyph glyph-name="f" unicode="f" horiz-adv-x="248" 
d="M123 408l-0.000976562 -408.001h-33v408h-66v28h66v123c0 40.667 10.333 72.334 31 95.001s49.667 34 87 34c30.667 0 55.334 -7 74.001 -21v-36c-22 18 -46.667 27 -74 27c-56.667 0 -85 -35 -85 -105v-117h125v-28h-125z" />
    <glyph glyph-name="g" unicode="g" horiz-adv-x="495" 
d="M386 -1l-0.00292969 16c-22.667 -14 -57 -21 -103 -21c-71.333 0 -128.666 19.333 -171.999 58s-65 94.667 -65 168c0 69.333 22.833 124 68.5 164s105.834 60 180.501 60c48 0 89.333 -8.33301 124 -25v-425c0 -60.667 -18 -106.167 -54 -136.5s-81 -45.5 -135 -45.5
c-55.333 0 -97.666 9 -126.999 27v34c36.667 -20.667 79 -31 127 -31c46 0 83.5 12.333 112.5 37s43.5 64.667 43.5 120zM385.997 42l-0.000976562 359.001c-29.333 9.33301 -59.666 14 -90.999 14c-67.333 0 -120 -17.833 -158 -53.5s-57 -82.834 -57 -141.501
c0 -60.667 17.667 -108.667 53 -144s85.333 -53 150 -53c38 0 72.333 6.33301 103 19z" />
    <glyph glyph-name="h" unicode="h" horiz-adv-x="495" 
d="M80 0l-0.00195312 680h33v-261c48.667 16.667 93 25 133 25c116 0 174 -48 174 -144v-300h-33v292c0 45.333 -12.667 76.833 -38 94.5s-59.666 26.5 -102.999 26.5c-39.333 0 -83.666 -7.66699 -132.999 -23v-390h-33z" />
    <glyph glyph-name="i" unicode="i" horiz-adv-x="193" 
d="M113 436v-436h-33v436h33zM96 536c-7.33301 0 -13.666 2.5 -18.999 7.5s-8 11.5 -8 19.5s2.66699 14.5 8 19.5s11.666 7.5 18.999 7.5s13.666 -2.5 18.999 -7.5s8 -11.5 8 -19.5s-2.66699 -14.5 -8 -19.5s-11.666 -7.5 -18.999 -7.5z" />
    <glyph glyph-name="j" unicode="j" horiz-adv-x="193" 
d="M80 -68v504h33v-502c0 -81.333 -35.333 -122 -106 -122c-21.333 0 -40.666 4 -57.999 12v31c21.333 -9.33301 40.666 -14 57.999 -14c24 0 42.167 6.66699 54.5 20s18.5 37 18.5 71zM96 536c-7.33301 0 -13.666 2.5 -18.999 7.5s-8 11.5 -8 19.5s2.66699 14.5 8 19.5
s11.666 7.5 18.999 7.5s13.666 -2.5 18.999 -7.5s8 -11.5 8 -19.5s-2.66699 -14.5 -8 -19.5s-11.666 -7.5 -18.999 -7.5z" />
    <glyph glyph-name="k" unicode="k" horiz-adv-x="434" 
d="M376 0l-258 236l247 200h48l-249 -200l257 -236h-45zM113 680v-680h-33v680h33z" />
    <glyph glyph-name="l" unicode="l" horiz-adv-x="193" 
d="M113 680v-680h-33v680h33z" />
    <glyph glyph-name="m" unicode="m" horiz-adv-x="752" 
d="M644 0v297c0 78 -39.333 117 -118 117c-46 0 -94.667 -11 -146 -33c11.333 -20.667 17 -47 17 -79v-302h-33v297c0 78 -39.333 117 -118 117c-51.333 0 -95.666 -7.33301 -132.999 -22v-392h-33v410c53.333 22.667 108.666 34 165.999 34c52 0 90.667 -13 116 -39
c61.333 26 116 39 164 39c100.667 0 151 -47.333 151 -142v-302h-33z" />
    <glyph glyph-name="n" unicode="n" horiz-adv-x="495" 
d="M80 0l-0.00195312 414c54.667 20 110 30 166 30c116 0 174 -48 174 -144v-300h-33v292c0 45.333 -12.667 76.833 -38 94.5s-59.666 26.5 -102.999 26.5c-37.333 0 -81.666 -6 -132.999 -18v-395h-33z" />
    <glyph glyph-name="o" unicode="o" horiz-adv-x="516" 
d="M46 218c0 66.667 19.833 121 59.5 163s90.5 63 152.5 63s112.833 -21 152.5 -63s59.5 -96.333 59.5 -163s-19.833 -121 -59.5 -163s-90.5 -63 -152.5 -63s-112.833 21 -152.5 63s-59.5 96.333 -59.5 163zM436 218c0 58.667 -16.5 106.167 -49.5 142.5
s-75.833 54.5 -128.5 54.5s-95.5 -18.167 -128.5 -54.5s-49.5 -83.833 -49.5 -142.5s16.5 -106.167 49.5 -142.5s75.833 -54.5 128.5 -54.5s95.5 18.167 128.5 54.5s49.5 83.833 49.5 142.5z" />
    <glyph glyph-name="p" unicode="p" horiz-adv-x="497" 
d="M80 -180l-0.000976562 599c42.667 16.667 87 25 133 25c74 0 132.167 -19.167 174.5 -57.5s63.5 -93.833 63.5 -166.5c0 -70 -21.167 -125.5 -63.5 -166.5s-97.166 -61.5 -164.499 -61.5c-46 0 -82.667 7.33301 -110 22v-194h-33zM112.999 400v-356.001
c34 -15.333 70.667 -23 110 -23c60.667 0 108.167 18.5 142.5 55.5s51.5 84.833 51.5 143.5c0 62.667 -18 110.834 -54 144.501s-86 50.5 -150 50.5c-40 0 -73.333 -5 -100 -15z" />
    <glyph glyph-name="q" unicode="q" horiz-adv-x="494" 
d="M418 419l0.000976562 -599h-33v194c-28 -14.667 -62.333 -22 -103 -22c-70 0 -126.833 19.5 -170.5 58.5s-65.5 94.833 -65.5 167.5c0 69.333 23.167 124.333 69.5 165s106.166 61 179.499 61c43.333 0 84.333 -8.33301 123 -25zM385.001 41v360
c-29.333 9.33301 -59.333 14 -90 14c-64.667 0 -116.667 -17.667 -156 -53s-59 -83.333 -59 -144c0 -62 18 -110.333 54 -145s85.333 -52 148 -52c34 0 68.333 6.66699 103 20z" />
    <glyph glyph-name="r" unicode="r" horiz-adv-x="301" 
d="M113 380v-380h-33v395c44.667 30.667 94 46 148 46c19.333 0 40.333 -2.66699 63 -8v-33c-20.667 6 -41.667 9 -63 9c-46.667 0 -85 -9.66699 -115 -29z" />
    <glyph glyph-name="s" unicode="s" horiz-adv-x="348" 
d="M43 36l-0.000976562 38.001c36.667 -35.333 77.334 -53 122.001 -53c32.667 0 58.167 7.5 76.5 22.5s27.5 36.833 27.5 65.5c0 27.333 -8.5 48.166 -25.5 62.499s-44.833 28.166 -83.5 41.499c-39.333 14 -68.333 30 -87 48s-28 42.333 -28 73c0 33.333 11.5 60 34.5 80
s52.833 30 89.5 30c42 0 78.667 -11.667 110 -35v-38c-34 29.333 -70.667 44 -110 44c-28.667 0 -51.167 -7.16699 -67.5 -21.5s-24.5 -34.166 -24.5 -59.499c0 -23.333 7.33301 -41.5 22 -54.5s40 -26.167 76 -39.5c22 -8 39 -14.833 51 -20.5s24.667 -13.5 38 -23.5
s22.833 -22 28.5 -36s8.5 -31 8.5 -51c0 -38 -13 -67 -39 -87s-58.333 -30 -97 -30c-24.667 0 -48.167 4.16699 -70.5 12.5s-39.5 18.833 -51.5 31.5z" />
    <glyph glyph-name="t" unicode="t" horiz-adv-x="296" 
d="M21 408v28h67v100h33v-100h135v-28h-135v-302c0 -55.333 22.333 -83 67 -83c24.667 0 50.667 8 78 24v-32c-23.333 -14 -49.333 -21 -78 -21c-66.667 0 -100 35.333 -100 106v308h-67z" />
    <glyph glyph-name="u" unicode="u" horiz-adv-x="482" 
d="M403 436v-428c-51.333 -10.667 -96.333 -16 -135 -16c-130.667 0 -196 48.333 -196 145v299h33v-297c0 -78 54.333 -117 163 -117c31.333 0 65.333 3.33301 102 10v404h33z" />
    <glyph glyph-name="v" unicode="v" horiz-adv-x="398" 
d="M219 0h-39l-173 436h35l158 -404l157 404h34z" />
    <glyph glyph-name="w" unicode="w" horiz-adv-x="606" 
d="M320 436l117 -404l130 404h32l-142 -436h-41l-113 394l-113 -394h-41l-142 436h33l130 -404l116 404h34z" />
    <glyph glyph-name="x" unicode="x" horiz-adv-x="379" 
d="M358 436l-149 -211l158 -225h-38l-141 201l-139 -201h-37l158 225l-149 211h38l132 -188l130 188h37z" />
    <glyph glyph-name="y" unicode="y" horiz-adv-x="413" 
d="M42 436l171 -421l160 421h33l-236 -616h-33l59 153l-189 463h35z" />
    <glyph glyph-name="z" unicode="z" horiz-adv-x="399" 
d="M363 28v-28h-326v30l282 378h-266v28h305v-28l-286 -380h291z" />
    <glyph glyph-name="braceleft" unicode="{" horiz-adv-x="314" 
d="M165 545v-169.002c0 -32.667 -7.83301 -57 -23.5 -73s-33.167 -26.667 -52.5 -32c11.333 -3.33301 22 -7.83301 32 -13.5s19.833 -16.667 29.5 -33s14.5 -35.833 14.5 -58.5v-169c0 -72.667 29.333 -109 88 -109h21v-26h-13c-44.667 0 -77 11.333 -97 34
s-30 56.334 -30 101.001v163c0 34.667 -8.16699 59.667 -24.5 75s-36.5 23 -60.5 23h-31v26h31c24 0 44.167 7.66699 60.5 23s24.5 40.333 24.5 75v163c0 44.667 10 78.334 30 101.001s52.333 34 97 34h13v-26h-21c-58.667 0 -88 -36.333 -88 -109z" />
    <glyph glyph-name="bar" unicode="|" horiz-adv-x="222" 
d="M96 -138v818h30v-818h-30z" />
    <glyph glyph-name="braceright" unicode="}" horiz-adv-x="314" 
d="M149 -3v169.002c0 32.667 7.83301 57 23.5 73s33.167 26.667 52.5 32c-11.333 3.33301 -22 7.83301 -32 13.5s-19.833 16.667 -29.5 33s-14.5 35.833 -14.5 58.5v169c0 72.667 -29.333 109 -88 109h-21v26h13c44.667 0 77 -11.333 97 -34s30 -56.334 30 -101.001v-163
c0 -34.667 8.16699 -59.667 24.5 -75s36.5 -23 60.5 -23h31v-26h-31c-24 0 -44.167 -7.66699 -60.5 -23s-24.5 -40.333 -24.5 -75v-163c0 -44.667 -10 -78.334 -30 -101.001s-52.333 -34 -97 -34h-13v26h21c58.667 0 88 36.333 88 109z" />
    <glyph glyph-name="asciitilde" unicode="~" horiz-adv-x="401" 
d="M318 304h29.998c0 -28.667 -6.83301 -51.5 -20.5 -68.5s-33.167 -25.5 -58.5 -25.5c-21.333 0 -45.666 11.5 -72.999 34.5s-48.666 34.5 -63.999 34.5c-16 0 -28.333 -6 -37 -18s-13 -28 -13 -48h-30c0 28.667 7 51.5 21 68.5s33.333 25.5 58 25.5
c21.333 0 45.5 -11.667 72.5 -35s48.5 -35 64.5 -35s28.333 6 37 18s13 28.333 13 49z" />
    <glyph glyph-name="uni00A0" unicode="&#xa0;" horiz-adv-x="190" 
 />
    <glyph glyph-name="exclamdown" unicode="&#xa1;" horiz-adv-x="236" 
d="M135 279v-437h-34v437h34zM90 410c0 8 2.66699 14.667 8 20s12 8 20 8s14.667 -2.66699 20 -8s8 -12 8 -20s-2.66699 -14.667 -8 -20s-12 -8 -20 -8s-14.667 2.66699 -20 8s-8 12 -8 20z" />
    <glyph glyph-name="cent" unicode="&#xa2;" horiz-adv-x="441" 
d="M273 528l-0.000976562 -90.001c44.667 -1.33301 83.334 -13.333 116.001 -36v-37c-31.333 26.667 -70 41 -116 43v-386c46.667 0.666992 87.667 13.334 123 38.001v-33c-30.667 -22 -71.667 -33.667 -123 -35v-87h-27v88c-56.667 5.33301 -103.5 28 -140.5 68
s-55.5 91.667 -55.5 155c0 64 18.667 115.667 56 155s84 61.333 140 66v91h27zM245.999 22.999l0.000976562 383.999c-46.667 -4.66699 -85.334 -24 -116.001 -58s-46 -78.667 -46 -134c0 -54 15 -98.167 45 -132.5s69 -54.166 117 -59.499z" />
    <glyph glyph-name="sterling" unicode="&#xa3;" horiz-adv-x="430" 
d="M110 274h-76v27h76v114c0 59.333 14.333 105.333 43 138s68.334 49 119.001 49c53.333 0 94.333 -16.667 123 -50v-39c-33.333 39.333 -74.333 59 -123 59c-41.333 0 -73.5 -13.5 -96.5 -40.5s-34.5 -65.833 -34.5 -116.5v-114h163v-27h-163v-58
c0 -44.667 -5.83301 -81 -17.5 -109s-29.834 -54 -54.501 -78h340v-29h-378v29c28 24 48.167 50.167 60.5 78.5s18.5 64.5 18.5 108.5v58z" />
    <glyph glyph-name="currency" unicode="&#xa4;" horiz-adv-x="510" 
d="M55 126l62 63.001c-26.667 32 -40 70.333 -40 115c0 46 13.667 84.667 41 116l-63 63l22 21l62 -63c32.667 27.333 71.334 41 116.001 41c45.333 0 83.666 -13.667 114.999 -41l63 63l21 -21l-63 -63c27.333 -31.333 41 -70 41 -116
c0 -44.667 -13.667 -83.334 -41 -116.001l63 -61l-21 -21l-63 61c-32 -26.667 -70.333 -40 -115 -40c-44 0 -83 13.333 -117 40l-62 -62zM107 304.001c0 -44 14.167 -80.333 42.5 -109s63.5 -43 105.5 -43c41.333 0 76.166 14.333 104.499 43s42.5 65 42.5 109
c0 44.667 -14.167 81.334 -42.5 110.001s-63.166 43 -104.499 43c-42 0 -77.167 -14.333 -105.5 -43s-42.5 -65.334 -42.5 -110.001z" />
    <glyph glyph-name="yen" unicode="&#xa5;" horiz-adv-x="471" 
d="M208 275l-188 319h36l180 -309l180 309h35l-189 -319h129v-26h-140v-72h140v-26h-140v-151h-32v151h-139v26h139v72h-139v26h128z" />
    <glyph glyph-name="brokenbar" unicode="&#xa6;" horiz-adv-x="222" 
d="M96 339v341h30v-341h-30zM96 -138v341h30v-341h-30z" />
    <glyph glyph-name="section" unicode="&#xa7;" horiz-adv-x="403" 
d="M83 -64l-0.000976562 34.9971c35.333 -32 75.333 -48 120 -48c28 0 50.833 7.33301 68.5 22s26.5 34.667 26.5 60c0 24.667 -8.16699 44 -24.5 58s-45.5 29.667 -87.5 47c-56.667 24 -96.5 45.667 -119.5 65s-34.5 47.333 -34.5 84c0 32.667 10 60.167 30 82.5
s45.333 38.5 76 48.5c-45.333 26 -68 60 -68 102c0 34 11.667 60.833 35 80.5s53.666 29.5 90.999 29.5c46 0 85.333 -13.667 118 -41v-35c-35.333 32 -74.666 48 -117.999 48c-28 0 -50.667 -7.33301 -68 -22s-26 -34.667 -26 -60c0 -24.667 8.5 -44.167 25.5 -58.5
s46.833 -30.166 89.5 -47.499c56.667 -23.333 96.5 -44.666 119.5 -63.999s34.5 -47.666 34.5 -84.999c0 -32.667 -10.167 -60.167 -30.5 -82.5s-45.833 -38.5 -76.5 -48.5c43.333 -25.333 65 -59 65 -101c0 -34 -11.667 -60.833 -35 -80.5s-53.666 -29.5 -90.999 -29.5
c-47.333 0 -87.333 13.667 -120 41zM339.999 236.997c0 28 -10.332 50.501 -30.999 67.501s-57.334 36.167 -110.001 57.5c-1.33301 0.666992 -5.83301 2.66699 -13.5 6s-13.167 5.66602 -16.5 6.99902c-30.667 -8 -56 -22 -76 -42s-30 -44.667 -30 -74
c0 -27.333 9.83301 -49 29.5 -65s56.5 -35.667 110.5 -59c3.33301 -2 8.83301 -4.5 16.5 -7.5s12.5 -5.16699 14.5 -6.5c30 8 55.167 22.167 75.5 42.5s30.5 44.833 30.5 73.5z" />
    <glyph glyph-name="dieresis" unicode="&#xa8;" horiz-adv-x="500" 
d="M176 536c-7.33301 0 -13.666 2.5 -18.999 7.5s-8 11.5 -8 19.5s2.66699 14.5 8 19.5s11.666 7.5 18.999 7.5s13.666 -2.5 18.999 -7.5s8 -11.5 8 -19.5s-2.66699 -14.5 -8 -19.5s-11.666 -7.5 -18.999 -7.5zM324 536c-7.33301 0 -13.666 2.5 -18.999 7.5s-8 11.5 -8 19.5
s2.66699 14.5 8 19.5s11.666 7.5 18.999 7.5s13.666 -2.5 18.999 -7.5s8 -11.5 8 -19.5s-2.66699 -14.5 -8 -19.5s-11.666 -7.5 -18.999 -7.5z" />
    <glyph glyph-name="copyright" unicode="&#xa9;" horiz-adv-x="693" 
d="M45 297c0 86.667 28.667 159.167 86 217.5s129.333 87.5 216 87.5s158.5 -29.167 215.5 -87.5s85.5 -130.833 85.5 -217.5c0 -86 -28.5 -158.167 -85.5 -216.5s-128.833 -87.5 -215.5 -87.5s-158.667 29.167 -216 87.5s-86 130.5 -86 216.5zM68 297
c0 -81.333 26.333 -148.833 79 -202.5s119.334 -80.5 200.001 -80.5s147.334 26.833 200.001 80.5s79 121.167 79 202.5c0 82 -26.333 149.833 -79 203.5s-119.334 80.5 -200.001 80.5s-147.334 -26.833 -200.001 -80.5s-79 -121.5 -79 -203.5zM470 175l0.000976562 -35
c-32.667 -21.333 -69.334 -32 -110.001 -32c-54 0 -98.333 17.5 -133 52.5s-52 80.167 -52 135.5c0 56 17.5 101.5 52.5 136.5s79.167 52.5 132.5 52.5c39.333 0 75.333 -11 108 -33v-35c-29.333 25.333 -65.333 38 -108 38c-44 0 -80.5 -14.833 -109.5 -44.5
s-43.5 -67.834 -43.5 -114.501c0 -47.333 14.5 -85.666 43.5 -114.999s65.833 -44 110.5 -44c42.667 0 79 12.667 109 38z" />
    <glyph glyph-name="ordfeminine" unicode="&#xaa;" horiz-adv-x="310" 
d="M238 451l0.000976562 44.001c0 51.333 -25.667 77 -77 77c-34 0 -67.333 -9.33301 -100 -28v32c27.333 17.333 60.666 26 99.999 26c34.667 0 61.667 -8.5 81 -25.5s29 -42.167 29 -75.5v-245c-28.667 -8 -58 -12 -88 -12c-50 0 -88.833 8.66699 -116.5 26
s-41.5 42.666 -41.5 75.999c0 70 57.667 105 173 105h40zM238.001 279.001v143h-39c-46 0 -80.667 -5.5 -104 -16.5s-35 -30.833 -35 -59.5c0 -49.333 41 -74 123 -74c18.667 0 37 2.33301 55 7z" />
    <glyph glyph-name="guillemotleft" unicode="&#xab;" horiz-adv-x="378" 
d="M210 373l-123 -158l123 -158h-37l-123 158l123 158h37zM328 373l-123 -158l123 -158h-37l-123 158l123 158h37z" />
    <glyph glyph-name="uni00AD" unicode="&#xad;" horiz-adv-x="355" 
d="M64 247v29h227v-29h-227z" />
    <glyph glyph-name="registered" unicode="&#xae;" horiz-adv-x="455" 
d="M227 229c-52.667 0 -96.667 17.833 -132 53.5s-53 79.834 -53 132.501s17.667 96.834 53 132.501s79.333 53.5 132 53.5s96.667 -17.833 132 -53.5s53 -79.834 53 -132.501s-17.667 -96.834 -53 -132.501s-79.333 -53.5 -132 -53.5zM227 249c48 0 87.167 15.667 117.5 47
s45.5 71 45.5 119s-15.167 87.667 -45.5 119s-69.5 47 -117.5 47s-87.167 -15.667 -117.5 -47s-45.5 -71 -45.5 -119s15.167 -87.667 45.5 -119s69.5 -47 117.5 -47zM197 392l0.000976562 -72h-24v192c15.333 3.33301 30 5 44 5c24 0 42.833 -5.5 56.5 -16.5
s20.5 -26.5 20.5 -46.5c0 -15.333 -4.33301 -27.833 -13 -37.5s-19.334 -16.167 -32.001 -19.5l63 -77h-31l-57 72h-27zM197.001 492v-79h23c14 0 25.667 3.5 35 10.5s14 17.167 14 30.5c0 26.667 -17 40 -51 40c-6 0 -13 -0.666992 -21 -2z" />
    <glyph glyph-name="macron" unicode="&#xaf;" horiz-adv-x="500" 
d="M153 536v27h193v-27h-193z" />
    <glyph glyph-name="degree" unicode="&#xb0;" horiz-adv-x="268" 
d="M28 494c0 29.333 10 53.833 30 73.5s45.333 29.5 76 29.5c30 0 55.167 -9.83301 75.5 -29.5s30.5 -44.167 30.5 -73.5s-10.167 -54 -30.5 -74s-45.5 -30 -75.5 -30c-30.667 0 -56 10 -76 30s-30 44.667 -30 74zM55 494c0 -23.333 7.33301 -42.5 22 -57.5
s33.667 -22.5 57 -22.5s42.333 7.5 57 22.5s22 34.167 22 57.5s-7.33301 42.333 -22 57s-33.667 22 -57 22s-42.333 -7.33301 -57 -22s-22 -33.667 -22 -57z" />
    <glyph glyph-name="plusminus" unicode="&#xb1;" horiz-adv-x="435" 
d="M203 326h-163v29h163v123h29v-123h163v-29h-163v-123h-29v123zM40 116v29h355v-29h-355z" />
    <glyph glyph-name="twosuperior" unicode="&#xb2;" horiz-adv-x="224" 
d="M47 305l159.001 -0.000976562v-27h-200v23c105.333 79.333 158 147.333 158 204c0 20 -5.5 35.833 -16.5 47.5s-26.833 17.5 -47.5 17.5c-30 0 -58.333 -13.333 -85 -40v30c23.333 25.333 53.333 38 90 38c27.333 0 49.166 -8 65.499 -24s24.5 -37.667 24.5 -65
c0 -33.333 -14 -68.166 -42 -104.499s-63.333 -69.5 -106 -99.5z" />
    <glyph glyph-name="threesuperior" unicode="&#xb3;" horiz-adv-x="216" 
d="M15 534v30.002c24 22.667 52.333 34 85 34c28.667 0 50.667 -7.16699 66 -21.5s23 -33.166 23 -56.499c0 -20.667 -6.83301 -38.334 -20.5 -53.001s-30.834 -23.667 -51.501 -27c22 -2.66699 40.667 -11 56 -25s23 -32 23 -54c0 -26 -9.5 -47 -28.5 -63
s-44.833 -24 -77.5 -24c-33.333 0 -59.666 8 -78.999 24v28c22.667 -18 48.667 -27 78 -27c24 0 42.833 5.66699 56.5 17s20.5 26.666 20.5 45.999c0 39.333 -30 61 -90 65v24c25.333 1.33301 45.333 8.16602 60 20.499s22 27.833 22 46.5c0 16 -5.33301 28.833 -16 38.5
s-25.667 14.5 -45 14.5c-28.667 0 -56 -12.333 -82 -37z" />
    <glyph glyph-name="acute" unicode="&#xb4;" horiz-adv-x="500" 
d="M224 513h-33l85 152h33z" />
    <glyph glyph-name="mu" unicode="&#xb5;" horiz-adv-x="482" 
d="M72 -180v616h33v-297c0 -78 54.333 -117 163 -117c31.333 0 65.333 3.33301 102 10v404h33v-428c-51.333 -10.667 -96.333 -16 -135 -16c-82.667 0 -137 19 -163 57v-229h-33z" />
    <glyph glyph-name="paragraph" unicode="&#xb6;" horiz-adv-x="394" 
d="M281 -106v700h32v-700h-32zM190 -106v422c-49.333 0 -90 11.667 -122 35s-48 58 -48 104s16 80.667 48 104s72.667 35 122 35h33v-700h-33z" />
    <glyph glyph-name="periodcentered" unicode="&#xb7;" horiz-adv-x="196" 
d="M70 261c0 8 2.66699 14.667 8 20s12 8 20 8s14.667 -2.66699 20 -8s8 -12 8 -20s-2.66699 -14.667 -8 -20s-12 -8 -20 -8s-14.667 2.66699 -20 8s-8 12 -8 20z" />
    <glyph glyph-name="cedilla" unicode="&#xb8;" horiz-adv-x="500" 
d="M261 8h30c0 -30.667 -6.5 -60 -19.5 -88s-29.833 -50.333 -50.5 -67h-35c50 43.333 75 95 75 155z" />
    <glyph glyph-name="onesuperior" unicode="&#xb9;" horiz-adv-x="158" 
d="M8 552v28l100 18v-320h-31v286z" />
    <glyph glyph-name="ordmasculine" unicode="&#xba;" horiz-adv-x="381" 
d="M20 423c0 53.333 15.832 96.5 47.499 129.5s72.834 49.5 123.501 49.5c50 0 90.833 -16.5 122.5 -49.5s47.5 -76.167 47.5 -129.5s-15.833 -96.333 -47.5 -129s-72.5 -49 -122.5 -49s-91 16.333 -123 49s-48 75.667 -48 129zM326.999 423
c0 45.333 -12.5 81.5 -37.5 108.5s-57.833 40.5 -98.5 40.5s-73.667 -13.5 -99 -40.5s-38 -63.167 -38 -108.5s12.667 -81.5 38 -108.5s58.333 -40.5 99 -40.5s73.5 13.5 98.5 40.5s37.5 63.167 37.5 108.5z" />
    <glyph glyph-name="guillemotright" unicode="&#xbb;" horiz-adv-x="378" 
d="M173 215l-123 158h37l123 -158l-123 -158h-37zM291 215l-123 158h37l123 -158l-123 -158h-37z" />
    <glyph glyph-name="onequarter" unicode="&#xbc;" horiz-adv-x="591" 
d="M40 552v28l100 18v-320h-31v286zM473 318v-207h58v-24h-58v-87h-29v87h-163v25l161 206h31zM444 283l-133 -172h133v172zM75 0l337 595h32l-337 -595h-32z" />
    <glyph glyph-name="onehalf" unicode="&#xbd;" horiz-adv-x="610" 
d="M391 27l159.001 -0.000976562v-27h-200v23c105.333 79.333 158 147.333 158 204c0 19.333 -5.5 35 -16.5 47s-26.833 18 -47.5 18c-30 0 -58.333 -13.333 -85 -40v30c23.333 25.333 53.333 38 90 38c27.333 0 49.166 -8.16699 65.499 -24.5s24.5 -38.166 24.5 -65.499
c0 -32.667 -14.167 -67.167 -42.5 -103.5s-63.5 -69.5 -105.5 -99.5zM40.001 551.999v28l100 18v-320h-31v286zM75.001 -0.000976562l337 595h32l-337 -595h-32z" />
    <glyph glyph-name="threequarters" unicode="&#xbe;" horiz-adv-x="644" 
d="M54 534v30.002c24 22.667 52.333 34 85 34c28.667 0 50.667 -7.16699 66 -21.5s23 -33.166 23 -56.499c0 -20.667 -6.83301 -38.334 -20.5 -53.001s-30.834 -23.667 -51.501 -27c22 -2.66699 40.667 -11 56 -25s23 -32 23 -54c0 -26 -9.5 -47 -28.5 -63
s-44.833 -24 -77.5 -24c-33.333 0 -59.666 8 -78.999 24v28c22.667 -18 48.667 -27 78 -27c24 0 42.833 5.66699 56.5 17s20.5 26.666 20.5 45.999c0 39.333 -30 61 -90 65v24c25.333 1.33301 45.333 8.16602 60 20.499s22 27.833 22 46.5c0 16 -5.33301 28.833 -16 38.5
s-25.667 14.5 -45 14.5c-28.667 0 -56 -12.333 -82 -37zM526 318.002v-207h58v-24h-58v-87h-29v87h-163v25l161 206h31zM497 283.002l-133 -172h133v172zM128 0.00195312l337 595h32l-337 -595h-32z" />
    <glyph glyph-name="questiondown" unicode="&#xbf;" horiz-adv-x="379" 
d="M360 -58l-0.00195312 -39c-14.667 -20 -35.834 -36.5 -63.501 -49.5s-57.167 -19.5 -88.5 -19.5c-53.333 0 -94.666 15.167 -123.999 45.5s-44 68.833 -44 115.5c0 23.333 3.83301 45 11.5 65s16.834 36.5 27.501 49.5s24.334 25.167 41.001 36.5
s31.667 20.166 45 26.499s28.333 12.5 45 18.5v88h34v-106c-56 -20 -98.333 -43.167 -127 -69.5s-43 -62.833 -43 -109.5c0 -37.333 11.5 -68.166 34.5 -92.499s56.167 -36.5 99.5 -36.5c59.333 0 110 25.667 152 77zM252.998 410c0 -8 -2.66699 -14.667 -8 -20
s-12 -8 -20 -8s-14.667 2.66699 -20 8s-8 12 -8 20s2.66699 14.667 8 20s12 8 20 8s14.667 -2.66699 20 -8s8 -12 8 -20z" />
    <glyph glyph-name="Agrave" unicode="&#xc0;" horiz-adv-x="537" 
d="M417 180h-299l-69 -180h-35l233 594h41l235 -594h-35zM405 210l-139 353l-136 -353h275zM282 647h-32l-73 131h32z" />
    <glyph glyph-name="Aacute" unicode="&#xc1;" horiz-adv-x="537" 
d="M417 180h-299l-69 -180h-35l233 594h41l235 -594h-35zM405 210l-139 353l-136 -353h275zM286 647h-32l73 131h32z" />
    <glyph glyph-name="Acircumflex" unicode="&#xc2;" horiz-adv-x="537" 
d="M417 180h-299l-69 -180h-35l233 594h41l235 -594h-35zM405 210l-139 353l-136 -353h275zM276 774l109 -133h-34l-83 101l-83 -101h-34l109 133h16z" />
    <glyph glyph-name="Atilde" unicode="&#xc3;" horiz-adv-x="537" 
d="M417 180h-299l-69 -180h-35l233 594h41l235 -594h-35zM405 210l-139 353l-136 -353h275zM361 736h26c0 -29.333 -5.5 -52.5 -16.5 -69.5s-26.5 -25.5 -46.5 -25.5c-15.333 0 -29.5 5.83301 -42.5 17.5s-25 23.334 -36 35.001s-21.5 17.5 -31.5 17.5
c-25.333 0 -38 -22.333 -38 -67h-26c0 29.333 5.5 52.5 16.5 69.5s26.5 25.5 46.5 25.5c15.333 0 29.333 -5.83301 42 -17.5s24.667 -23.334 36 -35.001s22 -17.5 32 -17.5c25.333 0 38 22.333 38 67z" />
    <glyph glyph-name="Adieresis" unicode="&#xc4;" horiz-adv-x="537" 
d="M417 180h-299l-69 -180h-35l233 594h41l235 -594h-35zM405 210l-139 353l-136 -353h275zM194 655c-7.33301 0 -13.666 2.5 -18.999 7.5s-8 11.5 -8 19.5s2.66699 14.5 8 19.5s11.666 7.5 18.999 7.5s13.666 -2.5 18.999 -7.5s8 -11.5 8 -19.5s-2.66699 -14.5 -8 -19.5
s-11.666 -7.5 -18.999 -7.5zM342 655c-7.33301 0 -13.666 2.5 -18.999 7.5s-8 11.5 -8 19.5s2.66699 14.5 8 19.5s11.666 7.5 18.999 7.5s13.666 -2.5 18.999 -7.5s8 -11.5 8 -19.5s-2.66699 -14.5 -8 -19.5s-11.666 -7.5 -18.999 -7.5z" />
    <glyph glyph-name="Aring" unicode="&#xc5;" horiz-adv-x="537" 
d="M417 180h-299l-69 -180h-35l233 594h41l235 -594h-35zM405 210l-139 353l-136 -353h275zM191 702c0 21.333 7.5 39.166 22.5 53.499s33.167 21.5 54.5 21.5s39.5 -7.16699 54.5 -21.5s22.5 -32.166 22.5 -53.499s-7.5 -39.166 -22.5 -53.499s-33.167 -21.5 -54.5 -21.5
s-39.5 7.16699 -54.5 21.5s-22.5 32.166 -22.5 53.499zM319 702c0 15.333 -4.49902 27.666 -13.499 36.999s-21.5 14 -37.5 14s-28.5 -4.66699 -37.5 -14s-13.5 -21.666 -13.5 -36.999c0 -14.667 4.66699 -26.834 14 -36.501s21.666 -14.5 36.999 -14.5
c16 0 28.5 4.83301 37.5 14.5s13.5 21.834 13.5 36.501z" />
    <glyph glyph-name="AE" unicode="&#xc6;" horiz-adv-x="808" 
d="M172 180l-122 -180h-36l402 594h337v-30h-286v-244h269v-30h-269v-260h289v-30h-323v180h-261zM192 210h241v357z" />
    <glyph glyph-name="Ccedilla" unicode="&#xc7;" horiz-adv-x="567" 
d="M289 -147l-34.999 0.000976562c45.333 40 70 86.667 74 140c-82 6.66699 -148.833 37.667 -200.5 93s-77.5 125.666 -77.5 210.999c0 89.333 28.167 162.5 84.5 219.5s127.5 85.5 213.5 85.5c64.667 0 119.334 -15 164.001 -45v-40c-42 36 -96.667 54 -164 54
c-74.667 0 -137.334 -25 -188.001 -75s-76 -116.333 -76 -199s26.167 -149 78.5 -199s117.5 -75 195.5 -75c68 0 122.667 15.667 164 47v-36c-37.333 -28 -92 -42 -164 -42c-2 -28 -9.33301 -54.5 -22 -79.5s-28.334 -44.833 -47.001 -59.5z" />
    <glyph glyph-name="Egrave" unicode="&#xc8;" horiz-adv-x="468" 
d="M127 30h289v-30h-323v594h320v-30h-286v-244h269v-30h-269v-260zM275 647h-32l-73 131h32z" />
    <glyph glyph-name="Eacute" unicode="&#xc9;" horiz-adv-x="468" 
d="M127 30h289v-30h-323v594h320v-30h-286v-244h269v-30h-269v-260zM272 647h-32l73 131h32z" />
    <glyph glyph-name="Ecircumflex" unicode="&#xca;" horiz-adv-x="468" 
d="M127 30h289v-30h-323v594h320v-30h-286v-244h269v-30h-269v-260zM266 774l109 -133h-34l-83 101l-83 -101h-34l109 133h16z" />
    <glyph glyph-name="Edieresis" unicode="&#xcb;" horiz-adv-x="468" 
d="M127 30h289v-30h-323v594h320v-30h-286v-244h269v-30h-269v-260zM184 655c-7.33301 0 -13.666 2.5 -18.999 7.5s-8 11.5 -8 19.5s2.66699 14.5 8 19.5s11.666 7.5 18.999 7.5s13.666 -2.5 18.999 -7.5s8 -11.5 8 -19.5s-2.66699 -14.5 -8 -19.5
s-11.666 -7.5 -18.999 -7.5zM332 655c-7.33301 0 -13.666 2.5 -18.999 7.5s-8 11.5 -8 19.5s2.66699 14.5 8 19.5s11.666 7.5 18.999 7.5s13.666 -2.5 18.999 -7.5s8 -11.5 8 -19.5s-2.66699 -14.5 -8 -19.5s-11.666 -7.5 -18.999 -7.5z" />
    <glyph glyph-name="Igrave" unicode="&#xcc;" horiz-adv-x="220" 
d="M127 594v-594h-34v594h34zM127 647h-32l-73 131h32z" />
    <glyph glyph-name="Iacute" unicode="&#xcd;" horiz-adv-x="220" 
d="M127 594v-594h-34v594h34zM124 647h-32l73 131h32z" />
    <glyph glyph-name="Icircumflex" unicode="&#xce;" horiz-adv-x="220" 
d="M127 594v-594h-34v594h34zM118 774l109 -133h-34l-83 101l-83 -101h-34l109 133h16z" />
    <glyph glyph-name="Idieresis" unicode="&#xcf;" horiz-adv-x="220" 
d="M127 594v-594h-34v594h34zM36 655c-7.33301 0 -13.666 2.5 -18.999 7.5s-8 11.5 -8 19.5s2.66699 14.5 8 19.5s11.666 7.5 18.999 7.5s13.666 -2.5 18.999 -7.5s8 -11.5 8 -19.5s-2.66699 -14.5 -8 -19.5s-11.666 -7.5 -18.999 -7.5zM184 655
c-7.33301 0 -13.666 2.5 -18.999 7.5s-8 11.5 -8 19.5s2.66699 14.5 8 19.5s11.666 7.5 18.999 7.5s13.666 -2.5 18.999 -7.5s8 -11.5 8 -19.5s-2.66699 -14.5 -8 -19.5s-11.666 -7.5 -18.999 -7.5z" />
    <glyph glyph-name="Eth" unicode="&#xd0;" horiz-adv-x="620" 
d="M100 290l-59.999 -0.000976562v30h60v275c35.333 4 68.666 6 99.999 6c126 0 219.167 -26.333 279.5 -79s90.5 -124 90.5 -214c0 -95.333 -29.5 -171.666 -88.5 -228.999s-147.833 -86 -266.5 -86c-34 0 -72.333 2.66699 -115 8v289zM134.001 289.999
l-0.00195312 -261.999c28.667 -3.33301 55.667 -5 81 -5c102.667 0 181.834 24.167 237.501 72.5s83.5 119.166 83.5 212.499c0 83.333 -28.167 148 -84.5 194s-140.166 69 -251.499 69c-18.667 0 -40.667 -1 -66 -3v-248h152v-30h-152z" />
    <glyph glyph-name="Ntilde" unicode="&#xd1;" horiz-adv-x="647" 
d="M127 594l394 -545v545h33v-594h-34l-394 545v-545h-33v594h34zM416 736l25.998 0.000976562c0 -29.333 -5.5 -52.5 -16.5 -69.5s-26.5 -25.5 -46.5 -25.5c-19.333 0 -39.666 11.667 -60.999 35s-37.666 35 -48.999 35c-25.333 0 -38 -22.333 -38 -67h-26
c0 29.333 5.5 52.5 16.5 69.5s26.5 25.5 46.5 25.5c15.333 0 29.333 -5.83301 42 -17.5s24.667 -23.334 36 -35.001s22 -17.5 32 -17.5c25.333 0 38 22.333 38 67z" />
    <glyph glyph-name="Ograve" unicode="&#xd2;" horiz-adv-x="698" 
d="M50 297c0 90 28.167 163.333 84.5 220s127.833 85 214.5 85s158.167 -28.333 214.5 -85s84.5 -130 84.5 -220s-28.167 -163.333 -84.5 -220s-127.833 -85 -214.5 -85s-158.167 28.333 -214.5 85s-84.5 130 -84.5 220zM614 297c0 82.667 -25.167 149 -75.5 199
s-113.5 75 -189.5 75s-139.167 -25 -189.5 -75s-75.5 -116.333 -75.5 -199s25.167 -149 75.5 -199s113.5 -75 189.5 -75s139.167 25 189.5 75s75.5 116.333 75.5 199zM366 647h-32l-73 131h32z" />
    <glyph glyph-name="Oacute" unicode="&#xd3;" horiz-adv-x="698" 
d="M50 297c0 90 28.167 163.333 84.5 220s127.833 85 214.5 85s158.167 -28.333 214.5 -85s84.5 -130 84.5 -220s-28.167 -163.333 -84.5 -220s-127.833 -85 -214.5 -85s-158.167 28.333 -214.5 85s-84.5 130 -84.5 220zM614 297c0 82.667 -25.167 149 -75.5 199
s-113.5 75 -189.5 75s-139.167 -25 -189.5 -75s-75.5 -116.333 -75.5 -199s25.167 -149 75.5 -199s113.5 -75 189.5 -75s139.167 25 189.5 75s75.5 116.333 75.5 199zM363 647h-32l73 131h32z" />
    <glyph glyph-name="Ocircumflex" unicode="&#xd4;" horiz-adv-x="698" 
d="M50 297c0 90 28.167 163.333 84.5 220s127.833 85 214.5 85s158.167 -28.333 214.5 -85s84.5 -130 84.5 -220s-28.167 -163.333 -84.5 -220s-127.833 -85 -214.5 -85s-158.167 28.333 -214.5 85s-84.5 130 -84.5 220zM614 297c0 82.667 -25.167 149 -75.5 199
s-113.5 75 -189.5 75s-139.167 -25 -189.5 -75s-75.5 -116.333 -75.5 -199s25.167 -149 75.5 -199s113.5 -75 189.5 -75s139.167 25 189.5 75s75.5 116.333 75.5 199zM357 774l109 -133h-34l-83 101l-83 -101h-34l109 133h16z" />
    <glyph glyph-name="Otilde" unicode="&#xd5;" horiz-adv-x="698" 
d="M50 297c0 90 28.167 163.333 84.5 220s127.833 85 214.5 85s158.167 -28.333 214.5 -85s84.5 -130 84.5 -220s-28.167 -163.333 -84.5 -220s-127.833 -85 -214.5 -85s-158.167 28.333 -214.5 85s-84.5 130 -84.5 220zM614 297c0 82.667 -25.167 149 -75.5 199
s-113.5 75 -189.5 75s-139.167 -25 -189.5 -75s-75.5 -116.333 -75.5 -199s25.167 -149 75.5 -199s113.5 -75 189.5 -75s139.167 25 189.5 75s75.5 116.333 75.5 199zM442 736l25.998 0.000976562c0 -29.333 -5.5 -52.5 -16.5 -69.5s-26.5 -25.5 -46.5 -25.5
c-19.333 0 -39.666 11.667 -60.999 35s-37.666 35 -48.999 35c-25.333 0 -38 -22.333 -38 -67h-26c0 29.333 5.5 52.5 16.5 69.5s26.5 25.5 46.5 25.5c15.333 0 29.333 -5.83301 42 -17.5s24.667 -23.334 36 -35.001s22 -17.5 32 -17.5c25.333 0 38 22.333 38 67z" />
    <glyph glyph-name="Odieresis" unicode="&#xd6;" horiz-adv-x="698" 
d="M50 297c0 90 28.167 163.333 84.5 220s127.833 85 214.5 85s158.167 -28.333 214.5 -85s84.5 -130 84.5 -220s-28.167 -163.333 -84.5 -220s-127.833 -85 -214.5 -85s-158.167 28.333 -214.5 85s-84.5 130 -84.5 220zM614 297c0 82.667 -25.167 149 -75.5 199
s-113.5 75 -189.5 75s-139.167 -25 -189.5 -75s-75.5 -116.333 -75.5 -199s25.167 -149 75.5 -199s113.5 -75 189.5 -75s139.167 25 189.5 75s75.5 116.333 75.5 199zM275 655c-7.33301 0 -13.666 2.5 -18.999 7.5s-8 11.5 -8 19.5s2.66699 14.5 8 19.5
s11.666 7.5 18.999 7.5s13.666 -2.5 18.999 -7.5s8 -11.5 8 -19.5s-2.66699 -14.5 -8 -19.5s-11.666 -7.5 -18.999 -7.5zM423 655c-7.33301 0 -13.666 2.5 -18.999 7.5s-8 11.5 -8 19.5s2.66699 14.5 8 19.5s11.666 7.5 18.999 7.5s13.666 -2.5 18.999 -7.5s8 -11.5 8 -19.5
s-2.66699 -14.5 -8 -19.5s-11.666 -7.5 -18.999 -7.5z" />
    <glyph glyph-name="multiply" unicode="&#xd7;" horiz-adv-x="362" 
d="M161 291l-121 122l21 20l120 -122l120 122l21 -20l-120 -122l120 -122l-21 -20l-120 121l-120 -121l-21 20z" />
    <glyph glyph-name="Oslash" unicode="&#xd8;" horiz-adv-x="698" 
d="M658 594l-85.001 -87c50 -56.667 75 -126.667 75 -210c0 -90 -28.167 -163.333 -84.5 -220s-127.833 -85 -214.5 -85c-81.333 0 -149.666 25 -204.999 75l-65 -67h-39l85 87c-50 56.667 -75 126.667 -75 210c0 90 28.167 163.333 84.5 220s127.833 85 214.5 85
c80 0 148 -25.333 204 -76l66 68h39zM550.999 485l-386 -396c48 -44 109.333 -66 184 -66c76 0 139.167 25 189.5 75s75.5 116.333 75.5 199c0 77.333 -21 140 -63 188zM145.999 109l386 396.001c-48 44 -109 66 -183 66c-76 0 -139.167 -25 -189.5 -75
s-75.5 -116.333 -75.5 -199c0 -76.667 20.667 -139.334 62 -188.001z" />
    <glyph glyph-name="Ugrave" unicode="&#xd9;" horiz-adv-x="592" 
d="M76 194v400h34v-404c0 -111.333 70 -167 210 -167c52.667 0 101 5 145 15v556h34v-579c-60 -15.333 -119.667 -23 -179 -23c-162.667 0 -244 67.333 -244 202zM304 647h-32l-73 131h32z" />
    <glyph glyph-name="Uacute" unicode="&#xda;" horiz-adv-x="592" 
d="M76 194v400h34v-404c0 -111.333 70 -167 210 -167c52.667 0 101 5 145 15v556h34v-579c-60 -15.333 -119.667 -23 -179 -23c-162.667 0 -244 67.333 -244 202zM301 647h-32l73 131h32z" />
    <glyph glyph-name="Ucircumflex" unicode="&#xdb;" horiz-adv-x="592" 
d="M76 194v400h34v-404c0 -111.333 70 -167 210 -167c52.667 0 101 5 145 15v556h34v-579c-60 -15.333 -119.667 -23 -179 -23c-162.667 0 -244 67.333 -244 202zM295 774l109 -133h-34l-83 101l-83 -101h-34l109 133h16z" />
    <glyph glyph-name="Udieresis" unicode="&#xdc;" horiz-adv-x="592" 
d="M76 194v400h34v-404c0 -111.333 70 -167 210 -167c52.667 0 101 5 145 15v556h34v-579c-60 -15.333 -119.667 -23 -179 -23c-162.667 0 -244 67.333 -244 202zM213 655c-7.33301 0 -13.666 2.5 -18.999 7.5s-8 11.5 -8 19.5s2.66699 14.5 8 19.5s11.666 7.5 18.999 7.5
s13.666 -2.5 18.999 -7.5s8 -11.5 8 -19.5s-2.66699 -14.5 -8 -19.5s-11.666 -7.5 -18.999 -7.5zM361 655c-7.33301 0 -13.666 2.5 -18.999 7.5s-8 11.5 -8 19.5s2.66699 14.5 8 19.5s11.666 7.5 18.999 7.5s13.666 -2.5 18.999 -7.5s8 -11.5 8 -19.5
s-2.66699 -14.5 -8 -19.5s-11.666 -7.5 -18.999 -7.5z" />
    <glyph glyph-name="Yacute" unicode="&#xdd;" horiz-adv-x="497" 
d="M249 277l197 317h37l-218 -350v-244h-34v244l-217 350h38zM262 647h-32l73 131h32z" />
    <glyph glyph-name="Thorn" unicode="&#xde;" horiz-adv-x="427" 
d="M127 124v-124h-34v594h34v-106c10.667 1.33301 26.334 2 47.001 2c75.333 0 132.666 -15.167 171.999 -45.5s59 -74.5 59 -132.5c0 -60 -20 -106.667 -60 -140s-97.667 -50 -173 -50c-15.333 0 -30.333 0.666992 -45 2zM127 458l0.000976562 -304
c16 -1.33301 31 -2 45 -2c132 0 198 53.333 198 160c0 44.667 -15.5 80.5 -46.5 107.5s-80.833 40.5 -149.5 40.5c-16.667 0 -32.334 -0.666992 -47.001 -2z" />
    <glyph glyph-name="germandbls" unicode="&#xdf;" horiz-adv-x="475" 
d="M80 0l0.000976562 532.002c0 46.667 12.833 84.334 38.5 113.001s61.5 43 107.5 43c38 0 69.5 -11.167 94.5 -33.5s37.5 -52.166 37.5 -89.499c0 -18.667 -5.33301 -37.334 -16 -56.001s-22.167 -34.334 -34.5 -47.001s-23.833 -26.667 -34.5 -42s-16 -29 -16 -41
c0 -16.667 6.5 -32.334 19.5 -47.001s28.667 -27.834 47 -39.501s36.666 -24.167 54.999 -37.5s34 -30.333 47 -51s19.5 -43.667 19.5 -69c0 -42 -12.833 -76.333 -38.5 -103s-61.834 -40 -108.501 -40c-46 0 -82 10.333 -108 31v38c27.333 -27.333 63.333 -41 108 -41
c33.333 0 60.5 10 81.5 30s31.5 48.333 31.5 85c0 22.667 -6.5 43 -19.5 61s-28.667 33.167 -47 45.5l-55 36.5c-18.333 12 -34 26.5 -47 43.5s-19.5 36.167 -19.5 57.5c0 18 8.5 37.667 25.5 59l51 65c17 22 25.5 42.667 25.5 62c0 26.667 -9.16699 49 -27.5 67
s-42.166 27 -71.499 27c-36 0 -63.833 -11.167 -83.5 -33.5s-29.5 -55.5 -29.5 -99.5v-526h-33z" />
    <glyph glyph-name="agrave" unicode="&#xe0;" horiz-adv-x="415" 
d="M310 249v65c0 32 -8.5 56.667 -25.5 74s-41.5 26 -73.5 26c-44 0 -85.333 -11 -124 -33v31c34.667 21.333 76.334 32 125.001 32c87.333 0 131 -42 131 -126v-311c-34.667 -10 -69.334 -15 -104.001 -15c-62 0 -110.333 10.833 -145 32.5s-52 53.5 -52 95.5
c0 86 72.333 129 217 129h51zM310 28v192h-50c-123.333 0 -185 -33.333 -185 -100c0 -33.333 15.167 -58.333 45.5 -75s69.833 -25 118.5 -25c26 0 49.667 2.66699 71 8zM231 513h-33l-85 152h33z" />
    <glyph glyph-name="aacute" unicode="&#xe1;" horiz-adv-x="415" 
d="M310 249v65c0 32 -8.5 56.667 -25.5 74s-41.5 26 -73.5 26c-44 0 -85.333 -11 -124 -33v31c34.667 21.333 76.334 32 125.001 32c87.333 0 131 -42 131 -126v-311c-34.667 -10 -69.334 -15 -104.001 -15c-62 0 -110.333 10.833 -145 32.5s-52 53.5 -52 95.5
c0 86 72.333 129 217 129h51zM310 28v192h-50c-123.333 0 -185 -33.333 -185 -100c0 -33.333 15.167 -58.333 45.5 -75s69.833 -25 118.5 -25c26 0 49.667 2.66699 71 8zM226 513h-33l85 152h33z" />
    <glyph glyph-name="acircumflex" unicode="&#xe2;" horiz-adv-x="415" 
d="M310 249v65c0 32 -8.5 56.667 -25.5 74s-41.5 26 -73.5 26c-44 0 -85.333 -11 -124 -33v31c34.667 21.333 76.334 32 125.001 32c87.333 0 131 -42 131 -126v-311c-34.667 -10 -69.334 -15 -104.001 -15c-62 0 -110.333 10.833 -145 32.5s-52 53.5 -52 95.5
c0 86 72.333 129 217 129h51zM310 28v192h-50c-123.333 0 -185 -33.333 -185 -100c0 -33.333 15.167 -58.333 45.5 -75s69.833 -25 118.5 -25c26 0 49.667 2.66699 71 8zM215 651l106 -137h-34l-81 106l-81 -106h-34l106 137h18z" />
    <glyph glyph-name="atilde" unicode="&#xe3;" horiz-adv-x="415" 
d="M310 249v65c0 32 -8.5 56.667 -25.5 74s-41.5 26 -73.5 26c-44 0 -85.333 -11 -124 -33v31c34.667 21.333 76.334 32 125.001 32c87.333 0 131 -42 131 -126v-311c-34.667 -10 -69.334 -15 -104.001 -15c-62 0 -110.333 10.833 -145 32.5s-52 53.5 -52 95.5
c0 86 72.333 129 217 129h51zM310 28v192h-50c-123.333 0 -185 -33.333 -185 -100c0 -33.333 15.167 -58.333 45.5 -75s69.833 -25 118.5 -25c26 0 49.667 2.66699 71 8zM300 610l25.998 0.000976562c0 -29.333 -5.5 -52.5 -16.5 -69.5s-26.5 -25.5 -46.5 -25.5
c-19.333 0 -39.666 11.667 -60.999 35s-37.666 35 -48.999 35c-25.333 0 -38 -22.333 -38 -67h-26c0 29.333 5.5 52.5 16.5 69.5s26.5 25.5 46.5 25.5c14.667 0 28.5 -5.83301 41.5 -17.5s25.167 -23.334 36.5 -35.001s22 -17.5 32 -17.5c25.333 0 38 22.333 38 67z" />
    <glyph glyph-name="adieresis" unicode="&#xe4;" horiz-adv-x="415" 
d="M310 249v65c0 32 -8.5 56.667 -25.5 74s-41.5 26 -73.5 26c-44 0 -85.333 -11 -124 -33v31c34.667 21.333 76.334 32 125.001 32c87.333 0 131 -42 131 -126v-311c-34.667 -10 -69.334 -15 -104.001 -15c-62 0 -110.333 10.833 -145 32.5s-52 53.5 -52 95.5
c0 86 72.333 129 217 129h51zM310 28v192h-50c-123.333 0 -185 -33.333 -185 -100c0 -33.333 15.167 -58.333 45.5 -75s69.833 -25 118.5 -25c26 0 49.667 2.66699 71 8zM138 536c-7.33301 0 -13.666 2.5 -18.999 7.5s-8 11.5 -8 19.5s2.66699 14.5 8 19.5
s11.666 7.5 18.999 7.5s13.666 -2.5 18.999 -7.5s8 -11.5 8 -19.5s-2.66699 -14.5 -8 -19.5s-11.666 -7.5 -18.999 -7.5zM286 536c-7.33301 0 -13.666 2.5 -18.999 7.5s-8 11.5 -8 19.5s2.66699 14.5 8 19.5s11.666 7.5 18.999 7.5s13.666 -2.5 18.999 -7.5s8 -11.5 8 -19.5
s-2.66699 -14.5 -8 -19.5s-11.666 -7.5 -18.999 -7.5z" />
    <glyph glyph-name="aring" unicode="&#xe5;" horiz-adv-x="415" 
d="M310 249v65c0 32 -8.5 56.667 -25.5 74s-41.5 26 -73.5 26c-44 0 -85.333 -11 -124 -33v31c34.667 21.333 76.334 32 125.001 32c87.333 0 131 -42 131 -126v-311c-34.667 -10 -69.334 -15 -104.001 -15c-62 0 -110.333 10.833 -145 32.5s-52 53.5 -52 95.5
c0 86 72.333 129 217 129h51zM310 28v192h-50c-123.333 0 -185 -33.333 -185 -100c0 -33.333 15.167 -58.333 45.5 -75s69.833 -25 118.5 -25c26 0 49.667 2.66699 71 8zM135 582c0 21.333 7.5 39.166 22.5 53.499s33.167 21.5 54.5 21.5s39.5 -7.16699 54.5 -21.5
s22.5 -32.166 22.5 -53.499s-7.5 -39.166 -22.5 -53.499s-33.167 -21.5 -54.5 -21.5s-39.5 7.16699 -54.5 21.5s-22.5 32.166 -22.5 53.499zM263 582c0 15.333 -4.49902 27.666 -13.499 36.999s-21.5 14 -37.5 14s-28.5 -4.66699 -37.5 -14s-13.5 -21.666 -13.5 -36.999
c0 -14.667 4.66699 -26.834 14 -36.501s21.666 -14.5 36.999 -14.5c16 0 28.5 4.83301 37.5 14.5s13.5 21.834 13.5 36.501z" />
    <glyph glyph-name="ae" unicode="&#xe6;" horiz-adv-x="737" 
d="M693 217h-345.001c0.666992 -59.333 18 -106.833 52 -142.5s77 -53.5 129 -53.5c55.333 0 103.666 16 144.999 48v-32c-36.667 -30 -85 -45 -145 -45c-77.333 0 -135.333 29.667 -174 89c-41.333 -59.333 -96.666 -89 -165.999 -89c-43.333 0 -78.666 10.5 -105.999 31.5
s-41 50.833 -41 89.5c0 44 19 76.667 57 98s90 32 156 32h63c2 20.667 5.33301 38.667 10 54c-2 78.667 -40.667 118 -116 118c-40 0 -82.667 -11.333 -128 -34v31c39.333 21.333 82 32 128 32c78 0 124 -32 138 -96c17.333 30 40.333 53.5 69 70.5s60.667 25.5 96 25.5
c58 0 102.167 -19 132.5 -57s45.5 -87.333 45.5 -148v-22zM316.999 217l-60.001 0.000976562c-121.333 0 -182 -34.667 -182 -104c0 -30 10.833 -53 32.5 -69s48.834 -24 81.501 -24c32 0 61.167 7.66699 87.5 23s47.5 37 63.5 65c-14 31.333 -21.667 67.666 -23 108.999z
M348.998 243.001h312.001c-1.33301 52 -14 93.667 -38 125s-60.333 47 -109 47c-46 0 -83.833 -15.667 -113.5 -47s-46.834 -73 -51.501 -125z" />
    <glyph glyph-name="ccedilla" unicode="&#xe7;" horiz-adv-x="437" 
d="M200 -147l-34.998 -0.00195312c45.333 40 70 86.667 74 140c-56 6 -102.167 29.333 -138.5 70s-54.5 92.667 -54.5 156c0 68.667 21 123.334 63 164.001s93 61 153 61c47.333 0 88.333 -12 123 -36v-36c-34 28 -75 42 -123 42c-51.333 0 -94.5 -17.667 -129.5 -53
s-52.5 -82.666 -52.5 -141.999s17.5 -107 52.5 -143s79.167 -54 132.5 -54c49.333 0 91.666 12.333 126.999 37v-32c-30.667 -22 -71.667 -33.667 -123 -35c-2 -28 -9.33301 -54.5 -22 -79.5s-28.334 -44.833 -47.001 -59.5z" />
    <glyph glyph-name="egrave" unicode="&#xe8;" horiz-adv-x="466" 
d="M422 227h-344v-7c0 -60.667 17 -108.834 51 -144.501s77.667 -53.5 131 -53.5c56.667 0 104.667 16.667 144 50v-35c-35.333 -30 -83.333 -45 -144 -45c-61.333 0 -112.333 20.333 -153 61s-61 96.334 -61 167.001c0 61.333 19.5 114 58.5 158s87.167 66 144.5 66
c53.333 0 95.5 -17.167 126.5 -51.5s46.5 -80.5 46.5 -138.5v-27zM81 254h308.001c0 49.333 -12.5 88.5 -37.5 117.5s-59.167 43.5 -102.5 43.5c-42 0 -78.833 -15.167 -110.5 -45.5s-50.834 -68.833 -57.501 -115.5zM269.001 513h-33l-85 152h33z" />
    <glyph glyph-name="eacute" unicode="&#xe9;" horiz-adv-x="466" 
d="M422 227h-344v-7c0 -60.667 17 -108.834 51 -144.501s77.667 -53.5 131 -53.5c56.667 0 104.667 16.667 144 50v-35c-35.333 -30 -83.333 -45 -144 -45c-61.333 0 -112.333 20.333 -153 61s-61 96.334 -61 167.001c0 61.333 19.5 114 58.5 158s87.167 66 144.5 66
c53.333 0 95.5 -17.167 126.5 -51.5s46.5 -80.5 46.5 -138.5v-27zM81 254h308.001c0 49.333 -12.5 88.5 -37.5 117.5s-59.167 43.5 -102.5 43.5c-42 0 -78.833 -15.167 -110.5 -45.5s-50.834 -68.833 -57.501 -115.5zM264.001 513h-33l85 152h33z" />
    <glyph glyph-name="ecircumflex" unicode="&#xea;" horiz-adv-x="466" 
d="M422 227h-344v-7c0 -60.667 17 -108.834 51 -144.501s77.667 -53.5 131 -53.5c56.667 0 104.667 16.667 144 50v-35c-35.333 -30 -83.333 -45 -144 -45c-61.333 0 -112.333 20.333 -153 61s-61 96.334 -61 167.001c0 61.333 19.5 114 58.5 158s87.167 66 144.5 66
c53.333 0 95.5 -17.167 126.5 -51.5s46.5 -80.5 46.5 -138.5v-27zM81 254h308.001c0 49.333 -12.5 88.5 -37.5 117.5s-59.167 43.5 -102.5 43.5c-42 0 -78.833 -15.167 -110.5 -45.5s-50.834 -68.833 -57.501 -115.5zM259.001 651l106 -137h-34l-81 106l-81 -106h-34
l106 137h18z" />
    <glyph glyph-name="edieresis" unicode="&#xeb;" horiz-adv-x="466" 
d="M422 227h-344v-7c0 -60.667 17 -108.834 51 -144.501s77.667 -53.5 131 -53.5c56.667 0 104.667 16.667 144 50v-35c-35.333 -30 -83.333 -45 -144 -45c-61.333 0 -112.333 20.333 -153 61s-61 96.334 -61 167.001c0 61.333 19.5 114 58.5 158s87.167 66 144.5 66
c53.333 0 95.5 -17.167 126.5 -51.5s46.5 -80.5 46.5 -138.5v-27zM81 254h308.001c0 49.333 -12.5 88.5 -37.5 117.5s-59.167 43.5 -102.5 43.5c-42 0 -78.833 -15.167 -110.5 -45.5s-50.834 -68.833 -57.501 -115.5zM176.001 536c-7.33301 0 -13.666 2.5 -18.999 7.5
s-8 11.5 -8 19.5s2.66699 14.5 8 19.5s11.666 7.5 18.999 7.5s13.666 -2.5 18.999 -7.5s8 -11.5 8 -19.5s-2.66699 -14.5 -8 -19.5s-11.666 -7.5 -18.999 -7.5zM324.001 536c-7.33301 0 -13.666 2.5 -18.999 7.5s-8 11.5 -8 19.5s2.66699 14.5 8 19.5s11.666 7.5 18.999 7.5
s13.666 -2.5 18.999 -7.5s8 -11.5 8 -19.5s-2.66699 -14.5 -8 -19.5s-11.666 -7.5 -18.999 -7.5z" />
    <glyph glyph-name="igrave" unicode="&#xec;" horiz-adv-x="193" 
d="M113 436v-436h-33v436h33zM115 513h-33l-85 152h33z" />
    <glyph glyph-name="iacute" unicode="&#xed;" horiz-adv-x="193" 
d="M113 436v-436h-33v436h33zM114 513h-33l85 152h33z" />
    <glyph glyph-name="icircumflex" unicode="&#xee;" horiz-adv-x="193" 
d="M113 436v-436h-33v436h33zM105 651l106 -137h-34l-81 106l-81 -106h-34l106 137h18z" />
    <glyph glyph-name="idieresis" unicode="&#xef;" horiz-adv-x="193" 
d="M113 436v-436h-33v436h33zM22 536c-7.33301 0 -13.666 2.5 -18.999 7.5s-8 11.5 -8 19.5s2.66699 14.5 8 19.5s11.666 7.5 18.999 7.5s13.666 -2.5 18.999 -7.5s8 -11.5 8 -19.5s-2.66699 -14.5 -8 -19.5s-11.666 -7.5 -18.999 -7.5zM170 536
c-7.33301 0 -13.666 2.5 -18.999 7.5s-8 11.5 -8 19.5s2.66699 14.5 8 19.5s11.666 7.5 18.999 7.5s13.666 -2.5 18.999 -7.5s8 -11.5 8 -19.5s-2.66699 -14.5 -8 -19.5s-11.666 -7.5 -18.999 -7.5z" />
    <glyph glyph-name="eth" unicode="&#xf0;" horiz-adv-x="515" 
d="M422 572l-82 -22c86 -102.667 129 -212 129 -328c0 -68 -19.667 -123.333 -59 -166s-90 -64 -152 -64c-61.333 0 -112 21 -152 63s-60 96 -60 162c0 66.667 19.833 121.167 59.5 163.5s90.5 63.5 152.5 63.5c78 0 133.667 -35 167 -105c-18 68 -56.667 135.333 -116 202
l-179 -48v26l161 43c-38.667 42 -82.667 81.333 -132 118h44c45.333 -34.667 85 -71 119 -109l100 27v-26zM436 217c0 58 -16.5 105.501 -49.5 142.501s-75.833 55.5 -128.5 55.5c-52 0 -94.667 -18.333 -128 -55s-50 -84.334 -50 -143.001c0 -58 16.667 -105.167 50 -141.5
s76 -54.5 128 -54.5s94.667 18.167 128 54.5s50 83.5 50 141.5z" />
    <glyph glyph-name="ntilde" unicode="&#xf1;" horiz-adv-x="495" 
d="M80 0l-0.00195312 414c54.667 20 110 30 166 30c116 0 174 -48 174 -144v-300h-33v292c0 45.333 -12.667 76.833 -38 94.5s-59.666 26.5 -102.999 26.5c-37.333 0 -81.666 -6 -132.999 -18v-395h-33zM333.998 610l25.998 0.000976562c0 -29.333 -5.5 -52.5 -16.5 -69.5
s-26.5 -25.5 -46.5 -25.5c-19.333 0 -39.666 11.667 -60.999 35s-37.666 35 -48.999 35c-25.333 0 -38 -22.333 -38 -67h-26c0 29.333 5.5 52.5 16.5 69.5s26.5 25.5 46.5 25.5c15.333 0 29.333 -5.83301 42 -17.5s24.667 -23.334 36 -35.001s22 -17.5 32 -17.5
c25.333 0 38 22.333 38 67z" />
    <glyph glyph-name="ograve" unicode="&#xf2;" horiz-adv-x="516" 
d="M46 218c0 66.667 19.833 121 59.5 163s90.5 63 152.5 63s112.833 -21 152.5 -63s59.5 -96.333 59.5 -163s-19.833 -121 -59.5 -163s-90.5 -63 -152.5 -63s-112.833 21 -152.5 63s-59.5 96.333 -59.5 163zM436 218c0 58.667 -16.5 106.167 -49.5 142.5
s-75.833 54.5 -128.5 54.5s-95.5 -18.167 -128.5 -54.5s-49.5 -83.833 -49.5 -142.5s16.5 -106.167 49.5 -142.5s75.833 -54.5 128.5 -54.5s95.5 18.167 128.5 54.5s49.5 83.833 49.5 142.5zM277 513h-33l-85 152h33z" />
    <glyph glyph-name="oacute" unicode="&#xf3;" horiz-adv-x="516" 
d="M46 218c0 66.667 19.833 121 59.5 163s90.5 63 152.5 63s112.833 -21 152.5 -63s59.5 -96.333 59.5 -163s-19.833 -121 -59.5 -163s-90.5 -63 -152.5 -63s-112.833 21 -152.5 63s-59.5 96.333 -59.5 163zM436 218c0 58.667 -16.5 106.167 -49.5 142.5
s-75.833 54.5 -128.5 54.5s-95.5 -18.167 -128.5 -54.5s-49.5 -83.833 -49.5 -142.5s16.5 -106.167 49.5 -142.5s75.833 -54.5 128.5 -54.5s95.5 18.167 128.5 54.5s49.5 83.833 49.5 142.5zM272 513h-33l85 152h33z" />
    <glyph glyph-name="ocircumflex" unicode="&#xf4;" horiz-adv-x="516" 
d="M46 218c0 66.667 19.833 121 59.5 163s90.5 63 152.5 63s112.833 -21 152.5 -63s59.5 -96.333 59.5 -163s-19.833 -121 -59.5 -163s-90.5 -63 -152.5 -63s-112.833 21 -152.5 63s-59.5 96.333 -59.5 163zM436 218c0 58.667 -16.5 106.167 -49.5 142.5
s-75.833 54.5 -128.5 54.5s-95.5 -18.167 -128.5 -54.5s-49.5 -83.833 -49.5 -142.5s16.5 -106.167 49.5 -142.5s75.833 -54.5 128.5 -54.5s95.5 18.167 128.5 54.5s49.5 83.833 49.5 142.5zM267 651l106 -137h-34l-81 106l-81 -106h-34l106 137h18z" />
    <glyph glyph-name="otilde" unicode="&#xf5;" horiz-adv-x="516" 
d="M46 218c0 66.667 19.833 121 59.5 163s90.5 63 152.5 63s112.833 -21 152.5 -63s59.5 -96.333 59.5 -163s-19.833 -121 -59.5 -163s-90.5 -63 -152.5 -63s-112.833 21 -152.5 63s-59.5 96.333 -59.5 163zM436 218c0 58.667 -16.5 106.167 -49.5 142.5
s-75.833 54.5 -128.5 54.5s-95.5 -18.167 -128.5 -54.5s-49.5 -83.833 -49.5 -142.5s16.5 -106.167 49.5 -142.5s75.833 -54.5 128.5 -54.5s95.5 18.167 128.5 54.5s49.5 83.833 49.5 142.5zM351 610h26c0 -29.333 -5.5 -52.5 -16.5 -69.5s-26.5 -25.5 -46.5 -25.5
c-15.333 0 -29.5 5.83301 -42.5 17.5s-25 23.334 -36 35.001s-21.5 17.5 -31.5 17.5c-25.333 0 -38 -22.333 -38 -67h-26c0 29.333 5.5 52.5 16.5 69.5s26.5 25.5 46.5 25.5c15.333 0 29.333 -5.83301 42 -17.5s24.667 -23.334 36 -35.001s22 -17.5 32 -17.5
c25.333 0 38 22.333 38 67z" />
    <glyph glyph-name="odieresis" unicode="&#xf6;" horiz-adv-x="516" 
d="M46 218c0 66.667 19.833 121 59.5 163s90.5 63 152.5 63s112.833 -21 152.5 -63s59.5 -96.333 59.5 -163s-19.833 -121 -59.5 -163s-90.5 -63 -152.5 -63s-112.833 21 -152.5 63s-59.5 96.333 -59.5 163zM436 218c0 58.667 -16.5 106.167 -49.5 142.5
s-75.833 54.5 -128.5 54.5s-95.5 -18.167 -128.5 -54.5s-49.5 -83.833 -49.5 -142.5s16.5 -106.167 49.5 -142.5s75.833 -54.5 128.5 -54.5s95.5 18.167 128.5 54.5s49.5 83.833 49.5 142.5zM184 536c-7.33301 0 -13.666 2.5 -18.999 7.5s-8 11.5 -8 19.5
s2.66699 14.5 8 19.5s11.666 7.5 18.999 7.5s13.666 -2.5 18.999 -7.5s8 -11.5 8 -19.5s-2.66699 -14.5 -8 -19.5s-11.666 -7.5 -18.999 -7.5zM332 536c-7.33301 0 -13.666 2.5 -18.999 7.5s-8 11.5 -8 19.5s2.66699 14.5 8 19.5s11.666 7.5 18.999 7.5
s13.666 -2.5 18.999 -7.5s8 -11.5 8 -19.5s-2.66699 -14.5 -8 -19.5s-11.666 -7.5 -18.999 -7.5z" />
    <glyph glyph-name="divide" unicode="&#xf7;" horiz-adv-x="435" 
d="M40 278v29h355v-29h-355zM188 143c0 8.66699 2.83301 15.834 8.5 21.501s12.5 8.5 20.5 8.5c8.66699 0 15.834 -2.83301 21.501 -8.5s8.5 -12.834 8.5 -21.501c0 -8 -2.83301 -14.833 -8.5 -20.5s-12.834 -8.5 -21.501 -8.5c-8 0 -14.833 2.83301 -20.5 8.5
s-8.5 12.5 -8.5 20.5zM188 443c0 8 2.83301 14.833 8.5 20.5s12.5 8.5 20.5 8.5c8.66699 0 15.834 -2.83301 21.501 -8.5s8.5 -12.5 8.5 -20.5c0 -8.66699 -2.83301 -15.834 -8.5 -21.501s-12.834 -8.5 -21.501 -8.5c-8 0 -14.833 2.83301 -20.5 8.5
s-8.5 12.834 -8.5 21.501z" />
    <glyph glyph-name="oslash" unicode="&#xf8;" horiz-adv-x="516" 
d="M480 436l-60 -64c33.333 -40.667 50 -92 50 -154c0 -66.667 -19.833 -121 -59.5 -163s-90.5 -63 -152.5 -63c-58 0 -105.667 17.667 -143 53l-43 -45h-36l60 64c-33.333 40.667 -50 92 -50 154c0 66.667 19.833 121 59.5 163s90.5 63 152.5 63
c58 0 105.667 -17.667 143 -53l43 45h36zM118 87l263 282c-32 30.667 -73 46 -123 46c-52.667 0 -95.5 -18.167 -128.5 -54.5s-49.5 -83.833 -49.5 -142.5c0 -54 12.667 -97.667 38 -131zM398 349l-263 -282c32 -30.667 73 -46 123 -46c52.667 0 95.5 18.167 128.5 54.5
s49.5 83.833 49.5 142.5c0 54 -12.667 97.667 -38 131z" />
    <glyph glyph-name="ugrave" unicode="&#xf9;" horiz-adv-x="482" 
d="M403 436v-428c-51.333 -10.667 -96.333 -16 -135 -16c-130.667 0 -196 48.333 -196 145v299h33v-297c0 -78 54.333 -117 163 -117c31.333 0 65.333 3.33301 102 10v404h33zM258 513h-33l-85 152h33z" />
    <glyph glyph-name="uacute" unicode="&#xfa;" horiz-adv-x="482" 
d="M403 436v-428c-51.333 -10.667 -96.333 -16 -135 -16c-130.667 0 -196 48.333 -196 145v299h33v-297c0 -78 54.333 -117 163 -117c31.333 0 65.333 3.33301 102 10v404h33zM253 513h-33l85 152h33z" />
    <glyph glyph-name="ucircumflex" unicode="&#xfb;" horiz-adv-x="482" 
d="M403 436v-428c-51.333 -10.667 -96.333 -16 -135 -16c-130.667 0 -196 48.333 -196 145v299h33v-297c0 -78 54.333 -117 163 -117c31.333 0 65.333 3.33301 102 10v404h33zM248 651l106 -137h-34l-81 106l-81 -106h-34l106 137h18z" />
    <glyph glyph-name="udieresis" unicode="&#xfc;" horiz-adv-x="482" 
d="M403 436v-428c-51.333 -10.667 -96.333 -16 -135 -16c-130.667 0 -196 48.333 -196 145v299h33v-297c0 -78 54.333 -117 163 -117c31.333 0 65.333 3.33301 102 10v404h33zM165 536c-7.33301 0 -13.666 2.5 -18.999 7.5s-8 11.5 -8 19.5s2.66699 14.5 8 19.5
s11.666 7.5 18.999 7.5s13.666 -2.5 18.999 -7.5s8 -11.5 8 -19.5s-2.66699 -14.5 -8 -19.5s-11.666 -7.5 -18.999 -7.5zM313 536c-7.33301 0 -13.666 2.5 -18.999 7.5s-8 11.5 -8 19.5s2.66699 14.5 8 19.5s11.666 7.5 18.999 7.5s13.666 -2.5 18.999 -7.5s8 -11.5 8 -19.5
s-2.66699 -14.5 -8 -19.5s-11.666 -7.5 -18.999 -7.5z" />
    <glyph glyph-name="yacute" unicode="&#xfd;" horiz-adv-x="413" 
d="M42 436l171 -421l160 421h33l-236 -616h-33l59 153l-189 463h35zM228 513h-33l85 152h33z" />
    <glyph glyph-name="thorn" unicode="&#xfe;" horiz-adv-x="497" 
d="M80 -180l-0.000976562 860h33v-259c29.333 15.333 66.333 23 111 23c66.667 0 121.167 -19.333 163.5 -58s63.5 -94 63.5 -166c0 -70 -21.167 -125.5 -63.5 -166.5s-97.166 -61.5 -164.499 -61.5c-46 0 -82.667 7.33301 -110 22v-194h-33zM112.999 393v-349
c34 -15.333 70.667 -23 110 -23c60.667 0 108.167 18.5 142.5 55.5s51.5 84.833 51.5 143.5c0 62 -18.167 110 -54.5 144s-82.5 51 -138.5 51c-40 0 -77 -7.33301 -111 -22z" />
    <glyph glyph-name="ydieresis" unicode="&#xff;" horiz-adv-x="413" 
d="M42 436l171 -421l160 421h33l-236 -616h-33l59 153l-189 463h35zM140 536c-7.33301 0 -13.666 2.5 -18.999 7.5s-8 11.5 -8 19.5s2.66699 14.5 8 19.5s11.666 7.5 18.999 7.5s13.666 -2.5 18.999 -7.5s8 -11.5 8 -19.5s-2.66699 -14.5 -8 -19.5
s-11.666 -7.5 -18.999 -7.5zM288 536c-7.33301 0 -13.666 2.5 -18.999 7.5s-8 11.5 -8 19.5s2.66699 14.5 8 19.5s11.666 7.5 18.999 7.5s13.666 -2.5 18.999 -7.5s8 -11.5 8 -19.5s-2.66699 -14.5 -8 -19.5s-11.666 -7.5 -18.999 -7.5z" />
    <glyph glyph-name="Amacron" unicode="&#x100;" horiz-adv-x="537" 
d="M417 180h-299l-69 -180h-35l233 594h41l235 -594h-35zM405 210l-139 353l-136 -353h275zM172 660v28h193v-28h-193z" />
    <glyph glyph-name="amacron" unicode="&#x101;" horiz-adv-x="415" 
d="M310 249v65c0 32 -8.5 56.667 -25.5 74s-41.5 26 -73.5 26c-44 0 -85.333 -11 -124 -33v31c34.667 21.333 76.334 32 125.001 32c87.333 0 131 -42 131 -126v-311c-34.667 -10 -69.334 -15 -104.001 -15c-62 0 -110.333 10.833 -145 32.5s-52 53.5 -52 95.5
c0 86 72.333 129 217 129h51zM310 28v192h-50c-123.333 0 -185 -33.333 -185 -100c0 -33.333 15.167 -58.333 45.5 -75s69.833 -25 118.5 -25c26 0 49.667 2.66699 71 8zM112 536v27h193v-27h-193z" />
    <glyph glyph-name="Abreve" unicode="&#x102;" horiz-adv-x="537" 
d="M417 180h-299l-69 -180h-35l233 594h41l235 -594h-35zM405 210l-139 353l-136 -353h275zM343 762h28c0 -36.667 -9.16699 -65.5 -27.5 -86.5s-43.5 -31.5 -75.5 -31.5s-57.167 10.5 -75.5 31.5s-27.5 49.833 -27.5 86.5h28c0 -28.667 6.5 -51.167 19.5 -67.5
s31.5 -24.5 55.5 -24.5s42.5 8.16699 55.5 24.5s19.5 38.833 19.5 67.5z" />
    <glyph glyph-name="abreve" unicode="&#x103;" horiz-adv-x="415" 
d="M310 249v65c0 32 -8.5 56.667 -25.5 74s-41.5 26 -73.5 26c-44 0 -85.333 -11 -124 -33v31c34.667 21.333 76.334 32 125.001 32c87.333 0 131 -42 131 -126v-311c-34.667 -10 -69.334 -15 -104.001 -15c-62 0 -110.333 10.833 -145 32.5s-52 53.5 -52 95.5
c0 86 72.333 129 217 129h51zM310 28v192h-50c-123.333 0 -185 -33.333 -185 -100c0 -33.333 15.167 -58.333 45.5 -75s69.833 -25 118.5 -25c26 0 49.667 2.66699 71 8zM287 630h28c0 -37.333 -9.16699 -66.666 -27.5 -87.999s-43.5 -32 -75.5 -32s-57.167 10.667 -75.5 32
s-27.5 50.666 -27.5 87.999h28c0 -28.667 6.5 -51.5 19.5 -68.5s31.5 -25.5 55.5 -25.5s42.5 8.5 55.5 25.5s19.5 39.833 19.5 68.5z" />
    <glyph glyph-name="Aogonek" unicode="&#x104;" horiz-adv-x="537" 
d="M523 0l-15.998 0.00195312c-47.333 -44.667 -71 -85 -71 -121c0 -12.667 3.66699 -22.334 11 -29.001s16.666 -10 27.999 -10c18 0 33.667 4 47 12v-27c-14.667 -7.33301 -31.334 -11 -50.001 -11c-19.333 0 -35 5.33301 -47 16s-18 26 -18 46
c0 43.333 25.667 87.666 77 132.999l-67 171h-299l-69 -180h-35l233 594h41zM266.002 563.002l-136 -353h275z" />
    <glyph glyph-name="aogonek" unicode="&#x105;" horiz-adv-x="415" 
d="M310 249l0.000976562 65.001c0 32 -8.5 56.667 -25.5 74s-41.5 26 -73.5 26c-44 0 -85.333 -11 -124 -33v31c34.667 21.333 76.334 32 125.001 32c87.333 0 131 -42 131 -126v-311c-57.333 -50 -86 -92.667 -86 -128c0 -12.667 3.66699 -22.334 11 -29.001
s16.666 -10 27.999 -10c18 0 33.667 4 47 12v-27c-14.667 -7.33301 -31.334 -11 -50.001 -11c-19.333 0 -35 5.33301 -47 16s-18 26 -18 46c0 37.333 25 78 75 122c-28 -4 -49.333 -6 -64 -6c-62 0 -110.333 10.833 -145 32.5s-52 53.5 -52 95.5c0 86 72.333 129 217 129h51
zM310.001 28.001v192h-50c-123.333 0 -185 -33.333 -185 -100c0 -33.333 15.167 -58.333 45.5 -75s69.833 -25 118.5 -25c26 0 49.667 2.66699 71 8z" />
    <glyph glyph-name="Cacute" unicode="&#x106;" horiz-adv-x="567" 
d="M512 557v-40c-42 36 -96.667 54 -164 54c-74.667 0 -137.334 -25 -188.001 -75s-76 -116.333 -76 -199s26.167 -149 78.5 -199s117.5 -75 195.5 -75c68 0 122.667 15.667 164 47v-36c-37.333 -28 -92 -42 -164 -42c-90 0 -163.833 28.167 -221.5 84.5
s-86.5 129.833 -86.5 220.5c0 89.333 28.167 162.5 84.5 219.5s127.5 85.5 213.5 85.5c64.667 0 119.334 -15 164.001 -45zM360 647h-32l73 131h32z" />
    <glyph glyph-name="cacute" unicode="&#x107;" horiz-adv-x="437" 
d="M385 408l0.000976562 -36.002c-34 28 -75 42 -123 42c-51.333 0 -94.5 -17.667 -129.5 -53s-52.5 -82.666 -52.5 -141.999s17.5 -107 52.5 -143s79.167 -54 132.5 -54c49.333 0 91.666 12.333 126.999 37v-32c-32 -23.333 -74.333 -35 -127 -35
c-62 0 -114 20.833 -156 62.5s-63 96.5 -63 164.5c0 68.667 21 123.334 63 164.001s93 61 153 61c47.333 0 88.333 -12 123 -36zM271.001 512.998h-33l85 152h33z" />
    <glyph glyph-name="Ccircumflex" unicode="&#x108;" horiz-adv-x="567" 
d="M512 557v-40c-42 36 -96.667 54 -164 54c-74.667 0 -137.334 -25 -188.001 -75s-76 -116.333 -76 -199s26.167 -149 78.5 -199s117.5 -75 195.5 -75c68 0 122.667 15.667 164 47v-36c-37.333 -28 -92 -42 -164 -42c-90 0 -163.833 28.167 -221.5 84.5
s-86.5 129.833 -86.5 220.5c0 89.333 28.167 162.5 84.5 219.5s127.5 85.5 213.5 85.5c64.667 0 119.334 -15 164.001 -45zM354 774l109 -133h-34l-83 101l-83 -101h-34l109 133h16z" />
    <glyph glyph-name="ccircumflex" unicode="&#x109;" horiz-adv-x="437" 
d="M385 408l0.000976562 -36.002c-34 28 -75 42 -123 42c-51.333 0 -94.5 -17.667 -129.5 -53s-52.5 -82.666 -52.5 -141.999s17.5 -107 52.5 -143s79.167 -54 132.5 -54c49.333 0 91.666 12.333 126.999 37v-32c-32 -23.333 -74.333 -35 -127 -35
c-62 0 -114 20.833 -156 62.5s-63 96.5 -63 164.5c0 68.667 21 123.334 63 164.001s93 61 153 61c47.333 0 88.333 -12 123 -36zM266.001 650.998l106 -137h-34l-81 106l-81 -106h-34l106 137h18z" />
    <glyph glyph-name="Cdotaccent" unicode="&#x10a;" horiz-adv-x="567" 
d="M512 557v-40c-42 36 -96.667 54 -164 54c-74.667 0 -137.334 -25 -188.001 -75s-76 -116.333 -76 -199s26.167 -149 78.5 -199s117.5 -75 195.5 -75c68 0 122.667 15.667 164 47v-36c-37.333 -28 -92 -42 -164 -42c-90 0 -163.833 28.167 -221.5 84.5
s-86.5 129.833 -86.5 220.5c0 89.333 28.167 162.5 84.5 219.5s127.5 85.5 213.5 85.5c64.667 0 119.334 -15 164.001 -45zM346 655c-7.33301 0 -13.666 2.5 -18.999 7.5s-8 11.5 -8 19.5s2.66699 14.5 8 19.5s11.666 7.5 18.999 7.5s13.666 -2.5 18.999 -7.5
s8 -11.5 8 -19.5s-2.66699 -14.5 -8 -19.5s-11.666 -7.5 -18.999 -7.5z" />
    <glyph glyph-name="cdotaccent" unicode="&#x10b;" horiz-adv-x="437" 
d="M385 408l0.000976562 -36.002c-34 28 -75 42 -123 42c-51.333 0 -94.5 -17.667 -129.5 -53s-52.5 -82.666 -52.5 -141.999s17.5 -107 52.5 -143s79.167 -54 132.5 -54c49.333 0 91.666 12.333 126.999 37v-32c-32 -23.333 -74.333 -35 -127 -35
c-62 0 -114 20.833 -156 62.5s-63 96.5 -63 164.5c0 68.667 21 123.334 63 164.001s93 61 153 61c47.333 0 88.333 -12 123 -36zM257.001 535.998c-7.33301 0 -13.666 2.5 -18.999 7.5s-8 11.5 -8 19.5s2.66699 14.5 8 19.5s11.666 7.5 18.999 7.5s13.666 -2.5 18.999 -7.5
s8 -11.5 8 -19.5s-2.66699 -14.5 -8 -19.5s-11.666 -7.5 -18.999 -7.5z" />
    <glyph glyph-name="Ccaron" unicode="&#x10c;" horiz-adv-x="567" 
d="M512 557v-40c-42 36 -96.667 54 -164 54c-74.667 0 -137.334 -25 -188.001 -75s-76 -116.333 -76 -199s26.167 -149 78.5 -199s117.5 -75 195.5 -75c68 0 122.667 15.667 164 47v-36c-37.333 -28 -92 -42 -164 -42c-90 0 -163.833 28.167 -221.5 84.5
s-86.5 129.833 -86.5 220.5c0 89.333 28.167 162.5 84.5 219.5s127.5 85.5 213.5 85.5c64.667 0 119.334 -15 164.001 -45zM461 778l-106 -132h-18l-106 132h34l81 -104l81 104h34z" />
    <glyph glyph-name="ccaron" unicode="&#x10d;" horiz-adv-x="437" 
d="M385 408l0.000976562 -36.002c-34 28 -75 42 -123 42c-51.333 0 -94.5 -17.667 -129.5 -53s-52.5 -82.666 -52.5 -141.999s17.5 -107 52.5 -143s79.167 -54 132.5 -54c49.333 0 91.666 12.333 126.999 37v-32c-32 -23.333 -74.333 -35 -127 -35
c-62 0 -114 20.833 -156 62.5s-63 96.5 -63 164.5c0 68.667 21 123.334 63 164.001s93 61 153 61c47.333 0 88.333 -12 123 -36zM372.001 639.998l-106 -137h-18l-106 137h35l80 -107l80 107h35z" />
    <glyph glyph-name="Dcaron" unicode="&#x10e;" horiz-adv-x="613" 
d="M93 1l0.000976562 593.999c35.333 4 68.666 6 99.999 6c126 0 219.167 -26.333 279.5 -79s90.5 -124 90.5 -214c0 -95.333 -29.5 -171.666 -88.5 -228.999s-147.833 -86 -266.5 -86c-34 0 -72.333 2.66699 -115 8zM127.001 567.999l-0.00195312 -539.999
c28.667 -3.33301 55.667 -5 81 -5c102.667 0 181.834 24.167 237.501 72.5s83.5 119.166 83.5 212.499c0 83.333 -28.167 148 -84.5 194s-140.166 69 -251.499 69c-19.333 0 -41.333 -1 -66 -3zM402.999 778l-106 -132h-18l-106 132h34l81 -104l81 104h34z" />
    <glyph glyph-name="dcaron" unicode="&#x10f;" horiz-adv-x="495" 
d="M419 680l-0.000976562 -675.001c-42.667 -8.66699 -84 -13 -124 -13c-75.333 0 -135.666 19.833 -180.999 59.5s-68 94.834 -68 165.501c0 71.333 22.5 127 67.5 167s99.833 60 164.5 60c45.333 0 81.333 -7.33301 108 -22v258h33zM385.999 27.999l-0.000976562 364
c-29.333 15.333 -65.333 23 -108 23c-57.333 0 -104.666 -17.5 -141.999 -52.5s-56 -83.5 -56 -145.5c0 -61.333 19.5 -109.333 58.5 -144s91.167 -52 156.5 -52c34.667 0 65 2.33301 91 7zM538.998 679.999l-40 -148h-30l40 148h30z" />
    <glyph glyph-name="Dcroat" unicode="&#x110;" horiz-adv-x="620" 
d="M100 290l-59.999 -0.000976562v30h60v275c35.333 4 68.666 6 99.999 6c126 0 219.167 -26.333 279.5 -79s90.5 -124 90.5 -214c0 -95.333 -29.5 -171.666 -88.5 -228.999s-147.833 -86 -266.5 -86c-34 0 -72.333 2.66699 -115 8v289zM134.001 289.999
l-0.00195312 -261.999c28.667 -3.33301 55.667 -5 81 -5c102.667 0 181.834 24.167 237.501 72.5s83.5 119.166 83.5 212.499c0 83.333 -28.167 148 -84.5 194s-140.166 69 -251.499 69c-18.667 0 -40.667 -1 -66 -3v-248h152v-30h-152z" />
    <glyph glyph-name="dcroat" unicode="&#x111;" horiz-adv-x="505" 
d="M386 534l-141.001 -0.000976562v27h141v119h33v-119h71v-27h-71v-529c-42.667 -8.66699 -84 -13 -124 -13c-75.333 0 -135.666 19.833 -180.999 59.5s-68 94.834 -68 165.501c0 71.333 22.5 127 67.5 167s99.833 60 164.5 60c45.333 0 81.333 -7.33301 108 -22v112z
M385.999 27.999l-0.000976562 364c-29.333 15.333 -65.333 23 -108 23c-57.333 0 -104.666 -17.5 -141.999 -52.5s-56 -83.5 -56 -145.5c0 -61.333 19.5 -109.333 58.5 -144s91.167 -52 156.5 -52c34.667 0 65 2.33301 91 7z" />
    <glyph glyph-name="Emacron" unicode="&#x112;" horiz-adv-x="468" 
d="M127 30h289v-30h-323v594h320v-30h-286v-244h269v-30h-269v-260zM162 660v28h193v-28h-193z" />
    <glyph glyph-name="emacron" unicode="&#x113;" horiz-adv-x="466" 
d="M422 227h-344v-7c0 -60.667 17 -108.834 51 -144.501s77.667 -53.5 131 -53.5c56.667 0 104.667 16.667 144 50v-35c-35.333 -30 -83.333 -45 -144 -45c-61.333 0 -112.333 20.333 -153 61s-61 96.334 -61 167.001c0 61.333 19.5 114 58.5 158s87.167 66 144.5 66
c53.333 0 95.5 -17.167 126.5 -51.5s46.5 -80.5 46.5 -138.5v-27zM81 254h308.001c0 49.333 -12.5 88.5 -37.5 117.5s-59.167 43.5 -102.5 43.5c-42 0 -78.833 -15.167 -110.5 -45.5s-50.834 -68.833 -57.501 -115.5zM154.001 536v27h193v-27h-193z" />
    <glyph glyph-name="Ebreve" unicode="&#x114;" horiz-adv-x="468" 
d="M127 30h289v-30h-323v594h320v-30h-286v-244h269v-30h-269v-260zM333 762h28c0 -36.667 -9.16699 -65.5 -27.5 -86.5s-43.5 -31.5 -75.5 -31.5s-57.167 10.5 -75.5 31.5s-27.5 49.833 -27.5 86.5h28c0 -28.667 6.5 -51.167 19.5 -67.5s31.5 -24.5 55.5 -24.5
s42.5 8.16699 55.5 24.5s19.5 38.833 19.5 67.5z" />
    <glyph glyph-name="ebreve" unicode="&#x115;" horiz-adv-x="466" 
d="M422 227h-344v-7c0 -60.667 17 -108.834 51 -144.501s77.667 -53.5 131 -53.5c56.667 0 104.667 16.667 144 50v-35c-35.333 -30 -83.333 -45 -144 -45c-61.333 0 -112.333 20.333 -153 61s-61 96.334 -61 167.001c0 61.333 19.5 114 58.5 158s87.167 66 144.5 66
c53.333 0 95.5 -17.167 126.5 -51.5s46.5 -80.5 46.5 -138.5v-27zM81 254h308.001c0 49.333 -12.5 88.5 -37.5 117.5s-59.167 43.5 -102.5 43.5c-42 0 -78.833 -15.167 -110.5 -45.5s-50.834 -68.833 -57.501 -115.5zM325.001 630h28
c0 -37.333 -9.16699 -66.666 -27.5 -87.999s-43.5 -32 -75.5 -32s-57.167 10.667 -75.5 32s-27.5 50.666 -27.5 87.999h28c0 -28.667 6.5 -51.5 19.5 -68.5s31.5 -25.5 55.5 -25.5s42.5 8.5 55.5 25.5s19.5 39.833 19.5 68.5z" />
    <glyph glyph-name="Edotaccent" unicode="&#x116;" horiz-adv-x="468" 
d="M127 30h289v-30h-323v594h320v-30h-286v-244h269v-30h-269v-260zM258 655c-7.33301 0 -13.666 2.5 -18.999 7.5s-8 11.5 -8 19.5s2.66699 14.5 8 19.5s11.666 7.5 18.999 7.5s13.666 -2.5 18.999 -7.5s8 -11.5 8 -19.5s-2.66699 -14.5 -8 -19.5
s-11.666 -7.5 -18.999 -7.5z" />
    <glyph glyph-name="edotaccent" unicode="&#x117;" horiz-adv-x="466" 
d="M422 227h-344v-7c0 -60.667 17 -108.834 51 -144.501s77.667 -53.5 131 -53.5c56.667 0 104.667 16.667 144 50v-35c-35.333 -30 -83.333 -45 -144 -45c-61.333 0 -112.333 20.333 -153 61s-61 96.334 -61 167.001c0 61.333 19.5 114 58.5 158s87.167 66 144.5 66
c53.333 0 95.5 -17.167 126.5 -51.5s46.5 -80.5 46.5 -138.5v-27zM81 254h308.001c0 49.333 -12.5 88.5 -37.5 117.5s-59.167 43.5 -102.5 43.5c-42 0 -78.833 -15.167 -110.5 -45.5s-50.834 -68.833 -57.501 -115.5zM250.001 536c-7.33301 0 -13.666 2.5 -18.999 7.5
s-8 11.5 -8 19.5s2.66699 14.5 8 19.5s11.666 7.5 18.999 7.5s13.666 -2.5 18.999 -7.5s8 -11.5 8 -19.5s-2.66699 -14.5 -8 -19.5s-11.666 -7.5 -18.999 -7.5z" />
    <glyph glyph-name="Eogonek" unicode="&#x118;" horiz-adv-x="468" 
d="M348 0h-254.998v594h320v-30h-286v-244h269v-30h-269v-260h289v-30h-39c-47.333 -45.333 -71 -85.666 -71 -120.999c0 -12.667 3.66699 -22.334 11 -29.001s16.666 -10 27.999 -10c18 0 33.667 4 47 12v-27c-14.667 -7.33301 -31.334 -11 -50.001 -11
c-19.333 0 -35 5.33301 -47 16s-18 26 -18 46c0 42 23.667 83.333 71 124z" />
    <glyph glyph-name="eogonek" unicode="&#x119;" horiz-adv-x="466" 
d="M422 227l-343.999 -0.000976562v-7c0 -60.667 17 -108.834 51 -144.501s77.667 -53.5 131 -53.5c56.667 0 104.667 16.667 144 50v-35c-8 -7.33301 -24.333 -17 -49 -29c-60 -29.333 -90 -69.666 -90 -120.999c0 -15.333 4 -27 12 -35s18 -12 30 -12c18 0 33.667 4 47 12
v-27c-14.667 -7.33301 -31.334 -11 -50.001 -11c-19.333 0 -35.5 6 -48.5 18s-19.5 29 -19.5 51c0 46 21.333 83.667 64 113c-12.667 -2.66699 -26 -4 -40 -4c-61.333 0 -112.333 20.333 -153 61s-61 96.334 -61 167.001c0 61.333 19.5 114 58.5 158s87.167 66 144.5 66
c53.333 0 95.5 -17.167 126.5 -51.5s46.5 -80.5 46.5 -138.5v-27zM81.001 253.999h307.999c0 49.333 -12.5 88.5 -37.5 117.5s-59.167 43.5 -102.5 43.5c-42 0 -78.667 -15.167 -110 -45.5s-50.666 -68.833 -57.999 -115.5z" />
    <glyph glyph-name="Ecaron" unicode="&#x11a;" horiz-adv-x="468" 
d="M127 30h289v-30h-323v594h320v-30h-286v-244h269v-30h-269v-260zM373 778l-106 -132h-18l-106 132h34l81 -104l81 104h34z" />
    <glyph glyph-name="ecaron" unicode="&#x11b;" horiz-adv-x="466" 
d="M422 227h-344v-7c0 -60.667 17 -108.834 51 -144.501s77.667 -53.5 131 -53.5c56.667 0 104.667 16.667 144 50v-35c-35.333 -30 -83.333 -45 -144 -45c-61.333 0 -112.333 20.333 -153 61s-61 96.334 -61 167.001c0 61.333 19.5 114 58.5 158s87.167 66 144.5 66
c53.333 0 95.5 -17.167 126.5 -51.5s46.5 -80.5 46.5 -138.5v-27zM81 254h308.001c0 49.333 -12.5 88.5 -37.5 117.5s-59.167 43.5 -102.5 43.5c-42 0 -78.833 -15.167 -110.5 -45.5s-50.834 -68.833 -57.501 -115.5zM365.001 640l-106 -137h-18l-106 137h35l80 -107l80 107
h35z" />
    <glyph glyph-name="Gcircumflex" unicode="&#x11c;" horiz-adv-x="597" 
d="M512 557v-40c-42 36 -96.667 54 -164 54c-74.667 0 -137.334 -25.5 -188.001 -76.5s-76 -117.833 -76 -200.5c0 -82 26.333 -147.667 79 -197s117.667 -74 195 -74c53.333 0 101 9.33301 143 28v196h33v-215c-51.333 -26.667 -110 -40 -176 -40
c-89.333 0 -163 28.167 -221 84.5s-87 128.833 -87 217.5c0 89.333 28.333 163 85 221s127.667 87 213 87c64.667 0 119.334 -15 164.001 -45zM356 774l109 -133h-34l-83 101l-83 -101h-34l109 133h16z" />
    <glyph glyph-name="gcircumflex" unicode="&#x11d;" horiz-adv-x="495" 
d="M386 -1l-0.00292969 16c-22.667 -14 -57 -21 -103 -21c-71.333 0 -128.666 19.333 -171.999 58s-65 94.667 -65 168c0 69.333 22.833 124 68.5 164s105.834 60 180.501 60c48 0 89.333 -8.33301 124 -25v-425c0 -60.667 -18 -106.167 -54 -136.5s-81 -45.5 -135 -45.5
c-55.333 0 -97.666 9 -126.999 27v34c36.667 -20.667 79 -31 127 -31c46 0 83.5 12.333 112.5 37s43.5 64.667 43.5 120zM385.997 42l-0.000976562 359.001c-29.333 9.33301 -59.666 14 -90.999 14c-67.333 0 -120 -17.833 -158 -53.5s-57 -82.834 -57 -141.501
c0 -60.667 17.667 -108.667 53 -144s85.333 -53 150 -53c38 0 72.333 6.33301 103 19zM284.996 651.001l106 -137h-34l-81 106l-81 -106h-34l106 137h18z" />
    <glyph glyph-name="Gbreve" unicode="&#x11e;" horiz-adv-x="597" 
d="M512 557v-40c-42 36 -96.667 54 -164 54c-74.667 0 -137.334 -25.5 -188.001 -76.5s-76 -117.833 -76 -200.5c0 -82 26.333 -147.667 79 -197s117.667 -74 195 -74c53.333 0 101 9.33301 143 28v196h33v-215c-51.333 -26.667 -110 -40 -176 -40
c-89.333 0 -163 28.167 -221 84.5s-87 128.833 -87 217.5c0 89.333 28.333 163 85 221s127.667 87 213 87c64.667 0 119.334 -15 164.001 -45zM423 762h28c0 -36.667 -9.16699 -65.5 -27.5 -86.5s-43.5 -31.5 -75.5 -31.5s-57.167 10.5 -75.5 31.5s-27.5 49.833 -27.5 86.5
h28c0 -28.667 6.5 -51.167 19.5 -67.5s31.5 -24.5 55.5 -24.5s42.5 8.16699 55.5 24.5s19.5 38.833 19.5 67.5z" />
    <glyph glyph-name="gbreve" unicode="&#x11f;" horiz-adv-x="495" 
d="M386 -1l-0.00292969 16c-22.667 -14 -57 -21 -103 -21c-71.333 0 -128.666 19.333 -171.999 58s-65 94.667 -65 168c0 69.333 22.833 124 68.5 164s105.834 60 180.501 60c48 0 89.333 -8.33301 124 -25v-425c0 -60.667 -18 -106.167 -54 -136.5s-81 -45.5 -135 -45.5
c-55.333 0 -97.666 9 -126.999 27v34c36.667 -20.667 79 -31 127 -31c46 0 83.5 12.333 112.5 37s43.5 64.667 43.5 120zM385.997 42l-0.000976562 359.001c-29.333 9.33301 -59.666 14 -90.999 14c-67.333 0 -120 -17.833 -158 -53.5s-57 -82.834 -57 -141.501
c0 -60.667 17.667 -108.667 53 -144s85.333 -53 150 -53c38 0 72.333 6.33301 103 19zM350.996 630.001h28c0 -37.333 -9.16699 -66.666 -27.5 -87.999s-43.5 -32 -75.5 -32s-57.167 10.667 -75.5 32s-27.5 50.666 -27.5 87.999h28c0 -28.667 6.5 -51.5 19.5 -68.5
s31.5 -25.5 55.5 -25.5s42.5 8.5 55.5 25.5s19.5 39.833 19.5 68.5z" />
    <glyph glyph-name="Gdotaccent" unicode="&#x120;" horiz-adv-x="597" 
d="M512 557v-40c-42 36 -96.667 54 -164 54c-74.667 0 -137.334 -25.5 -188.001 -76.5s-76 -117.833 -76 -200.5c0 -82 26.333 -147.667 79 -197s117.667 -74 195 -74c53.333 0 101 9.33301 143 28v196h33v-215c-51.333 -26.667 -110 -40 -176 -40
c-89.333 0 -163 28.167 -221 84.5s-87 128.833 -87 217.5c0 89.333 28.333 163 85 221s127.667 87 213 87c64.667 0 119.334 -15 164.001 -45zM348 655c-7.33301 0 -13.666 2.5 -18.999 7.5s-8 11.5 -8 19.5s2.66699 14.5 8 19.5s11.666 7.5 18.999 7.5
s13.666 -2.5 18.999 -7.5s8 -11.5 8 -19.5s-2.66699 -14.5 -8 -19.5s-11.666 -7.5 -18.999 -7.5z" />
    <glyph glyph-name="gdotaccent" unicode="&#x121;" horiz-adv-x="495" 
d="M386 -1l-0.00292969 16c-22.667 -14 -57 -21 -103 -21c-71.333 0 -128.666 19.333 -171.999 58s-65 94.667 -65 168c0 69.333 22.833 124 68.5 164s105.834 60 180.501 60c48 0 89.333 -8.33301 124 -25v-425c0 -60.667 -18 -106.167 -54 -136.5s-81 -45.5 -135 -45.5
c-55.333 0 -97.666 9 -126.999 27v34c36.667 -20.667 79 -31 127 -31c46 0 83.5 12.333 112.5 37s43.5 64.667 43.5 120zM385.997 42l-0.000976562 359.001c-29.333 9.33301 -59.666 14 -90.999 14c-67.333 0 -120 -17.833 -158 -53.5s-57 -82.834 -57 -141.501
c0 -60.667 17.667 -108.667 53 -144s85.333 -53 150 -53c38 0 72.333 6.33301 103 19zM275.996 536.001c-7.33301 0 -13.666 2.5 -18.999 7.5s-8 11.5 -8 19.5s2.66699 14.5 8 19.5s11.666 7.5 18.999 7.5s13.666 -2.5 18.999 -7.5s8 -11.5 8 -19.5s-2.66699 -14.5 -8 -19.5
s-11.666 -7.5 -18.999 -7.5z" />
    <glyph glyph-name="Gcommaaccent" unicode="&#x122;" horiz-adv-x="597" 
d="M512 557v-40c-42 36 -96.667 54 -164 54c-74.667 0 -137.334 -25.5 -188.001 -76.5s-76 -117.833 -76 -200.5c0 -82 26.333 -147.667 79 -197s117.667 -74 195 -74c53.333 0 101 9.33301 143 28v196h33v-215c-51.333 -26.667 -110 -40 -176 -40
c-89.333 0 -163 28.167 -221 84.5s-87 128.833 -87 217.5c0 89.333 28.333 163 85 221s127.667 87 213 87c64.667 0 119.334 -15 164.001 -45zM330 -46l34 -0.000976562c0 -54 -23 -96 -69 -126h-26c22.667 18.667 38.5 37.334 47.5 56.001s13.5 42 13.5 70z" />
    <glyph glyph-name="gcommaaccent" unicode="&#x123;" horiz-adv-x="495" 
d="M386 -1l-0.00292969 16c-22.667 -14 -57 -21 -103 -21c-71.333 0 -128.666 19.333 -171.999 58s-65 94.667 -65 168c0 69.333 22.833 124 68.5 164s105.834 60 180.501 60c48 0 89.333 -8.33301 124 -25v-425c0 -60.667 -18 -106.167 -54 -136.5s-81 -45.5 -135 -45.5
c-55.333 0 -97.666 9 -126.999 27v34c36.667 -20.667 79 -31 127 -31c46 0 83.5 12.333 112.5 37s43.5 64.667 43.5 120zM385.997 42l-0.000976562 359.001c-29.333 9.33301 -59.666 14 -90.999 14c-67.333 0 -120 -17.833 -158 -53.5s-57 -82.834 -57 -141.501
c0 -60.667 17.667 -108.667 53 -144s85.333 -53 150 -53c38 0 72.333 6.33301 103 19zM292.996 513.001h-33c0 60 25 106.333 75 139h26c-45.333 -38 -68 -84.333 -68 -139z" />
    <glyph glyph-name="Hcircumflex" unicode="&#x124;" horiz-adv-x="661" 
d="M534 320v274h34v-594h-34v290h-407v-290h-34v594h34v-274h407zM338 774l109 -133h-34l-83 101l-83 -101h-34l109 133h16z" />
    <glyph glyph-name="hcircumflex" unicode="&#x125;" horiz-adv-x="495" 
d="M80 0l-0.00195312 680h33v-261c48.667 16.667 93 25 133 25c116 0 174 -48 174 -144v-300h-33v292c0 45.333 -12.667 76.833 -38 94.5s-59.666 26.5 -102.999 26.5c-39.333 0 -83.666 -7.66699 -132.999 -23v-390h-33zM253.998 834l109 -133h-34l-83 101l-83 -101h-34
l109 133h16z" />
    <glyph glyph-name="Hbar" unicode="&#x126;" horiz-adv-x="681" 
d="M103 445h-63v29h63v120h34v-120h407v120h34v-120h63v-29h-63v-445h-34v290h-407v-290h-34v445zM137 445v-125h407v125h-407z" />
    <glyph glyph-name="hbar" unicode="&#x127;" horiz-adv-x="501" 
d="M86 534h-71.002v27h71v119h33v-119h141v-27h-141v-115c48.667 16.667 93 25 133 25c116 0 174 -48 174 -144v-300h-33v292c0 45.333 -12.667 76.833 -38 94.5s-59.666 26.5 -102.999 26.5c-39.333 0 -83.666 -7.66699 -132.999 -23v-390h-33v534z" />
    <glyph glyph-name="Itilde" unicode="&#x128;" horiz-adv-x="220" 
d="M127 594v-594h-34v594h34zM203 736h26c0 -29.333 -5.5 -52.5 -16.5 -69.5s-26.5 -25.5 -46.5 -25.5c-15.333 0 -29.5 5.83301 -42.5 17.5s-25 23.334 -36 35.001s-21.5 17.5 -31.5 17.5c-25.333 0 -38 -22.333 -38 -67h-26c0 29.333 5.5 52.5 16.5 69.5
s26.5 25.5 46.5 25.5c15.333 0 29.333 -5.83301 42 -17.5s24.667 -23.334 36 -35.001s22 -17.5 32 -17.5c25.333 0 38 22.333 38 67z" />
    <glyph glyph-name="itilde" unicode="&#x129;" horiz-adv-x="193" 
d="M113 436v-436h-33v436h33zM189 610l25.998 0.000976562c0 -29.333 -5.5 -52.5 -16.5 -69.5s-26.5 -25.5 -46.5 -25.5c-19.333 0 -39.666 11.667 -60.999 35s-37.666 35 -48.999 35c-25.333 0 -38 -22.333 -38 -67h-26c0 29.333 5.5 52.5 16.5 69.5s26.5 25.5 46.5 25.5
c15.333 0 29.333 -5.83301 42 -17.5s24.667 -23.334 36 -35.001s22 -17.5 32 -17.5c25.333 0 38 22.333 38 67z" />
    <glyph glyph-name="Imacron" unicode="&#x12a;" horiz-adv-x="220" 
d="M127 594v-594h-34v594h34zM14 660v28h193v-28h-193z" />
    <glyph glyph-name="imacron" unicode="&#x12b;" horiz-adv-x="193" 
d="M113 436v-436h-33v436h33zM0 536v27h193v-27h-193z" />
    <glyph glyph-name="Ibreve" unicode="&#x12c;" horiz-adv-x="220" 
d="M127 594v-594h-34v594h34zM185 762h28c0 -36.667 -9.16699 -65.5 -27.5 -86.5s-43.5 -31.5 -75.5 -31.5s-57.167 10.5 -75.5 31.5s-27.5 49.833 -27.5 86.5h28c0 -28.667 6.5 -51.167 19.5 -67.5s31.5 -24.5 55.5 -24.5s42.5 8.16699 55.5 24.5s19.5 38.833 19.5 67.5z
" />
    <glyph glyph-name="ibreve" unicode="&#x12d;" horiz-adv-x="193" 
d="M113 436v-436h-33v436h33zM171 630h28c0 -37.333 -9.16699 -66.666 -27.5 -87.999s-43.5 -32 -75.5 -32s-57.167 10.667 -75.5 32s-27.5 50.666 -27.5 87.999h28c0 -28.667 6.5 -51.5 19.5 -68.5s31.5 -25.5 55.5 -25.5s42.5 8.5 55.5 25.5s19.5 39.833 19.5 68.5z" />
    <glyph glyph-name="Iogonek" unicode="&#x12e;" horiz-adv-x="220" 
d="M127 594l0.00195312 -593.998c-48 -46 -72 -86.333 -72 -121c0 -12.667 3.66699 -22.334 11 -29.001s16.666 -10 27.999 -10c18 0 33.667 4 47 12v-27c-14.667 -7.33301 -31.334 -11 -50.001 -11c-19.333 0 -35 5.33301 -47 16s-18 26 -18 46
c0 43.333 22.333 84.666 67 123.999v6v588h34z" />
    <glyph glyph-name="iogonek" unicode="&#x12f;" horiz-adv-x="193" 
d="M96 536c-7.33301 0 -13.666 2.5 -18.999 7.5s-8 11.5 -8 19.5s2.66699 14.5 8 19.5s11.666 7.5 18.999 7.5s13.666 -2.5 18.999 -7.5s8 -11.5 8 -19.5s-2.66699 -14.5 -8 -19.5s-11.666 -7.5 -18.999 -7.5zM80 8l0.00195312 428h33v-436
c-48.667 -38 -73 -77.667 -73 -119c0 -12.667 3.66699 -22.667 11 -30s16.666 -11 27.999 -11c18 0 33.667 4 47 12v-27c-14.667 -7.33301 -31.334 -11 -50.001 -11s-34.167 5.83301 -46.5 17.5s-18.5 28.167 -18.5 49.5c0 44 23 83.667 69 119v8z" />
    <glyph glyph-name="Idotaccent" unicode="&#x130;" horiz-adv-x="220" 
d="M127 594v-594h-34v594h34zM110 655c-7.33301 0 -13.666 2.5 -18.999 7.5s-8 11.5 -8 19.5s2.66699 14.5 8 19.5s11.666 7.5 18.999 7.5s13.666 -2.5 18.999 -7.5s8 -11.5 8 -19.5s-2.66699 -14.5 -8 -19.5s-11.666 -7.5 -18.999 -7.5z" />
    <glyph glyph-name="dotlessi" unicode="&#x131;" horiz-adv-x="193" 
d="M113 436v-436h-33v436h33z" />
    <glyph glyph-name="IJ" unicode="&#x132;" horiz-adv-x="563" 
d="M127 594v-594h-34v594h34zM233 42v41c38 -40 79 -60 123 -60c34 0 58.667 9 74 27s23 47 23 87v457h34v-462c0 -93.333 -43.667 -140 -131 -140c-51.333 0 -92.333 16.667 -123 50z" />
    <glyph glyph-name="ij" unicode="&#x133;" horiz-adv-x="386" 
d="M113 436v-436h-33v436h33zM96 536c-7.33301 0 -13.666 2.5 -18.999 7.5s-8 11.5 -8 19.5s2.66699 14.5 8 19.5s11.666 7.5 18.999 7.5s13.666 -2.5 18.999 -7.5s8 -11.5 8 -19.5s-2.66699 -14.5 -8 -19.5s-11.666 -7.5 -18.999 -7.5zM273 -68v504h33v-502
c0 -81.333 -35.333 -122 -106 -122c-21.333 0 -40.666 4 -57.999 12v31c21.333 -9.33301 40.666 -14 57.999 -14c24 0 42.167 6.66699 54.5 20s18.5 37 18.5 71zM289 536c-7.33301 0 -13.666 2.5 -18.999 7.5s-8 11.5 -8 19.5s2.66699 14.5 8 19.5s11.666 7.5 18.999 7.5
s13.666 -2.5 18.999 -7.5s8 -11.5 8 -19.5s-2.66699 -14.5 -8 -19.5s-11.666 -7.5 -18.999 -7.5z" />
    <glyph glyph-name="Jcircumflex" unicode="&#x134;" horiz-adv-x="343" 
d="M13 42v41c38 -40 79 -60 123 -60c34 0 58.667 9 74 27s23 47 23 87v457h34v-462c0 -93.333 -43.667 -140 -131 -140c-51.333 0 -92.333 16.667 -123 50zM260 774l109 -133h-34l-83 101l-83 -101h-34l109 133h16z" />
    <glyph glyph-name="jcircumflex" unicode="&#x135;" horiz-adv-x="193" 
d="M80 -68v504h33v-502c0 -81.333 -35.333 -122 -106 -122c-21.333 0 -40.666 4 -57.999 12v31c21.333 -9.33301 40.666 -14 57.999 -14c24 0 42.167 6.66699 54.5 20s18.5 37 18.5 71zM104 651l106 -137h-34l-81 106l-81 -106h-34l106 137h18z" />
    <glyph glyph-name="Kcommaaccent" unicode="&#x136;" horiz-adv-x="498" 
d="M93 0v594h34v-594h-34zM131 291l296 303h45l-295 -300l316 -294h-49zM252 -46l34 -0.000976562c0 -54 -23 -96 -69 -126h-26c22.667 18.667 38.5 37.334 47.5 56.001s13.5 42 13.5 70z" />
    <glyph glyph-name="kcommaaccent" unicode="&#x137;" horiz-adv-x="434" 
d="M376 0l-258 236l247 200h48l-249 -200l257 -236h-45zM113 680v-680h-33v680h33zM220 -46l34 -0.000976562c0 -54 -23 -96 -69 -126h-26c22.667 18.667 38.5 37.334 47.5 56.001s13.5 42 13.5 70z" />
    <glyph glyph-name="kgreenlandic" unicode="&#x138;" horiz-adv-x="434" 
d="M376 0l-258 236l247 200h48l-249 -200l257 -236h-45zM113 436v-436h-33v436h33z" />
    <glyph glyph-name="Lacute" unicode="&#x139;" horiz-adv-x="412" 
d="M93 0v594h34v-564h265v-30h-299zM127 647h-32l73 131h32z" />
    <glyph glyph-name="lacute" unicode="&#x13a;" horiz-adv-x="193" 
d="M113 680v-680h-33v680h33zM114 717h-32l73 131h32z" />
    <glyph glyph-name="Lcommaaccent" unicode="&#x13b;" horiz-adv-x="412" 
d="M93 0v594h34v-564h265v-30h-299zM224 -46l34 -0.000976562c0 -54 -23 -96 -69 -126h-26c22.667 18.667 38.5 37.334 47.5 56.001s13.5 42 13.5 70z" />
    <glyph glyph-name="lcommaaccent" unicode="&#x13c;" horiz-adv-x="193" 
d="M113 680v-680h-33v680h33zM78 -46l34 -0.000976562c0 -54 -23 -96 -69 -126h-26c22.667 18.667 38.5 37.334 47.5 56.001s13.5 42 13.5 70z" />
    <glyph glyph-name="Lcaron" unicode="&#x13d;" horiz-adv-x="412" 
d="M93 0v594h34v-564h265v-30h-299zM327 594l-40 -148h-30l40 148h30z" />
    <glyph glyph-name="lcaron" unicode="&#x13e;" horiz-adv-x="193" 
d="M113 680v-680h-33v680h33zM233 680l-40 -148h-30l40 148h30z" />
    <glyph glyph-name="Ldot" unicode="&#x13f;" horiz-adv-x="412" 
d="M93 0v594h34v-564h265v-30h-299zM342 270c-7.33301 0 -13.666 2.5 -18.999 7.5s-8 11.5 -8 19.5s2.66699 14.5 8 19.5s11.666 7.5 18.999 7.5s13.666 -2.5 18.999 -7.5s8 -11.5 8 -19.5s-2.66699 -14.5 -8 -19.5s-11.666 -7.5 -18.999 -7.5z" />
    <glyph glyph-name="ldot" unicode="&#x140;" horiz-adv-x="240" 
d="M113 680v-680h-33v680h33zM219 313c-7.33301 0 -13.666 2.5 -18.999 7.5s-8 11.5 -8 19.5s2.66699 14.5 8 19.5s11.666 7.5 18.999 7.5s13.666 -2.5 18.999 -7.5s8 -11.5 8 -19.5s-2.66699 -14.5 -8 -19.5s-11.666 -7.5 -18.999 -7.5z" />
    <glyph glyph-name="Lslash" unicode="&#x141;" horiz-adv-x="412" 
d="M25 227v30l68 29v308h34v-294l152 65v-30l-152 -65v-240h265v-30h-299v256z" />
    <glyph glyph-name="lslash" unicode="&#x142;" horiz-adv-x="223" 
d="M128 680v-301l80 66v-36l-80 -66v-343h-33v319l-80 -66v36l80 66v325h33z" />
    <glyph glyph-name="Nacute" unicode="&#x143;" horiz-adv-x="647" 
d="M127 594l394 -545v545h33v-594h-34l-394 545v-545h-33v594h34zM337 647h-32l73 131h32z" />
    <glyph glyph-name="nacute" unicode="&#x144;" horiz-adv-x="495" 
d="M80 0l-0.00195312 414c54.667 20 110 30 166 30c116 0 174 -48 174 -144v-300h-33v292c0 45.333 -12.667 76.833 -38 94.5s-59.666 26.5 -102.999 26.5c-37.333 0 -81.666 -6 -132.999 -18v-395h-33zM263.998 513h-33l85 152h33z" />
    <glyph glyph-name="Ncommaaccent" unicode="&#x145;" horiz-adv-x="647" 
d="M127 594l394 -545v545h33v-594h-34l-394 545v-545h-33v594h34zM305 -46l34 -0.000976562c0 -54 -23 -96 -69 -126h-26c22.667 18.667 38.5 37.334 47.5 56.001s13.5 42 13.5 70z" />
    <glyph glyph-name="ncommaaccent" unicode="&#x146;" horiz-adv-x="495" 
d="M80 0l-0.00195312 414c54.667 20 110 30 166 30c116 0 174 -48 174 -144v-300h-33v292c0 45.333 -12.667 76.833 -38 94.5s-59.666 26.5 -102.999 26.5c-37.333 0 -81.666 -6 -132.999 -18v-395h-33zM231.998 -46l34 -0.000976562c0 -54 -23 -96 -69 -126h-26
c22.667 18.667 38.5 37.334 47.5 56.001s13.5 42 13.5 70z" />
    <glyph glyph-name="Ncaron" unicode="&#x147;" horiz-adv-x="647" 
d="M127 594l394 -545v545h33v-594h-34l-394 545v-545h-33v594h34zM438 778l-106 -132h-18l-106 132h34l81 -104l81 104h34z" />
    <glyph glyph-name="ncaron" unicode="&#x148;" horiz-adv-x="495" 
d="M80 0l-0.00195312 414c54.667 20 110 30 166 30c116 0 174 -48 174 -144v-300h-33v292c0 45.333 -12.667 76.833 -38 94.5s-59.666 26.5 -102.999 26.5c-37.333 0 -81.666 -6 -132.999 -18v-395h-33zM357.998 640l-106 -137h-18l-106 137h35l80 -107l80 107h35z" />
    <glyph glyph-name="Eng" unicode="&#x14a;" horiz-adv-x="647" 
d="M554 594v-642c0 -93.333 -43.667 -140 -131 -140c-51.333 0 -92.333 16.667 -123 50v41c38 -40 79 -60 123 -60c34 0 58.667 9 74 27s23 47 23 87v43l-394 542v-542h-33v594h34l394 -542v542h33z" />
    <glyph glyph-name="eng" unicode="&#x14b;" horiz-adv-x="495" 
d="M387 -68l-0.00195312 360c0 45.333 -12.667 76.833 -38 94.5s-59.666 26.5 -102.999 26.5c-37.333 0 -81.666 -6 -132.999 -18v-395h-33v414c54.667 20 110 30 166 30c116 0 174 -48 174 -144v-366c0 -81.333 -35.333 -122 -106 -122c-21.333 0 -40.666 4 -57.999 12v31
c21.333 -9.33301 40.666 -14 57.999 -14c24 0 42.167 6.66699 54.5 20s18.5 37 18.5 71z" />
    <glyph glyph-name="Omacron" unicode="&#x14c;" horiz-adv-x="698" 
d="M50 297c0 90 28.167 163.333 84.5 220s127.833 85 214.5 85s158.167 -28.333 214.5 -85s84.5 -130 84.5 -220s-28.167 -163.333 -84.5 -220s-127.833 -85 -214.5 -85s-158.167 28.333 -214.5 85s-84.5 130 -84.5 220zM614 297c0 82.667 -25.167 149 -75.5 199
s-113.5 75 -189.5 75s-139.167 -25 -189.5 -75s-75.5 -116.333 -75.5 -199s25.167 -149 75.5 -199s113.5 -75 189.5 -75s139.167 25 189.5 75s75.5 116.333 75.5 199zM253 660v28h193v-28h-193z" />
    <glyph glyph-name="omacron" unicode="&#x14d;" horiz-adv-x="516" 
d="M46 218c0 66.667 19.833 121 59.5 163s90.5 63 152.5 63s112.833 -21 152.5 -63s59.5 -96.333 59.5 -163s-19.833 -121 -59.5 -163s-90.5 -63 -152.5 -63s-112.833 21 -152.5 63s-59.5 96.333 -59.5 163zM436 218c0 58.667 -16.5 106.167 -49.5 142.5
s-75.833 54.5 -128.5 54.5s-95.5 -18.167 -128.5 -54.5s-49.5 -83.833 -49.5 -142.5s16.5 -106.167 49.5 -142.5s75.833 -54.5 128.5 -54.5s95.5 18.167 128.5 54.5s49.5 83.833 49.5 142.5zM162 536v27h193v-27h-193z" />
    <glyph glyph-name="Obreve" unicode="&#x14e;" horiz-adv-x="698" 
d="M50 297c0 90 28.167 163.333 84.5 220s127.833 85 214.5 85s158.167 -28.333 214.5 -85s84.5 -130 84.5 -220s-28.167 -163.333 -84.5 -220s-127.833 -85 -214.5 -85s-158.167 28.333 -214.5 85s-84.5 130 -84.5 220zM614 297c0 82.667 -25.167 149 -75.5 199
s-113.5 75 -189.5 75s-139.167 -25 -189.5 -75s-75.5 -116.333 -75.5 -199s25.167 -149 75.5 -199s113.5 -75 189.5 -75s139.167 25 189.5 75s75.5 116.333 75.5 199zM424 762h28c0 -36.667 -9.16699 -65.5 -27.5 -86.5s-43.5 -31.5 -75.5 -31.5s-57.167 10.5 -75.5 31.5
s-27.5 49.833 -27.5 86.5h28c0 -28.667 6.5 -51.167 19.5 -67.5s31.5 -24.5 55.5 -24.5s42.5 8.16699 55.5 24.5s19.5 38.833 19.5 67.5z" />
    <glyph glyph-name="obreve" unicode="&#x14f;" horiz-adv-x="516" 
d="M46 218c0 66.667 19.833 121 59.5 163s90.5 63 152.5 63s112.833 -21 152.5 -63s59.5 -96.333 59.5 -163s-19.833 -121 -59.5 -163s-90.5 -63 -152.5 -63s-112.833 21 -152.5 63s-59.5 96.333 -59.5 163zM436 218c0 58.667 -16.5 106.167 -49.5 142.5
s-75.833 54.5 -128.5 54.5s-95.5 -18.167 -128.5 -54.5s-49.5 -83.833 -49.5 -142.5s16.5 -106.167 49.5 -142.5s75.833 -54.5 128.5 -54.5s95.5 18.167 128.5 54.5s49.5 83.833 49.5 142.5zM333 630h28c0 -37.333 -9.16699 -66.666 -27.5 -87.999s-43.5 -32 -75.5 -32
s-57.167 10.667 -75.5 32s-27.5 50.666 -27.5 87.999h28c0 -28.667 6.5 -51.5 19.5 -68.5s31.5 -25.5 55.5 -25.5s42.5 8.5 55.5 25.5s19.5 39.833 19.5 68.5z" />
    <glyph glyph-name="Ohungarumlaut" unicode="&#x150;" horiz-adv-x="698" 
d="M50 297c0 90 28.167 163.333 84.5 220s127.833 85 214.5 85s158.167 -28.333 214.5 -85s84.5 -130 84.5 -220s-28.167 -163.333 -84.5 -220s-127.833 -85 -214.5 -85s-158.167 28.333 -214.5 85s-84.5 130 -84.5 220zM614 297c0 82.667 -25.167 149 -75.5 199
s-113.5 75 -189.5 75s-139.167 -25 -189.5 -75s-75.5 -116.333 -75.5 -199s25.167 -149 75.5 -199s113.5 -75 189.5 -75s139.167 25 189.5 75s75.5 116.333 75.5 199zM308 647h-31l73 131h31zM411 647h-31l73 131h31z" />
    <glyph glyph-name="ohungarumlaut" unicode="&#x151;" horiz-adv-x="516" 
d="M46 218c0 66.667 19.833 121 59.5 163s90.5 63 152.5 63s112.833 -21 152.5 -63s59.5 -96.333 59.5 -163s-19.833 -121 -59.5 -163s-90.5 -63 -152.5 -63s-112.833 21 -152.5 63s-59.5 96.333 -59.5 163zM436 218c0 58.667 -16.5 106.167 -49.5 142.5
s-75.833 54.5 -128.5 54.5s-95.5 -18.167 -128.5 -54.5s-49.5 -83.833 -49.5 -142.5s16.5 -106.167 49.5 -142.5s75.833 -54.5 128.5 -54.5s95.5 18.167 128.5 54.5s49.5 83.833 49.5 142.5zM226 513h-31l85 152h31zM329 513h-31l85 152h31z" />
    <glyph glyph-name="OE" unicode="&#x152;" horiz-adv-x="804" 
d="M749 594v-29.998h-286v-244h269v-30h-269v-260h289v-30h-394c-87.333 0 -160.5 27.167 -219.5 81.5s-88.5 126.166 -88.5 215.499s29.5 161.166 88.5 215.499s132.167 81.5 219.5 81.5h391zM429 30.002v534h-71c-77.333 0 -142.333 -24 -195 -72s-79 -113 -79 -195
s26.333 -147 79 -195s117.667 -72 195 -72h71z" />
    <glyph glyph-name="oe" unicode="&#x153;" horiz-adv-x="854" 
d="M792 73l0.000976562 -35.001c-35.333 -30.667 -83.333 -46 -144 -46c-44.667 0 -84.5 11 -119.5 33s-60.5 53.333 -76.5 94c-16 -40 -41 -71.167 -75 -93.5s-73.667 -33.5 -119 -33.5c-62.667 0 -113.667 20.833 -153 62.5s-59 96.167 -59 163.5s19.667 121.833 59 163.5
s90.333 62.5 153 62.5c45.333 0 85.166 -11.333 119.499 -34s59.5 -54 75.5 -94c16 38.667 40.333 69.667 73 93s69.667 35 111 35c53.333 0 95.5 -17 126.5 -51s46.5 -80.333 46.5 -139v-27h-344v-7c0 -61.333 16.833 -109.666 50.5 -144.999s77.5 -53 131.5 -53
c55.333 0 103.333 17 144 51zM436.001 217.999c0 59.333 -16.5 107 -49.5 143s-75.833 54 -128.5 54s-95.5 -18 -128.5 -54s-49.5 -83.667 -49.5 -143s16.5 -107 49.5 -143s75.833 -54 128.5 -54s95.5 18 128.5 54s49.5 83.667 49.5 143zM469.001 253.999h308
c0 50 -12.5 89.333 -37.5 118s-59.167 43 -102.5 43c-42 0 -78.5 -15 -109.5 -45s-50.5 -68.667 -58.5 -116z" />
    <glyph glyph-name="Racute" unicode="&#x154;" horiz-adv-x="488" 
d="M127 243l0.000976562 -243h-34v593c27.333 6 56.666 9 87.999 9c71.333 0 126.333 -15 165 -45s58 -74 58 -132c0 -48 -13.333 -87 -40 -117s-61 -49.333 -103 -58l217 -250h-44l-209 243h-98zM127.001 569v-296.999h71c52.667 0 94.167 13.167 124.5 39.5
s45.5 64.166 45.5 113.499c0 48 -16.333 84.667 -49 110s-78.667 38 -138 38c-17.333 0 -35.333 -1.33301 -54 -4zM249.001 647.001h-32l73 131h32z" />
    <glyph glyph-name="racute" unicode="&#x155;" horiz-adv-x="301" 
d="M113 380v-380h-33v395c44.667 30.667 94 46 148 46c19.333 0 40.333 -2.66699 63 -8v-33c-20.667 6 -41.667 9 -63 9c-46.667 0 -85 -9.66699 -115 -29zM207 513h-33l85 152h33z" />
    <glyph glyph-name="Rcommaaccent" unicode="&#x156;" horiz-adv-x="488" 
d="M127 243l0.000976562 -243h-34v593c27.333 6 56.666 9 87.999 9c71.333 0 126.333 -15 165 -45s58 -74 58 -132c0 -48 -13.333 -87 -40 -117s-61 -49.333 -103 -58l217 -250h-44l-209 243h-98zM127.001 569v-296.999h71c52.667 0 94.167 13.167 124.5 39.5
s45.5 64.166 45.5 113.499c0 48 -16.333 84.667 -49 110s-78.667 38 -138 38c-17.333 0 -35.333 -1.33301 -54 -4zM227.001 -45.999l34 -0.000976562c0 -54 -23 -96 -69 -126h-26c22.667 18.667 38.5 37.334 47.5 56.001s13.5 42 13.5 70z" />
    <glyph glyph-name="rcommaaccent" unicode="&#x157;" horiz-adv-x="301" 
d="M113 380v-380h-33v395c44.667 30.667 94 46 148 46c19.333 0 40.333 -2.66699 63 -8v-33c-20.667 6 -41.667 9 -63 9c-46.667 0 -85 -9.66699 -115 -29zM80 -46l34 -0.000976562c0 -54 -23 -96 -69 -126h-26c22.667 18.667 38.5 37.334 47.5 56.001s13.5 42 13.5 70z" />
    <glyph glyph-name="Rcaron" unicode="&#x158;" horiz-adv-x="488" 
d="M127 243l0.000976562 -243h-34v593c27.333 6 56.666 9 87.999 9c71.333 0 126.333 -15 165 -45s58 -74 58 -132c0 -48 -13.333 -87 -40 -117s-61 -49.333 -103 -58l217 -250h-44l-209 243h-98zM127.001 569v-296.999h71c52.667 0 94.167 13.167 124.5 39.5
s45.5 64.166 45.5 113.499c0 48 -16.333 84.667 -49 110s-78.667 38 -138 38c-17.333 0 -35.333 -1.33301 -54 -4zM350.001 778.001l-106 -132h-18l-106 132h34l81 -104l81 104h34z" />
    <glyph glyph-name="rcaron" unicode="&#x159;" horiz-adv-x="301" 
d="M113 380v-380h-33v395c44.667 30.667 94 46 148 46c19.333 0 40.333 -2.66699 63 -8v-33c-20.667 6 -41.667 9 -63 9c-46.667 0 -85 -9.66699 -115 -29zM308 640l-106 -137h-18l-106 137h35l80 -107l80 107h35z" />
    <glyph glyph-name="Sacute" unicode="&#x15a;" horiz-adv-x="422" 
d="M42 41v40.0029c44.667 -39.333 96 -59 154 -59c42 0 76.5 10.667 103.5 32s40.5 52.666 40.5 93.999c0 38 -11 66.833 -33 86.5s-57.667 39.167 -107 58.5c-54.667 21.333 -94.5 43.166 -119.5 65.499s-37.5 55.833 -37.5 100.5s15.833 79.667 47.5 105
s70.167 38 115.5 38c57.333 0 103 -15 137 -45v-38c-41.333 35.333 -87 53 -137 53c-37.333 0 -68.333 -10 -93 -30s-37 -47.667 -37 -83c0 -32.667 9.83301 -58.834 29.5 -78.501s54.167 -38.5 103.5 -56.5c28.667 -10.667 51.667 -20.334 69 -29.001
s34 -19.834 50 -33.501s27.5 -29.667 34.5 -48s10.5 -40.166 10.5 -65.499c0 -49.333 -16.833 -87.666 -50.5 -114.999s-75.834 -41 -126.501 -41c-63.333 0 -114.666 16.333 -153.999 49zM223 647.003h-32l73 131h32z" />
    <glyph glyph-name="sacute" unicode="&#x15b;" horiz-adv-x="348" 
d="M43 36l-0.000976562 38.001c36.667 -35.333 77.334 -53 122.001 -53c32.667 0 58.167 7.5 76.5 22.5s27.5 36.833 27.5 65.5c0 27.333 -8.5 48.166 -25.5 62.499s-44.833 28.166 -83.5 41.499c-39.333 14 -68.333 30 -87 48s-28 42.333 -28 73c0 33.333 11.5 60 34.5 80
s52.833 30 89.5 30c42 0 78.667 -11.667 110 -35v-38c-34 29.333 -70.667 44 -110 44c-28.667 0 -51.167 -7.16699 -67.5 -21.5s-24.5 -34.166 -24.5 -59.499c0 -23.333 7.33301 -41.5 22 -54.5s40 -26.167 76 -39.5c22 -8 39 -14.833 51 -20.5s24.667 -13.5 38 -23.5
s22.833 -22 28.5 -36s8.5 -31 8.5 -51c0 -38 -13 -67 -39 -87s-58.333 -30 -97 -30c-24.667 0 -48.167 4.16699 -70.5 12.5s-39.5 18.833 -51.5 31.5zM191.999 513.001h-33l85 152h33z" />
    <glyph glyph-name="Scircumflex" unicode="&#x15c;" horiz-adv-x="422" 
d="M42 41v40.0029c44.667 -39.333 96 -59 154 -59c42 0 76.5 10.667 103.5 32s40.5 52.666 40.5 93.999c0 38 -11 66.833 -33 86.5s-57.667 39.167 -107 58.5c-54.667 21.333 -94.5 43.166 -119.5 65.499s-37.5 55.833 -37.5 100.5s15.833 79.667 47.5 105
s70.167 38 115.5 38c57.333 0 103 -15 137 -45v-38c-41.333 35.333 -87 53 -137 53c-37.333 0 -68.333 -10 -93 -30s-37 -47.667 -37 -83c0 -32.667 9.83301 -58.834 29.5 -78.501s54.167 -38.5 103.5 -56.5c28.667 -10.667 51.667 -20.334 69 -29.001
s34 -19.834 50 -33.501s27.5 -29.667 34.5 -48s10.5 -40.166 10.5 -65.499c0 -49.333 -16.833 -87.666 -50.5 -114.999s-75.834 -41 -126.501 -41c-63.333 0 -114.666 16.333 -153.999 49zM217 774.003l109 -133h-34l-83 101l-83 -101h-34l109 133h16z" />
    <glyph glyph-name="scircumflex" unicode="&#x15d;" horiz-adv-x="348" 
d="M43 36l-0.000976562 38.001c36.667 -35.333 77.334 -53 122.001 -53c32.667 0 58.167 7.5 76.5 22.5s27.5 36.833 27.5 65.5c0 27.333 -8.5 48.166 -25.5 62.499s-44.833 28.166 -83.5 41.499c-39.333 14 -68.333 30 -87 48s-28 42.333 -28 73c0 33.333 11.5 60 34.5 80
s52.833 30 89.5 30c42 0 78.667 -11.667 110 -35v-38c-34 29.333 -70.667 44 -110 44c-28.667 0 -51.167 -7.16699 -67.5 -21.5s-24.5 -34.166 -24.5 -59.499c0 -23.333 7.33301 -41.5 22 -54.5s40 -26.167 76 -39.5c22 -8 39 -14.833 51 -20.5s24.667 -13.5 38 -23.5
s22.833 -22 28.5 -36s8.5 -31 8.5 -51c0 -38 -13 -67 -39 -87s-58.333 -30 -97 -30c-24.667 0 -48.167 4.16699 -70.5 12.5s-39.5 18.833 -51.5 31.5zM186.999 651.001l106 -137h-34l-81 106l-81 -106h-34l106 137h18z" />
    <glyph glyph-name="Scedilla" unicode="&#x15e;" horiz-adv-x="422" 
d="M152 -147l-34.998 0.00488281c45.333 38.667 70 85 74 139c-60.667 0.666992 -110.334 17 -149.001 49v40c44.667 -39.333 96 -59 154 -59c42 0 76.5 10.667 103.5 32s40.5 52.666 40.5 93.999c0 38 -11 66.833 -33 86.5s-57.667 39.167 -107 58.5
c-54.667 21.333 -94.5 43.166 -119.5 65.499s-37.5 55.833 -37.5 100.5s15.833 79.667 47.5 105s70.167 38 115.5 38c57.333 0 103 -15 137 -45v-38c-41.333 35.333 -87 53 -137 53c-37.333 0 -68.333 -10 -93 -30s-37 -47.667 -37 -83
c0 -32.667 9.83301 -58.834 29.5 -78.501s54.167 -38.5 103.5 -56.5c28.667 -10.667 51.667 -20.334 69 -29.001s34 -19.834 50 -33.501s27.5 -29.667 34.5 -48s10.5 -40.166 10.5 -65.499c0 -45.333 -14.167 -81.333 -42.5 -108s-64.833 -42.334 -109.5 -47.001
c-2 -28 -9.33301 -54.667 -22 -80s-28.334 -45.333 -47.001 -60z" />
    <glyph glyph-name="scedilla" unicode="&#x15f;" horiz-adv-x="348" 
d="M121 -147h-34.999c45.333 38.667 70 85 74 139c-50.667 1.33301 -89.667 16 -117 44v38c36.667 -35.333 77.334 -53 122.001 -53c32.667 0 58.167 7.5 76.5 22.5s27.5 36.833 27.5 65.5c0 27.333 -8.5 48.166 -25.5 62.499s-44.833 28.166 -83.5 41.499
c-39.333 14 -68.333 30 -87 48s-28 42.333 -28 73c0 33.333 11.5 60 34.5 80s52.833 30 89.5 30c42 0 78.667 -11.667 110 -35v-38c-34 29.333 -70.667 44 -110 44c-28.667 0 -51.167 -7.16699 -67.5 -21.5s-24.5 -34.166 -24.5 -59.499c0 -23.333 7.33301 -41.5 22 -54.5
s40 -26.167 76 -39.5c22 -8 39 -14.833 51 -20.5s24.667 -13.5 38 -23.5s22.833 -22 28.5 -36s8.5 -31 8.5 -51c0 -33.333 -10.333 -59.833 -31 -79.5s-47.334 -31.5 -80.001 -35.5c-2 -28 -9.33301 -54.667 -22 -80s-28.334 -45.666 -47.001 -60.999z" />
    <glyph glyph-name="Scaron" unicode="&#x160;" horiz-adv-x="422" 
d="M42 41v40.0029c44.667 -39.333 96 -59 154 -59c42 0 76.5 10.667 103.5 32s40.5 52.666 40.5 93.999c0 38 -11 66.833 -33 86.5s-57.667 39.167 -107 58.5c-54.667 21.333 -94.5 43.166 -119.5 65.499s-37.5 55.833 -37.5 100.5s15.833 79.667 47.5 105
s70.167 38 115.5 38c57.333 0 103 -15 137 -45v-38c-41.333 35.333 -87 53 -137 53c-37.333 0 -68.333 -10 -93 -30s-37 -47.667 -37 -83c0 -32.667 9.83301 -58.834 29.5 -78.501s54.167 -38.5 103.5 -56.5c28.667 -10.667 51.667 -20.334 69 -29.001
s34 -19.834 50 -33.501s27.5 -29.667 34.5 -48s10.5 -40.166 10.5 -65.499c0 -49.333 -16.833 -87.666 -50.5 -114.999s-75.834 -41 -126.501 -41c-63.333 0 -114.666 16.333 -153.999 49zM324 778.003l-106 -132h-18l-106 132h34l81 -104l81 104h34z" />
    <glyph glyph-name="scaron" unicode="&#x161;" horiz-adv-x="348" 
d="M43 36l-0.000976562 38.001c36.667 -35.333 77.334 -53 122.001 -53c32.667 0 58.167 7.5 76.5 22.5s27.5 36.833 27.5 65.5c0 27.333 -8.5 48.166 -25.5 62.499s-44.833 28.166 -83.5 41.499c-39.333 14 -68.333 30 -87 48s-28 42.333 -28 73c0 33.333 11.5 60 34.5 80
s52.833 30 89.5 30c42 0 78.667 -11.667 110 -35v-38c-34 29.333 -70.667 44 -110 44c-28.667 0 -51.167 -7.16699 -67.5 -21.5s-24.5 -34.166 -24.5 -59.499c0 -23.333 7.33301 -41.5 22 -54.5s40 -26.167 76 -39.5c22 -8 39 -14.833 51 -20.5s24.667 -13.5 38 -23.5
s22.833 -22 28.5 -36s8.5 -31 8.5 -51c0 -38 -13 -67 -39 -87s-58.333 -30 -97 -30c-24.667 0 -48.167 4.16699 -70.5 12.5s-39.5 18.833 -51.5 31.5zM292.999 640.001l-106 -137h-18l-106 137h35l80 -107l80 107h35z" />
    <glyph glyph-name="Tcommaaccent" unicode="&#x162;" horiz-adv-x="470" 
d="M252 564v-564h-34v564h-203v30h440v-30h-203zM217 -46l34 -0.000976562c0 -54 -23 -96 -69 -126h-26c22.667 18.667 38.5 37.334 47.5 56.001s13.5 42 13.5 70z" />
    <glyph glyph-name="tcommaaccent" unicode="&#x163;" horiz-adv-x="296" 
d="M21 408v28h67v100h33v-100h135v-28h-135v-302c0 -55.333 22.333 -83 67 -83c24.667 0 50.667 8 78 24v-32c-23.333 -14 -49.333 -21 -78 -21c-66.667 0 -100 35.333 -100 106v308h-67zM159 -46l34 -0.000976562c0 -54 -23 -96 -69 -126h-26
c22.667 18.667 38.5 37.334 47.5 56.001s13.5 42 13.5 70z" />
    <glyph glyph-name="Tcaron" unicode="&#x164;" horiz-adv-x="470" 
d="M252 564v-564h-34v564h-203v30h440v-30h-203zM350 778l-106 -132h-18l-106 132h34l81 -104l81 104h34z" />
    <glyph glyph-name="tcaron" unicode="&#x165;" horiz-adv-x="296" 
d="M21 408v28h67v100h33v-100h135v-28h-135v-302c0 -55.333 22.333 -83 67 -83c24.667 0 50.667 8 78 24v-32c-23.333 -14 -49.333 -21 -78 -21c-66.667 0 -100 35.333 -100 106v308h-67zM222 640h30l-40 -148h-30z" />
    <glyph glyph-name="Tbar" unicode="&#x166;" horiz-adv-x="470" 
d="M218 290h-108v30h108v244h-203v30h440v-30h-203v-244h109v-30h-109v-290h-34v290z" />
    <glyph glyph-name="tbar" unicode="&#x167;" horiz-adv-x="296" 
d="M88 264v144h-67v28h67v100h33v-100h135v-28h-135v-144h135v-27h-135v-131c0 -55.333 22.333 -83 67 -83c24.667 0 50.667 8 78 24v-32c-23.333 -14 -49.333 -21 -78 -21c-66.667 0 -100 35.333 -100 106v137h-67v27h67z" />
    <glyph glyph-name="Utilde" unicode="&#x168;" horiz-adv-x="592" 
d="M76 194v400h34v-404c0 -111.333 70 -167 210 -167c52.667 0 101 5 145 15v556h34v-579c-60 -15.333 -119.667 -23 -179 -23c-162.667 0 -244 67.333 -244 202zM380 736l25.998 0.000976562c0 -29.333 -5.5 -52.5 -16.5 -69.5s-26.5 -25.5 -46.5 -25.5
c-19.333 0 -39.666 11.667 -60.999 35s-37.666 35 -48.999 35c-25.333 0 -38 -22.333 -38 -67h-26c0 29.333 5.5 52.5 16.5 69.5s26.5 25.5 46.5 25.5c15.333 0 29.333 -5.83301 42 -17.5s24.667 -23.334 36 -35.001s22 -17.5 32 -17.5c25.333 0 38 22.333 38 67z" />
    <glyph glyph-name="utilde" unicode="&#x169;" horiz-adv-x="482" 
d="M403 436v-428c-51.333 -10.667 -96.333 -16 -135 -16c-130.667 0 -196 48.333 -196 145v299h33v-297c0 -78 54.333 -117 163 -117c31.333 0 65.333 3.33301 102 10v404h33zM332 610l25.998 0.000976562c0 -29.333 -5.5 -52.5 -16.5 -69.5s-26.5 -25.5 -46.5 -25.5
c-19.333 0 -39.666 11.667 -60.999 35s-37.666 35 -48.999 35c-25.333 0 -38 -22.333 -38 -67h-26c0 29.333 5.5 52.5 16.5 69.5s26.5 25.5 46.5 25.5c14.667 0 28.5 -5.83301 41.5 -17.5s25.167 -23.334 36.5 -35.001s22 -17.5 32 -17.5c25.333 0 38 22.333 38 67z" />
    <glyph glyph-name="Umacron" unicode="&#x16a;" horiz-adv-x="592" 
d="M76 194v400h34v-404c0 -111.333 70 -167 210 -167c52.667 0 101 5 145 15v556h34v-579c-60 -15.333 -119.667 -23 -179 -23c-162.667 0 -244 67.333 -244 202zM191 660v28h193v-28h-193z" />
    <glyph glyph-name="umacron" unicode="&#x16b;" horiz-adv-x="482" 
d="M403 436v-428c-51.333 -10.667 -96.333 -16 -135 -16c-130.667 0 -196 48.333 -196 145v299h33v-297c0 -78 54.333 -117 163 -117c31.333 0 65.333 3.33301 102 10v404h33zM143 536v27h193v-27h-193z" />
    <glyph glyph-name="Ubreve" unicode="&#x16c;" horiz-adv-x="592" 
d="M76 194v400h34v-404c0 -111.333 70 -167 210 -167c52.667 0 101 5 145 15v556h34v-579c-60 -15.333 -119.667 -23 -179 -23c-162.667 0 -244 67.333 -244 202zM362 762h28c0 -36.667 -9.16699 -65.5 -27.5 -86.5s-43.5 -31.5 -75.5 -31.5s-57.167 10.5 -75.5 31.5
s-27.5 49.833 -27.5 86.5h28c0 -28.667 6.5 -51.167 19.5 -67.5s31.5 -24.5 55.5 -24.5s42.5 8.16699 55.5 24.5s19.5 38.833 19.5 67.5z" />
    <glyph glyph-name="ubreve" unicode="&#x16d;" horiz-adv-x="482" 
d="M403 436v-428c-51.333 -10.667 -96.333 -16 -135 -16c-130.667 0 -196 48.333 -196 145v299h33v-297c0 -78 54.333 -117 163 -117c31.333 0 65.333 3.33301 102 10v404h33zM314 630h28c0 -37.333 -9.16699 -66.666 -27.5 -87.999s-43.5 -32 -75.5 -32
s-57.167 10.667 -75.5 32s-27.5 50.666 -27.5 87.999h28c0 -28.667 6.5 -51.5 19.5 -68.5s31.5 -25.5 55.5 -25.5s42.5 8.5 55.5 25.5s19.5 39.833 19.5 68.5z" />
    <glyph glyph-name="Uring" unicode="&#x16e;" horiz-adv-x="592" 
d="M76 194v400h34v-404c0 -111.333 70 -167 210 -167c52.667 0 101 5 145 15v556h34v-579c-60 -15.333 -119.667 -23 -179 -23c-162.667 0 -244 67.333 -244 202zM210 702c0 21.333 7.5 39.166 22.5 53.499s33.167 21.5 54.5 21.5s39.5 -7.16699 54.5 -21.5
s22.5 -32.166 22.5 -53.499s-7.5 -39.166 -22.5 -53.499s-33.167 -21.5 -54.5 -21.5s-39.5 7.16699 -54.5 21.5s-22.5 32.166 -22.5 53.499zM338 702c0 15.333 -4.49902 27.666 -13.499 36.999s-21.5 14 -37.5 14s-28.5 -4.66699 -37.5 -14s-13.5 -21.666 -13.5 -36.999
c0 -14.667 4.66699 -26.834 14 -36.501s21.666 -14.5 36.999 -14.5c16 0 28.5 4.83301 37.5 14.5s13.5 21.834 13.5 36.501z" />
    <glyph glyph-name="uring" unicode="&#x16f;" horiz-adv-x="482" 
d="M403 436v-428c-51.333 -10.667 -96.333 -16 -135 -16c-130.667 0 -196 48.333 -196 145v299h33v-297c0 -78 54.333 -117 163 -117c31.333 0 65.333 3.33301 102 10v404h33zM162 582c0 21.333 7.5 39.166 22.5 53.499s33.167 21.5 54.5 21.5s39.5 -7.16699 54.5 -21.5
s22.5 -32.166 22.5 -53.499s-7.5 -39.166 -22.5 -53.499s-33.167 -21.5 -54.5 -21.5s-39.5 7.16699 -54.5 21.5s-22.5 32.166 -22.5 53.499zM290 582c0 15.333 -4.49902 27.666 -13.499 36.999s-21.5 14 -37.5 14s-28.5 -4.66699 -37.5 -14s-13.5 -21.666 -13.5 -36.999
c0 -14.667 4.66699 -26.834 14 -36.501s21.666 -14.5 36.999 -14.5c16 0 28.5 4.83301 37.5 14.5s13.5 21.834 13.5 36.501z" />
    <glyph glyph-name="Uhungarumlaut" unicode="&#x170;" horiz-adv-x="592" 
d="M76 194v400h34v-404c0 -111.333 70 -167 210 -167c52.667 0 101 5 145 15v556h34v-579c-60 -15.333 -119.667 -23 -179 -23c-162.667 0 -244 67.333 -244 202zM243 647h-31l73 131h31zM346 647h-31l73 131h31z" />
    <glyph glyph-name="uhungarumlaut" unicode="&#x171;" horiz-adv-x="482" 
d="M403 436v-428c-51.333 -10.667 -96.333 -16 -135 -16c-130.667 0 -196 48.333 -196 145v299h33v-297c0 -78 54.333 -117 163 -117c31.333 0 65.333 3.33301 102 10v404h33zM197 513h-31l85 152h31zM300 513h-31l85 152h31z" />
    <glyph glyph-name="Uogonek" unicode="&#x172;" horiz-adv-x="592" 
d="M76 194l0.00292969 400.002h34v-404c0 -111.333 70 -167 210 -167c52.667 0 101 5 145 15v556h34v-579c-62.667 -54 -94 -99.333 -94 -136c0 -12.667 3.66699 -22.334 11 -29.001s16.666 -10 27.999 -10c18 0 33.667 4 47 12v-27
c-14.667 -7.33301 -31.334 -11 -50.001 -11c-19.333 0 -35 5.33301 -47 16s-18 26 -18 46s7.16699 41.667 21.5 65s34.166 44.666 59.499 63.999c-47.333 -8.66699 -93 -13 -137 -13c-162.667 0 -244 67.333 -244 202z" />
    <glyph glyph-name="uogonek" unicode="&#x173;" horiz-adv-x="482" 
d="M403 -148l0.00195312 -26.998c-14.667 -7.33301 -31.334 -11 -50.001 -11c-19.333 0 -35 5.33301 -47 16s-18 26 -18 46c0 41.333 25.667 82.666 77 123.999c-36 -5.33301 -68.333 -8 -97 -8c-130.667 0 -196 48.333 -196 145v299h33v-297c0 -78 54.333 -117 163 -117
c31.333 0 65.333 3.33301 102 10v404h33v-428c-57.333 -52 -86 -95 -86 -129c0 -12.667 3.66699 -22.334 11 -29.001s16.666 -10 27.999 -10c18 0 33.667 4 47 12z" />
    <glyph glyph-name="Wcircumflex" unicode="&#x174;" horiz-adv-x="750" 
d="M355 594h41l151 -563l156 563h33l-166 -594h-45l-150 555l-150 -555h-45l-166 594h34l156 -563zM383 774l109 -133h-34l-83 101l-83 -101h-34l109 133h16z" />
    <glyph glyph-name="wcircumflex" unicode="&#x175;" horiz-adv-x="606" 
d="M320 436l117 -404l130 404h32l-142 -436h-41l-113 394l-113 -394h-41l-142 436h33l130 -404l116 404h34zM312 651l106 -137h-34l-81 106l-81 -106h-34l106 137h18z" />
    <glyph glyph-name="Ycircumflex" unicode="&#x176;" horiz-adv-x="497" 
d="M249 277l197 317h37l-218 -350v-244h-34v244l-217 350h38zM256 774l109 -133h-34l-83 101l-83 -101h-34l109 133h16z" />
    <glyph glyph-name="ycircumflex" unicode="&#x177;" horiz-adv-x="413" 
d="M42 436l171 -421l160 421h33l-236 -616h-33l59 153l-189 463h35zM223 651l106 -137h-34l-81 106l-81 -106h-34l106 137h18z" />
    <glyph glyph-name="Ydieresis" unicode="&#x178;" horiz-adv-x="497" 
d="M249 277l197 317h37l-218 -350v-244h-34v244l-217 350h38zM174 655c-7.33301 0 -13.666 2.5 -18.999 7.5s-8 11.5 -8 19.5s2.66699 14.5 8 19.5s11.666 7.5 18.999 7.5s13.666 -2.5 18.999 -7.5s8 -11.5 8 -19.5s-2.66699 -14.5 -8 -19.5s-11.666 -7.5 -18.999 -7.5z
M322 655c-7.33301 0 -13.666 2.5 -18.999 7.5s-8 11.5 -8 19.5s2.66699 14.5 8 19.5s11.666 7.5 18.999 7.5s13.666 -2.5 18.999 -7.5s8 -11.5 8 -19.5s-2.66699 -14.5 -8 -19.5s-11.666 -7.5 -18.999 -7.5z" />
    <glyph glyph-name="Zacute" unicode="&#x179;" horiz-adv-x="469" 
d="M49 564v30h391v-26l-377 -538h383v-30h-423v27l376 537h-350zM266 647h-32l73 131h32z" />
    <glyph glyph-name="zacute" unicode="&#x17a;" horiz-adv-x="399" 
d="M363 28v-28h-326v30l282 378h-266v28h305v-28l-286 -380h291zM230 513h-33l85 152h33z" />
    <glyph glyph-name="Zdotaccent" unicode="&#x17b;" horiz-adv-x="469" 
d="M49 564v30h391v-26l-377 -538h383v-30h-423v27l376 537h-350zM252 655c-7.33301 0 -13.666 2.5 -18.999 7.5s-8 11.5 -8 19.5s2.66699 14.5 8 19.5s11.666 7.5 18.999 7.5s13.666 -2.5 18.999 -7.5s8 -11.5 8 -19.5s-2.66699 -14.5 -8 -19.5s-11.666 -7.5 -18.999 -7.5z
" />
    <glyph glyph-name="zdotaccent" unicode="&#x17c;" horiz-adv-x="399" 
d="M363 28v-28h-326v30l282 378h-266v28h305v-28l-286 -380h291zM216 536c-7.33301 0 -13.666 2.5 -18.999 7.5s-8 11.5 -8 19.5s2.66699 14.5 8 19.5s11.666 7.5 18.999 7.5s13.666 -2.5 18.999 -7.5s8 -11.5 8 -19.5s-2.66699 -14.5 -8 -19.5s-11.666 -7.5 -18.999 -7.5z
" />
    <glyph glyph-name="Zcaron" unicode="&#x17d;" horiz-adv-x="469" 
d="M49 564v30h391v-26l-377 -538h383v-30h-423v27l376 537h-350zM367 778l-106 -132h-18l-106 132h34l81 -104l81 104h34z" />
    <glyph glyph-name="zcaron" unicode="&#x17e;" horiz-adv-x="399" 
d="M363 28v-28h-326v30l282 378h-266v28h305v-28l-286 -380h291zM331 640l-106 -137h-18l-106 137h35l80 -107l80 107h35z" />
    <glyph glyph-name="florin" unicode="&#x192;" horiz-adv-x="331" 
d="M95 284h-70.001v28h74l22 142c7.33301 48 20 84.667 38 110s45.333 38 82 38c24.667 0 46.334 -7.33301 65.001 -22v-32c-20 16.667 -41.667 25 -65 25c-26.667 0 -46.5 -10 -59.5 -30s-22.5 -50 -28.5 -90l-22 -141h111v-28h-115l-63 -406h-31z" />
    <glyph glyph-name="Aringacute" unicode="&#x1fa;" horiz-adv-x="537" 
d="M14 0l226.002 576c-15.333 4.66699 -27.833 12.667 -37.5 24s-14.5 24.333 -14.5 39c0 18.667 7.66699 34.667 23 48s33.666 20 54.999 20s39.666 -6.66699 54.999 -20s23 -29.333 23 -48c0 -14.667 -4.5 -27.5 -13.5 -38.5s-20.833 -18.833 -35.5 -23.5l228 -577h-35
l-71 180h-299l-69 -180h-35zM405.002 210l-139 353l-136 -353h275zM214.002 639c0 -12.667 4.66699 -23.167 14 -31.5s22 -12.5 38 -12.5s28.667 4.16699 38 12.5s14 18.833 14 31.5s-4.66699 23.167 -14 31.5s-22 12.5 -38 12.5s-28.667 -4.16699 -38 -12.5
s-14 -18.833 -14 -31.5zM284.002 740h-31l38 68h31z" />
    <glyph glyph-name="aringacute" unicode="&#x1fb;" horiz-adv-x="415" 
d="M232 649h-31l38 69h31zM136 543c0 18.667 7.66699 34.667 23 48s33.666 20 54.999 20s39.666 -6.66699 54.999 -20s23 -29.333 23 -48s-7.66699 -34.667 -23 -48s-33.666 -20 -54.999 -20s-39.666 6.66699 -54.999 20s-23 29.333 -23 48zM162 543
c0 -12.667 4.66699 -23.167 14 -31.5s22 -12.5 38 -12.5s28.667 4.16699 38 12.5s14 18.833 14 31.5s-4.66699 23.167 -14 31.5s-22 12.5 -38 12.5s-28.667 -4.16699 -38 -12.5s-14 -18.833 -14 -31.5zM310 249v65c0 32 -8.5 56.667 -25.5 74s-41.5 26 -73.5 26
c-44 0 -85.333 -11 -124 -33v31c34.667 21.333 76.334 32 125.001 32c87.333 0 131 -42 131 -126v-311c-34.667 -10 -69.334 -15 -104.001 -15c-62 0 -110.333 10.833 -145 32.5s-52 53.5 -52 95.5c0 86 72.333 129 217 129h51zM310 28v192h-50
c-123.333 0 -185 -33.333 -185 -100c0 -33.333 15.167 -58.333 45.5 -75s69.833 -25 118.5 -25c26 0 49.667 2.66699 71 8z" />
    <glyph glyph-name="AEacute" unicode="&#x1fc;" horiz-adv-x="808" 
d="M172 180l-122 -180h-36l402 594h337v-30h-286v-244h269v-30h-269v-260h289v-30h-323v180h-261zM192 210h241v357zM583 647h-32l73 131h32z" />
    <glyph glyph-name="aeacute" unicode="&#x1fd;" horiz-adv-x="737" 
d="M693 217h-345.001c0.666992 -59.333 18 -106.833 52 -142.5s77 -53.5 129 -53.5c55.333 0 103.666 16 144.999 48v-32c-36.667 -30 -85 -45 -145 -45c-77.333 0 -135.333 29.667 -174 89c-41.333 -59.333 -96.666 -89 -165.999 -89c-43.333 0 -78.666 10.5 -105.999 31.5
s-41 50.833 -41 89.5c0 44 19 76.667 57 98s90 32 156 32h63c2 20.667 5.33301 38.667 10 54c-2 78.667 -40.667 118 -116 118c-40 0 -82.667 -11.333 -128 -34v31c39.333 21.333 82 32 128 32c78 0 124 -32 138 -96c17.333 30 40.333 53.5 69 70.5s60.667 25.5 96 25.5
c58 0 102.167 -19 132.5 -57s45.5 -87.333 45.5 -148v-22zM316.999 217l-60.001 0.000976562c-121.333 0 -182 -34.667 -182 -104c0 -30 10.833 -53 32.5 -69s48.834 -24 81.501 -24c32 0 61.167 7.66699 87.5 23s47.5 37 63.5 65c-14 31.333 -21.667 67.666 -23 108.999z
M348.998 243.001h312.001c-1.33301 52 -14 93.667 -38 125s-60.333 47 -109 47c-46 0 -83.833 -15.667 -113.5 -47s-46.834 -73 -51.501 -125zM386.999 513.001h-33l85 152h33z" />
    <glyph glyph-name="Oslashacute" unicode="&#x1fe;" horiz-adv-x="698" 
d="M658 594l-85.001 -87c50 -56.667 75 -126.667 75 -210c0 -90 -28.167 -163.333 -84.5 -220s-127.833 -85 -214.5 -85c-81.333 0 -149.666 25 -204.999 75l-65 -67h-39l85 87c-50 56.667 -75 126.667 -75 210c0 90 28.167 163.333 84.5 220s127.833 85 214.5 85
c80 0 148 -25.333 204 -76l66 68h39zM550.999 485l-386 -396c48 -44 109.333 -66 184 -66c76 0 139.167 25 189.5 75s75.5 116.333 75.5 199c0 77.333 -21 140 -63 188zM145.999 109l386 396.001c-48 44 -109 66 -183 66c-76 0 -139.167 -25 -189.5 -75
s-75.5 -116.333 -75.5 -199c0 -76.667 20.667 -139.334 62 -188.001zM362.999 647.001h-32l73 131h32z" />
    <glyph glyph-name="oslashacute" unicode="&#x1ff;" horiz-adv-x="516" 
d="M480 436l-60 -64c33.333 -40.667 50 -92 50 -154c0 -66.667 -19.833 -121 -59.5 -163s-90.5 -63 -152.5 -63c-58 0 -105.667 17.667 -143 53l-43 -45h-36l60 64c-33.333 40.667 -50 92 -50 154c0 66.667 19.833 121 59.5 163s90.5 63 152.5 63
c58 0 105.667 -17.667 143 -53l43 45h36zM118 87l263 282c-32 30.667 -73 46 -123 46c-52.667 0 -95.5 -18.167 -128.5 -54.5s-49.5 -83.833 -49.5 -142.5c0 -54 12.667 -97.667 38 -131zM398 349l-263 -282c32 -30.667 73 -46 123 -46c52.667 0 95.5 18.167 128.5 54.5
s49.5 83.833 49.5 142.5c0 54 -12.667 97.667 -38 131zM272 513h-33l85 152h33z" />
    <glyph glyph-name="Scommaaccent" unicode="&#x218;" horiz-adv-x="422" 
d="M42 41v40.0029c44.667 -39.333 96 -59 154 -59c42 0 76.5 10.667 103.5 32s40.5 52.666 40.5 93.999c0 38 -11 66.833 -33 86.5s-57.667 39.167 -107 58.5c-54.667 21.333 -94.5 43.166 -119.5 65.499s-37.5 55.833 -37.5 100.5s15.833 79.667 47.5 105
s70.167 38 115.5 38c57.333 0 103 -15 137 -45v-38c-41.333 35.333 -87 53 -137 53c-37.333 0 -68.333 -10 -93 -30s-37 -47.667 -37 -83c0 -32.667 9.83301 -58.834 29.5 -78.501s54.167 -38.5 103.5 -56.5c28.667 -10.667 51.667 -20.334 69 -29.001
s34 -19.834 50 -33.501s27.5 -29.667 34.5 -48s10.5 -40.166 10.5 -65.499c0 -49.333 -16.833 -87.666 -50.5 -114.999s-75.834 -41 -126.501 -41c-63.333 0 -114.666 16.333 -153.999 49zM191 -45.9971l34 -0.000976562c0 -54 -23 -96 -69 -126h-26
c22.667 18.667 38.5 37.334 47.5 56.001s13.5 42 13.5 70z" />
    <glyph glyph-name="scommaaccent" unicode="&#x219;" horiz-adv-x="348" 
d="M43 36l-0.000976562 38.001c36.667 -35.333 77.334 -53 122.001 -53c32.667 0 58.167 7.5 76.5 22.5s27.5 36.833 27.5 65.5c0 27.333 -8.5 48.166 -25.5 62.499s-44.833 28.166 -83.5 41.499c-39.333 14 -68.333 30 -87 48s-28 42.333 -28 73c0 33.333 11.5 60 34.5 80
s52.833 30 89.5 30c42 0 78.667 -11.667 110 -35v-38c-34 29.333 -70.667 44 -110 44c-28.667 0 -51.167 -7.16699 -67.5 -21.5s-24.5 -34.166 -24.5 -59.499c0 -23.333 7.33301 -41.5 22 -54.5s40 -26.167 76 -39.5c22 -8 39 -14.833 51 -20.5s24.667 -13.5 38 -23.5
s22.833 -22 28.5 -36s8.5 -31 8.5 -51c0 -38 -13 -67 -39 -87s-58.333 -30 -97 -30c-24.667 0 -48.167 4.16699 -70.5 12.5s-39.5 18.833 -51.5 31.5zM159.999 -45.999l34 -0.000976562c0 -54 -23 -96 -69 -126h-26c22.667 18.667 38.5 37.334 47.5 56.001s13.5 42 13.5 70z
" />
    <glyph glyph-name="uni021A" unicode="&#x21a;" horiz-adv-x="470" 
d="M252 564v-564h-34v564h-203v30h440v-30h-203zM217 -46l34 -0.000976562c0 -54 -23 -96 -69 -126h-26c22.667 18.667 38.5 37.334 47.5 56.001s13.5 42 13.5 70z" />
    <glyph glyph-name="uni021B" unicode="&#x21b;" horiz-adv-x="296" 
d="M21 408v28h67v100h33v-100h135v-28h-135v-302c0 -55.333 22.333 -83 67 -83c24.667 0 50.667 8 78 24v-32c-23.333 -14 -49.333 -21 -78 -21c-66.667 0 -100 35.333 -100 106v308h-67zM159 -46l34 -0.000976562c0 -54 -23 -96 -69 -126h-26
c22.667 18.667 38.5 37.334 47.5 56.001s13.5 42 13.5 70z" />
    <glyph glyph-name="uni0237" unicode="&#x237;" horiz-adv-x="193" 
d="M80 -68v504h33v-502c0 -81.333 -35.333 -122 -106 -122c-21.333 0 -40.666 4 -57.999 12v31c21.333 -9.33301 40.666 -14 57.999 -14c24 0 42.167 6.66699 54.5 20s18.5 37 18.5 71z" />
    <glyph glyph-name="circumflex" unicode="&#x2c6;" horiz-adv-x="500" 
d="M259 651l106 -137h-34l-81 106l-81 -106h-34l106 137h18z" />
    <glyph glyph-name="caron" unicode="&#x2c7;" horiz-adv-x="500" 
d="M365 640l-106 -137h-18l-106 137h35l80 -107l80 107h35z" />
    <glyph glyph-name="uni02C9" unicode="&#x2c9;" horiz-adv-x="500" 
d="M153 536v27h193v-27h-193z" />
    <glyph glyph-name="breve" unicode="&#x2d8;" horiz-adv-x="500" 
d="M325 630h28c0 -37.333 -9.16699 -66.666 -27.5 -87.999s-43.5 -32 -75.5 -32s-57.167 10.667 -75.5 32s-27.5 50.666 -27.5 87.999h28c0 -28.667 6.5 -51.5 19.5 -68.5s31.5 -25.5 55.5 -25.5s42.5 8.5 55.5 25.5s19.5 39.833 19.5 68.5z" />
    <glyph glyph-name="dotaccent" unicode="&#x2d9;" horiz-adv-x="500" 
d="M250 536c-7.33301 0 -13.666 2.5 -18.999 7.5s-8 11.5 -8 19.5s2.66699 14.5 8 19.5s11.666 7.5 18.999 7.5s13.666 -2.5 18.999 -7.5s8 -11.5 8 -19.5s-2.66699 -14.5 -8 -19.5s-11.666 -7.5 -18.999 -7.5z" />
    <glyph glyph-name="ring" unicode="&#x2da;" horiz-adv-x="500" 
d="M173 582c0 21.333 7.5 39.166 22.5 53.499s33.167 21.5 54.5 21.5s39.5 -7.16699 54.5 -21.5s22.5 -32.166 22.5 -53.499s-7.5 -39.166 -22.5 -53.499s-33.167 -21.5 -54.5 -21.5s-39.5 7.16699 -54.5 21.5s-22.5 32.166 -22.5 53.499zM301 582
c0 15.333 -4.49902 27.666 -13.499 36.999s-21.5 14 -37.5 14s-28.5 -4.66699 -37.5 -14s-13.5 -21.666 -13.5 -36.999c0 -14.667 4.66699 -26.834 14 -36.501s21.666 -14.5 36.999 -14.5c16 0 28.5 4.83301 37.5 14.5s13.5 21.834 13.5 36.501z" />
    <glyph glyph-name="ogonek" unicode="&#x2db;" horiz-adv-x="500" 
d="M268 8l29.002 0.000976562c-53.333 -48.667 -80 -91.667 -80 -129c0 -12.667 3.66699 -22.334 11 -29.001s16.666 -10 27.999 -10c18 0 33.667 4 47 12v-27c-14.667 -7.33301 -31.334 -11 -50.001 -11c-19.333 0 -35 5.33301 -47 16s-18 26 -18 46
c0 44.667 26.667 88.667 80 132z" />
    <glyph glyph-name="tilde" unicode="&#x2dc;" horiz-adv-x="500" 
d="M342 610l25.998 0.000976562c0 -29.333 -5.5 -52.5 -16.5 -69.5s-26.5 -25.5 -46.5 -25.5c-19.333 0 -39.666 11.667 -60.999 35s-37.666 35 -48.999 35c-25.333 0 -38 -22.333 -38 -67h-26c0 29.333 5.5 52.5 16.5 69.5s26.5 25.5 46.5 25.5
c15.333 0 29.333 -5.83301 42 -17.5s24.667 -23.334 36 -35.001s22 -17.5 32 -17.5c25.333 0 38 22.333 38 67z" />
    <glyph glyph-name="hungarumlaut" unicode="&#x2dd;" horiz-adv-x="500" 
d="M171 513h-31l85 152h31zM274 513h-31l85 152h31z" />
    <glyph glyph-name="anoteleia" unicode="&#x387;" horiz-adv-x="196" 
d="M70 261c0 8 2.66699 14.667 8 20s12 8 20 8s14.667 -2.66699 20 -8s8 -12 8 -20s-2.66699 -14.667 -8 -20s-12 -8 -20 -8s-14.667 2.66699 -20 8s-8 12 -8 20z" />
    <glyph glyph-name="pi" unicode="&#x3c0;" horiz-adv-x="507" 
d="M472 31v-27c-13.333 -7.33301 -29.333 -11 -48 -11c-56 0 -84 34 -84 102v313h-195v-408h-31v408h-79v28h425v-28h-89v-314c0 -49.333 19.667 -74 59 -74c16 0 30 3.66699 42 11z" />
    <glyph glyph-name="Wgrave" unicode="&#x1e80;" horiz-adv-x="750" 
d="M355 594h41l151 -563l156 563h33l-166 -594h-45l-150 555l-150 -555h-45l-166 594h34l156 -563zM392 647h-32l-73 131h32z" />
    <glyph glyph-name="wgrave" unicode="&#x1e81;" horiz-adv-x="606" 
d="M320 436l117 -404l130 404h32l-142 -436h-41l-113 394l-113 -394h-41l-142 436h33l130 -404l116 404h34zM314 513h-33l-85 152h33z" />
    <glyph glyph-name="Wacute" unicode="&#x1e82;" horiz-adv-x="750" 
d="M355 594h41l151 -563l156 563h33l-166 -594h-45l-150 555l-150 -555h-45l-166 594h34l156 -563zM389 647h-32l73 131h32z" />
    <glyph glyph-name="wacute" unicode="&#x1e83;" horiz-adv-x="606" 
d="M320 436l117 -404l130 404h32l-142 -436h-41l-113 394l-113 -394h-41l-142 436h33l130 -404l116 404h34zM325 513h-33l85 152h33z" />
    <glyph glyph-name="Wdieresis" unicode="&#x1e84;" horiz-adv-x="750" 
d="M355 594h41l151 -563l156 563h33l-166 -594h-45l-150 555l-150 -555h-45l-166 594h34l156 -563zM301 655c-7.33301 0 -13.666 2.5 -18.999 7.5s-8 11.5 -8 19.5s2.66699 14.5 8 19.5s11.666 7.5 18.999 7.5s13.666 -2.5 18.999 -7.5s8 -11.5 8 -19.5
s-2.66699 -14.5 -8 -19.5s-11.666 -7.5 -18.999 -7.5zM449 655c-7.33301 0 -13.666 2.5 -18.999 7.5s-8 11.5 -8 19.5s2.66699 14.5 8 19.5s11.666 7.5 18.999 7.5s13.666 -2.5 18.999 -7.5s8 -11.5 8 -19.5s-2.66699 -14.5 -8 -19.5s-11.666 -7.5 -18.999 -7.5z" />
    <glyph glyph-name="wdieresis" unicode="&#x1e85;" horiz-adv-x="606" 
d="M320 436l117 -404l130 404h32l-142 -436h-41l-113 394l-113 -394h-41l-142 436h33l130 -404l116 404h34zM229 536c-7.33301 0 -13.666 2.5 -18.999 7.5s-8 11.5 -8 19.5s2.66699 14.5 8 19.5s11.666 7.5 18.999 7.5s13.666 -2.5 18.999 -7.5s8 -11.5 8 -19.5
s-2.66699 -14.5 -8 -19.5s-11.666 -7.5 -18.999 -7.5zM377 536c-7.33301 0 -13.666 2.5 -18.999 7.5s-8 11.5 -8 19.5s2.66699 14.5 8 19.5s11.666 7.5 18.999 7.5s13.666 -2.5 18.999 -7.5s8 -11.5 8 -19.5s-2.66699 -14.5 -8 -19.5s-11.666 -7.5 -18.999 -7.5z" />
    <glyph glyph-name="Ygrave" unicode="&#x1ef2;" horiz-adv-x="497" 
d="M249 277l197 317h37l-218 -350v-244h-34v244l-217 350h38zM265 647h-32l-73 131h32z" />
    <glyph glyph-name="ygrave" unicode="&#x1ef3;" horiz-adv-x="413" 
d="M42 436l171 -421l160 421h33l-236 -616h-33l59 153l-189 463h35zM233 513h-33l-85 152h33z" />
    <glyph glyph-name="uni2011" unicode="&#x2011;" horiz-adv-x="355" 
d="M64 247v29h227v-29h-227z" />
    <glyph glyph-name="figuredash" unicode="&#x2012;" horiz-adv-x="572" 
d="M64 248v28h444v-28h-444z" />
    <glyph glyph-name="endash" unicode="&#x2013;" horiz-adv-x="572" 
d="M64 248v28h444v-28h-444z" />
    <glyph glyph-name="emdash" unicode="&#x2014;" horiz-adv-x="952" 
d="M64 248v28h824v-28h-824z" />
    <glyph glyph-name="uni2015" unicode="&#x2015;" horiz-adv-x="952" 
d="M64 248v28h824v-28h-824z" />
    <glyph glyph-name="quoteleft" unicode="&#x2018;" horiz-adv-x="194" 
d="M104 474l-34 -0.000976562c0 37.333 8.83301 71.333 26.5 102s40.167 53.334 67.5 68.001h28c-58.667 -48 -88 -104.667 -88 -170z" />
    <glyph glyph-name="quoteright" unicode="&#x2019;" horiz-adv-x="194" 
d="M115 644l34 0.000976562c0 -37.333 -8.83301 -71.333 -26.5 -102s-40.167 -53.334 -67.5 -68.001h-28c58.667 48 88 104.667 88 170z" />
    <glyph glyph-name="quotesinglbase" unicode="&#x201a;" horiz-adv-x="194" 
d="M85 65l34 0.000976562c0 -37.333 -8.83301 -71.333 -26.5 -102s-40.167 -53.334 -67.5 -68.001h-28c58.667 48 88 104.667 88 170z" />
    <glyph glyph-name="quotedblleft" unicode="&#x201c;" horiz-adv-x="299" 
d="M104 474l-34 -0.000976562c0 37.333 8.83301 71.333 26.5 102s40.167 53.334 67.5 68.001h28c-58.667 -48 -88 -104.667 -88 -170zM209 473.999l-34 -0.000976562c0 37.333 8.83301 71.333 26.5 102s40.167 53.334 67.5 68.001h28c-58.667 -48 -88 -104.667 -88 -170z
" />
    <glyph glyph-name="quotedblright" unicode="&#x201d;" horiz-adv-x="299" 
d="M115 644l34 0.000976562c0 -37.333 -8.83301 -71.333 -26.5 -102s-40.167 -53.334 -67.5 -68.001h-28c58.667 48 88 104.667 88 170zM220 644.001l34 0.000976562c0 -37.333 -8.83301 -71.333 -26.5 -102s-40.167 -53.334 -67.5 -68.001h-28c58.667 48 88 104.667 88 170
z" />
    <glyph glyph-name="quotedblbase" unicode="&#x201e;" horiz-adv-x="299" 
d="M85 45l34 0.000976562c0 -37.333 -8.83301 -71.333 -26.5 -102s-40.167 -53.334 -67.5 -68.001h-28c58.667 48 88 104.667 88 170zM190 45.001l34 0.000976562c0 -37.333 -8.83301 -71.333 -26.5 -102s-40.167 -53.334 -67.5 -68.001h-28c58.667 48 88 104.667 88 170z
" />
    <glyph glyph-name="dagger" unicode="&#x2020;" horiz-adv-x="240" 
d="M134 477v-199h-28v199h-86v29h86v88h28v-88h86v-29h-86z" />
    <glyph glyph-name="daggerdbl" unicode="&#x2021;" horiz-adv-x="240" 
d="M134 367v-89h-28v89h-86v28h86v82h-86v29h86v88h28v-88h86v-29h-86v-82h86v-28h-86z" />
    <glyph glyph-name="bullet" unicode="&#x2022;" horiz-adv-x="287" 
d="M70 262c0 20.667 7.16699 38 21.5 52s31.833 21 52.5 21s38 -7 52 -21s21 -31.333 21 -52s-7 -38.167 -21 -52.5s-31.333 -21.5 -52 -21.5s-38.167 7.16699 -52.5 21.5s-21.5 31.833 -21.5 52.5z" />
    <glyph glyph-name="ellipsis" unicode="&#x2026;" horiz-adv-x="588" 
d="M126 26c0 -8 -2.66699 -14.667 -8 -20s-12 -8 -20 -8s-14.667 2.66699 -20 8s-8 12 -8 20s2.66699 14.667 8 20s12 8 20 8s14.667 -2.66699 20 -8s8 -12 8 -20zM322 26c0 -8 -2.66699 -14.667 -8 -20s-12 -8 -20 -8s-14.667 2.66699 -20 8s-8 12 -8 20
s2.66699 14.667 8 20s12 8 20 8s14.667 -2.66699 20 -8s8 -12 8 -20zM518 26c0 -8 -2.66699 -14.667 -8 -20s-12 -8 -20 -8s-14.667 2.66699 -20 8s-8 12 -8 20s2.66699 14.667 8 20s12 8 20 8s14.667 -2.66699 20 -8s8 -12 8 -20z" />
    <glyph glyph-name="perthousand" unicode="&#x2030;" horiz-adv-x="919" 
d="M40 474c0 36.667 12.5 67.167 37.5 91.5s55.167 36.5 90.5 36.5s65.5 -12.167 90.5 -36.5s37.5 -54.833 37.5 -91.5s-12.5 -67.167 -37.5 -91.5s-55.167 -36.5 -90.5 -36.5s-65.5 12.167 -90.5 36.5s-37.5 54.833 -37.5 91.5zM71 474c0 -30 9.33301 -54.167 28 -72.5
s41.667 -27.5 69 -27.5c28 0 51.333 9.16699 70 27.5s28 42.5 28 72.5s-9.33301 54 -28 72s-42 27 -70 27s-51.167 -9 -69.5 -27s-27.5 -42 -27.5 -72zM579 120c0 -36.667 -12.5 -67 -37.5 -91s-55.5 -36 -91.5 -36c-35.333 0 -65.5 12 -90.5 36s-37.5 54.333 -37.5 91
c0 37.333 12.5 68.166 37.5 92.499s55.167 36.5 90.5 36.5c36 0 66.5 -12.167 91.5 -36.5s37.5 -55.166 37.5 -92.499zM548 120c0 30 -9.33301 54.167 -28 72.5s-42 27.5 -70 27.5c-27.333 0 -50.333 -9.16699 -69 -27.5s-28 -42.5 -28 -72.5
c0 -29.333 9.33301 -53.166 28 -71.499s41.667 -27.5 69 -27.5c28 0 51.333 9.16699 70 27.5s28 42.166 28 71.499zM879 120c0 -36.667 -12.5 -67 -37.5 -91s-55.5 -36 -91.5 -36c-35.333 0 -65.5 12 -90.5 36s-37.5 54.333 -37.5 91c0 37.333 12.5 68.166 37.5 92.499
s55.167 36.5 90.5 36.5c36 0 66.5 -12.167 91.5 -36.5s37.5 -55.166 37.5 -92.499zM848 120c0 30 -9.33301 54.167 -28 72.5s-42 27.5 -70 27.5c-27.333 0 -50.333 -9.16699 -69 -27.5s-28 -42.5 -28 -72.5c0 -29.333 9.33301 -53.166 28 -71.499s41.667 -27.5 69 -27.5
c28 0 51.333 9.16699 70 27.5s28 42.166 28 71.499zM507 595l-362 -595h-33l362 595h33z" />
    <glyph glyph-name="guilsinglleft" unicode="&#x2039;" horiz-adv-x="260" 
d="M210 373l-123 -158l123 -158h-37l-123 158l123 158h37z" />
    <glyph glyph-name="guilsinglright" unicode="&#x203a;" horiz-adv-x="260" 
d="M173 215l-123 158h37l123 -158l-123 -158h-37z" />
    <glyph glyph-name="fraction" unicode="&#x2044;" horiz-adv-x="189" 
d="M-90 0l337 595h32l-337 -595h-32z" />
    <glyph glyph-name="uni2070" unicode="&#x2070;" horiz-adv-x="286" 
d="M262 436c0 -47.333 -11.167 -86.167 -33.5 -116.5s-50.833 -45.5 -85.5 -45.5c-35.333 0 -64 15 -86 45s-33 69 -33 117s11 87 33 117s50.667 45 86 45s64 -15 86 -45s33 -69 33 -117zM232 435.999c0 40.667 -8.33301 73.5 -25 98.5s-38 37.5 -64 37.5
s-47.333 -12.333 -64 -37s-25 -57.667 -25 -99c0 -40.667 8.33301 -73.5 25 -98.5s38 -37.5 64 -37.5s47.333 12.5 64 37.5s25 57.833 25 98.5z" />
    <glyph glyph-name="uni2074" unicode="&#x2074;" horiz-adv-x="278" 
d="M207 596v-207h58v-24h-58v-87h-29v87h-163v25l161 206h31zM178 561l-133 -172h133v172z" />
    <glyph glyph-name="uni2075" unicode="&#x2075;" horiz-adv-x="215" 
d="M69 566l-6.99902 -92.999c88 -11.333 132 -47 132 -107c0 -26.667 -9.33301 -48.834 -28 -66.501s-45.334 -26.5 -80.001 -26.5c-28 0 -53 7.33301 -75 22v28c25.333 -16.667 50 -25 74 -25c26 0 45.833 6.16699 59.5 18.5s20.5 28.5 20.5 48.5
c0 48 -43.667 76.333 -131 85l10 144h142v-28h-117z" />
    <glyph glyph-name="uni2076" unicode="&#x2076;" horiz-adv-x="252" 
d="M124 595l32 -0.000976562l-68 -115l-19 -31c14.667 20 35.667 30 63 30c28 0 51.833 -9.16699 71.5 -27.5s29.5 -42.833 29.5 -73.5c0 -30 -10 -54.833 -30 -74.5s-45.667 -29.5 -77 -29.5c-32 0 -57.667 9.83301 -77 29.5s-29 44.5 -29 74.5
c0 28.667 11.333 61.334 34 98.001zM49 376.999c0 -22.667 7.5 -41.332 22.5 -55.999s33.167 -22 54.5 -22c22 0 40.5 7.16699 55.5 21.5s22.5 33.166 22.5 56.499c0 22.667 -7.5 41.167 -22.5 55.5s-33.5 21.5 -55.5 21.5s-40.333 -7.16699 -55 -21.5
s-22 -32.833 -22 -55.5z" />
    <glyph glyph-name="uni2077" unicode="&#x2077;" horiz-adv-x="212" 
d="M169 566h-166v28h197v-28l-136 -289h-31z" />
    <glyph glyph-name="uni2078" unicode="&#x2078;" horiz-adv-x="244" 
d="M122 274c-30 0 -54.6699 7.99902 -74.0029 23.999s-29 37.667 -29 65c0 21.333 6.66699 39.333 20 54s30 23.667 50 27c-16 4 -29 12.5 -39 25.5s-15 28.5 -15 46.5c0 25.333 8.33301 45.333 25 60s37.334 22 62.001 22s45.334 -7.33301 62.001 -22s25 -34.667 25 -60
c0 -18 -5.16699 -33.5 -15.5 -46.5s-23.166 -21.5 -38.499 -25.5c19.333 -4 35.666 -13.167 48.999 -27.5s20 -32.166 20 -53.499c0 -27.333 -9.66699 -49 -29 -65s-43.666 -24 -72.999 -24zM121.997 456.999c16.667 0 30.667 5.5 42 16.5s17 25.167 17 42.5
s-5.66699 31.166 -17 41.499s-25.333 15.5 -42 15.5s-30.834 -5.16699 -42.501 -15.5s-17.5 -24.166 -17.5 -41.499s5.83301 -31.5 17.5 -42.5s25.834 -16.5 42.501 -16.5zM121.997 298.999c20.667 0 37.834 5.83301 51.501 17.5s20.5 27.5 20.5 47.5s-6.83301 36 -20.5 48
s-30.834 18 -51.501 18s-38 -6 -52 -18s-21 -28 -21 -48s7 -35.833 21 -47.5s31.333 -17.5 52 -17.5z" />
    <glyph glyph-name="uni2079" unicode="&#x2079;" horiz-adv-x="252" 
d="M128 278l-32 -0.000976562l68 114l19 31c-14.667 -20 -35.667 -30 -63 -30c-28 0 -52 9.33301 -72 28s-30 43.334 -30 74.001c0 29.333 10 53.833 30 73.5s46 29.5 78 29.5c31.333 0 56.833 -9.83301 76.5 -29.5s29.5 -44.167 29.5 -73.5c0 -28 -11.667 -61.333 -35 -100
zM203 494.999c0 23.333 -7.5 42.166 -22.5 56.499s-33.5 21.5 -55.5 21.5s-40.333 -7.16699 -55 -21.5s-22 -33.166 -22 -56.499s7.33301 -42.166 22 -56.499s33 -21.5 55 -21.5s40.5 7.16699 55.5 21.5s22.5 33.166 22.5 56.499z" />
    <glyph glyph-name="uni2080" unicode="&#x2080;" horiz-adv-x="286" 
d="M262 158c0 -48 -11 -87 -33 -117s-50.667 -45 -86 -45s-64 15 -86 45s-33 69 -33 117s11 87 33 117s50.667 45 86 45s64 -15 86 -45s33 -69 33 -117zM232 158c0 40.667 -8.33301 73.5 -25 98.5s-38 37.5 -64 37.5s-47.333 -12.333 -64 -37s-25 -57.667 -25 -99
s8.33301 -74.333 25 -99s38 -37 64 -37s47.333 12.5 64 37.5s25 57.833 25 98.5z" />
    <glyph glyph-name="uni2081" unicode="&#x2081;" horiz-adv-x="158" 
d="M8 274v28l100 18v-320h-31v286z" />
    <glyph glyph-name="uni2082" unicode="&#x2082;" horiz-adv-x="224" 
d="M47 27l159.001 -0.000976562v-27h-200v23c105.333 79.333 158 147.333 158 204c0 19.333 -5.5 35 -16.5 47s-26.833 18 -47.5 18c-30 0 -58.333 -13.333 -85 -40v30c23.333 25.333 53.333 38 90 38c27.333 0 49.166 -8.16699 65.499 -24.5s24.5 -38.166 24.5 -65.499
c0 -32.667 -14.167 -67.167 -42.5 -103.5s-63.5 -69.5 -105.5 -99.5z" />
    <glyph glyph-name="uni2083" unicode="&#x2083;" horiz-adv-x="216" 
d="M15 256l-0.000976562 30.002c24 22.667 52.333 34 85 34c28.667 0 50.667 -7.33301 66 -22s23 -33.334 23 -56.001c0 -20.667 -7 -38.5 -21 -53.5s-31 -24.167 -51 -27.5c22 -2.66699 40.667 -11 56 -25s23 -32 23 -54c0 -26 -9.5 -46.833 -28.5 -62.5
s-44.833 -23.5 -77.5 -23.5c-33.333 0 -59.666 8 -78.999 24v28c22.667 -18 48.667 -27 78 -27c24 0 42.833 5.66699 56.5 17s20.5 26.666 20.5 45.999c0 39.333 -30 61 -90 65v23c25.333 2 45.333 9 60 21s22 27.333 22 46c0 16 -5.33301 29 -16 39s-25.667 15 -45 15
c-28.667 0 -56 -12.333 -82 -37z" />
    <glyph glyph-name="uni2084" unicode="&#x2084;" horiz-adv-x="278" 
d="M207 318v-207h58v-24h-58v-87h-29v87h-163v25l161 206h31zM178 283l-133 -172h133v172z" />
    <glyph glyph-name="uni2085" unicode="&#x2085;" horiz-adv-x="215" 
d="M69 289l-7 -94c88 -10 132 -45.667 132 -107c0 -26.667 -9.33301 -48.667 -28 -66s-45.334 -26 -80.001 -26c-28 0 -53 7.33301 -75 22v28c24.667 -16.667 49.334 -25 74.001 -25c26 0 45.833 6.16699 59.5 18.5s20.5 28.5 20.5 48.5c0 48 -43.667 76.333 -131 85l10 143
h142v-27h-117z" />
    <glyph glyph-name="uni2086" unicode="&#x2086;" horiz-adv-x="252" 
d="M124 316l32 0.000976562l-68 -114l-19 -31c14.667 20 35.667 30 63 30c28 0 51.833 -9.33301 71.5 -28s29.5 -43.334 29.5 -74.001c0 -29.333 -10 -53.833 -30 -73.5s-45.667 -29.5 -77 -29.5c-32 0 -57.667 9.83301 -77 29.5s-29 44.167 -29 73.5s11.333 62.333 34 99z
M49 99.001c0 -22.667 7.5 -41.332 22.5 -55.999s33.167 -22 54.5 -22c22 0 40.5 7.16699 55.5 21.5s22.5 33.166 22.5 56.499c0 22.667 -7.5 41.167 -22.5 55.5s-33.5 21.5 -55.5 21.5s-40.333 -7.16699 -55 -21.5s-22 -32.833 -22 -55.5z" />
    <glyph glyph-name="uni2087" unicode="&#x2087;" horiz-adv-x="212" 
d="M169 289h-166v27h197v-27l-136 -289h-31z" />
    <glyph glyph-name="uni2088" unicode="&#x2088;" horiz-adv-x="244" 
d="M122 -4c-30 0 -54.6699 8 -74.0029 24s-29 37.333 -29 64c0 21.333 6.66699 39.166 20 53.499s30 23.5 50 27.5c-16 4 -29 12.5 -39 25.5s-15 28.833 -15 47.5c0 25.333 8.33301 45.333 25 60s37.334 22 62.001 22s45.334 -7.33301 62.001 -22s25 -34.667 25 -60
c0 -18.667 -5.16699 -34.5 -15.5 -47.5s-23.166 -21.5 -38.499 -25.5c19.333 -4 35.666 -13.167 48.999 -27.5s20 -32.166 20 -53.499c0 -26.667 -9.66699 -48 -29 -64s-43.666 -24 -72.999 -24zM121.997 179c16.667 0 30.6689 5.33301 42.002 16s17 24.667 17 42
s-5.66699 31.333 -17 42s-25.333 16 -42 16s-30.834 -5.33301 -42.501 -16s-17.5 -24.667 -17.5 -42s5.66699 -31.333 17 -42s25.666 -16 42.999 -16zM121.999 21c20.667 0 37.834 5.66699 51.501 17s20.5 27 20.5 47c0 20.667 -6.83301 37 -20.5 49s-30.834 18 -51.501 18
s-38 -6 -52 -18s-21 -28.333 -21 -49c0 -20 7 -35.667 21 -47s31.333 -17 52 -17z" />
    <glyph glyph-name="uni2089" unicode="&#x2089;" horiz-adv-x="252" 
d="M128 -1h-32l68 115l19 31c-14.667 -20 -35.667 -30 -63 -30c-28 0 -52 9.16699 -72 27.5s-30 42.833 -30 73.5c0 30 10 54.833 30 74.5s46 29.5 78 29.5c31.333 0 56.833 -9.83301 76.5 -29.5s29.5 -44.5 29.5 -74.5c0 -27.333 -11.667 -60.333 -35 -99zM203 217
c0 23.333 -7.5 42.166 -22.5 56.499s-33.5 21.5 -55.5 21.5s-40.333 -7.16699 -55 -21.5s-22 -33.166 -22 -56.499s7.33301 -42.166 22 -56.499s33 -21.5 55 -21.5s40.5 7.16699 55.5 21.5s22.5 33.166 22.5 56.499z" />
    <glyph glyph-name="Euro" unicode="&#x20ac;" horiz-adv-x="488" 
d="M80 334h-60.0039v26h63c10 74 36.333 132.833 79 176.5s96.334 65.5 161.001 65.5c48.667 0 92.334 -14.333 131.001 -43v-37c-36 34 -79.667 51 -131 51c-55.333 0 -101.5 -19.167 -138.5 -57.5s-60.167 -90.166 -69.5 -155.499h217l-6 -26h-214
c-0.666992 -8 -1 -20.333 -1 -37c0 -14 0.333008 -24.333 1 -31h198l-7 -26h-188c8.66699 -66.667 31.834 -119.834 69.501 -159.501s83.834 -59.5 138.501 -59.5c53.333 0 97.333 17.333 132 52v-38c-38.667 -28.667 -82.667 -43 -132 -43c-66 0 -120.333 22.333 -163 67
s-68.667 105 -78 181h-62v26h60c-0.666992 6.66699 -1 17 -1 31c0 16.667 0.333008 29 1 37z" />
    <glyph glyph-name="uni2117" unicode="&#x2117;" horiz-adv-x="693" 
d="M45 297c0 86.667 28.667 159.167 86 217.5s129.333 87.5 216 87.5s158.5 -29.167 215.5 -87.5s85.5 -130.833 85.5 -217.5c0 -86 -28.5 -158.167 -85.5 -216.5s-128.833 -87.5 -215.5 -87.5s-158.667 29.167 -216 87.5s-86 130.5 -86 216.5zM68 297
c0 -81.333 26.333 -148.833 79 -202.5s119.334 -80.5 200.001 -80.5s147.334 26.833 200.001 80.5s79 121.167 79 202.5c0 82 -26.333 149.833 -79 203.5s-119.334 80.5 -200.001 80.5s-147.334 -26.833 -200.001 -80.5s-79 -121.5 -79 -203.5zM297 254v-137.999h-30v361
c29.333 4.66699 54.333 7 75 7c45.333 0 80 -10.333 104 -31s36 -49.334 36 -86.001c0 -38 -12.167 -67 -36.5 -87s-57.833 -30 -100.5 -30c-21.333 0 -37.333 1.33301 -48 4zM297 452.001l-0.000976562 -172c13.333 -2.66699 29 -4 47 -4c33.333 0 59.5 7.66699 78.5 23
s28.5 38 28.5 68c0 27.333 -9 48.833 -27 64.5s-45 23.5 -81 23.5c-19.333 0 -34.666 -1 -45.999 -3z" />
    <glyph glyph-name="trademark" unicode="&#x2122;" horiz-adv-x="613" 
d="M148 570v-244h-28v244h-90v24h208v-24h-90zM421 324h-27l-77 235l-39 -234h-27l45 269h34l78 -238l77 238h34l45 -269h-27l-39 234z" />
    <glyph glyph-name="uni2126" unicode="&#x2126;" horiz-adv-x="567" 
d="M339 0l-0.000976562 35c42 28 78.167 66 108.5 114s45.5 104 45.5 168c0 76 -19 138 -57 186s-89 72 -153 72c-63.333 0 -114 -24 -152 -72s-57 -110 -57 -186c0 -64 15.167 -120 45.5 -168s66.5 -86 108.5 -114v-35h-185v29h150c-38 25.333 -73 63 -105 113
s-48 108.333 -48 175c0 82 21.833 150 65.5 204s102.834 81 177.501 81c75.333 0 134.833 -27 178.5 -81s65.5 -122 65.5 -204c0 -66.667 -16 -125 -48 -175s-67 -87.667 -105 -113h150v-29h-185z" />
    <glyph glyph-name="uni2153" unicode="&#x2153;" horiz-adv-x="585" 
d="M40 552v28l100 18v-320h-31v286zM349 256l-0.000976562 30.002c24 22.667 52.333 34 85 34c28.667 0 50.667 -7.33301 66 -22s23 -33.334 23 -56.001c0 -20.667 -7 -38.5 -21 -53.5s-31 -24.167 -51 -27.5c22 -2.66699 40.667 -11 56 -25s23 -32 23 -54
c0 -26 -9.5 -46.833 -28.5 -62.5s-44.833 -23.5 -77.5 -23.5c-33.333 0 -59.666 8 -78.999 24v28c22.667 -18 48.667 -27 78 -27c24 0 42.833 5.66699 56.5 17s20.5 26.666 20.5 45.999c0 39.333 -30 61 -90 65v23c25.333 2 45.333 9 60 21s22 27.333 22 46
c0 16 -5.33301 29 -16 39s-25.667 15 -45 15c-28.667 0 -56 -12.333 -82 -37zM74.999 0.00195312l337 595h32l-337 -595h-32z" />
    <glyph glyph-name="uni2154" unicode="&#x2154;" horiz-adv-x="688" 
d="M91 305l159.001 -0.000976562v-27h-200v23c105.333 79.333 158 147.333 158 204c0 20 -5.5 35.833 -16.5 47.5s-26.833 17.5 -47.5 17.5c-30 0 -58.333 -13.333 -85 -40v30c23.333 25.333 53.333 38 90 38c27.333 0 49.166 -8 65.499 -24s24.5 -37.667 24.5 -65
c0 -33.333 -14 -68.166 -42 -104.499s-63.333 -69.5 -106 -99.5zM452.001 255.999l-0.000976562 30.002c24 22.667 52.333 34 85 34c28.667 0 50.667 -7.33301 66 -22s23 -33.334 23 -56.001c0 -20.667 -7 -38.5 -21 -53.5s-31 -24.167 -51 -27.5
c22 -2.66699 40.667 -11 56 -25s23 -32 23 -54c0 -26 -9.5 -46.833 -28.5 -62.5s-44.833 -23.5 -77.5 -23.5c-33.333 0 -59.666 8 -78.999 24v28c22.667 -18 48.667 -27 78 -27c24 0 42.833 5.66699 56.5 17s20.5 26.666 20.5 45.999c0 39.333 -30 61 -90 65v23
c25.333 2 45.333 9 60 21s22 27.333 22 46c0 16 -5.33301 29 -16 39s-25.667 15 -45 15c-28.667 0 -56 -12.333 -82 -37zM178 0.000976562l337 595h32l-337 -595h-32z" />
    <glyph glyph-name="uni215B" unicode="&#x215b;" horiz-adv-x="588" 
d="M40 552v28l100 18v-320h-31v286zM436 -4c-30 0 -54.6699 8 -74.0029 24s-29 37.333 -29 64c0 21.333 6.66699 39.166 20 53.499s30 23.5 50 27.5c-16 4 -29 12.5 -39 25.5s-15 28.833 -15 47.5c0 25.333 8.33301 45.333 25 60s37.334 22 62.001 22
s45.334 -7.33301 62.001 -22s25 -34.667 25 -60c0 -18.667 -5.16699 -34.5 -15.5 -47.5s-23.166 -21.5 -38.499 -25.5c19.333 -4 35.666 -13.167 48.999 -27.5s20 -32.166 20 -53.499c0 -26.667 -9.66699 -48 -29 -64s-43.666 -24 -72.999 -24zM435.997 179
c16.667 0 30.6689 5.33301 42.002 16s17 24.667 17 42s-5.66699 31.333 -17 42s-25.333 16 -42 16s-30.834 -5.33301 -42.501 -16s-17.5 -24.667 -17.5 -42s5.66699 -31.333 17 -42s25.666 -16 42.999 -16zM435.999 21c20.667 0 37.834 5.66699 51.501 17s20.5 27 20.5 47
c0 20.667 -6.83301 37 -20.5 49s-30.834 18 -51.501 18s-38 -6 -52 -18s-21 -28.333 -21 -49c0 -20 7 -35.667 21 -47s31.333 -17 52 -17zM74.999 0l337 595h32l-337 -595h-32z" />
    <glyph glyph-name="uni215C" unicode="&#x215c;" horiz-adv-x="643" 
d="M54 534v30.002c24 22.667 52.333 34 85 34c28.667 0 50.667 -7.16699 66 -21.5s23 -33.166 23 -56.499c0 -20.667 -6.83301 -38.334 -20.5 -53.001s-30.834 -23.667 -51.501 -27c22 -2.66699 40.667 -11 56 -25s23 -32 23 -54c0 -26 -9.5 -47 -28.5 -63
s-44.833 -24 -77.5 -24c-33.333 0 -59.666 8 -78.999 24v28c22.667 -18 48.667 -27 78 -27c24 0 42.833 5.66699 56.5 17s20.5 26.666 20.5 45.999c0 39.333 -30 61 -90 65v24c25.333 1.33301 45.333 8.16602 60 20.499s22 27.833 22 46.5c0 16 -5.33301 28.833 -16 38.5
s-25.667 14.5 -45 14.5c-28.667 0 -56 -12.333 -82 -37zM491 -3.99805c-30 0 -54.6699 8 -74.0029 24s-29 37.333 -29 64c0 21.333 6.66699 39.166 20 53.499s30 23.5 50 27.5c-16 4 -29 12.5 -39 25.5s-15 28.833 -15 47.5c0 25.333 8.33301 45.333 25 60
s37.334 22 62.001 22s45.334 -7.33301 62.001 -22s25 -34.667 25 -60c0 -18.667 -5.16699 -34.5 -15.5 -47.5s-23.166 -21.5 -38.499 -25.5c19.333 -4 35.666 -13.167 48.999 -27.5s20 -32.166 20 -53.499c0 -26.667 -9.66699 -48 -29 -64s-43.666 -24 -72.999 -24z
M490.997 179.002c16.667 0 30.6689 5.33301 42.002 16s17 24.667 17 42s-5.66699 31.333 -17 42s-25.333 16 -42 16s-30.834 -5.33301 -42.501 -16s-17.5 -24.667 -17.5 -42s5.66699 -31.333 17 -42s25.666 -16 42.999 -16zM490.999 21.002
c20.667 0 37.834 5.66699 51.501 17s20.5 27 20.5 47c0 20.667 -6.83301 37 -20.5 49s-30.834 18 -51.501 18s-38 -6 -52 -18s-21 -28.333 -21 -49c0 -20 7 -35.667 21 -47s31.333 -17 52 -17zM129.999 0.00195312l337 595h32l-337 -595h-32z" />
    <glyph glyph-name="uni215D" unicode="&#x215d;" horiz-adv-x="647" 
d="M108 566l-6.99902 -92.999c88 -11.333 132 -47 132 -107c0 -26.667 -9.33301 -48.834 -28 -66.501s-45.334 -26.5 -80.001 -26.5c-28 0 -53 7.33301 -75 22v28c25.333 -16.667 50 -25 74 -25c26 0 45.833 6.16699 59.5 18.5s20.5 28.5 20.5 48.5
c0 48 -43.667 76.333 -131 85l10 144h142v-28h-117zM495.001 -3.99902c-30 0 -54.6699 8 -74.0029 24s-29 37.333 -29 64c0 21.333 6.66699 39.166 20 53.499s30 23.5 50 27.5c-16 4 -29 12.5 -39 25.5s-15 28.833 -15 47.5c0 25.333 8.33301 45.333 25 60
s37.334 22 62.001 22s45.334 -7.33301 62.001 -22s25 -34.667 25 -60c0 -18.667 -5.16699 -34.5 -15.5 -47.5s-23.166 -21.5 -38.499 -25.5c19.333 -4 35.666 -13.167 48.999 -27.5s20 -32.166 20 -53.499c0 -26.667 -9.66699 -48 -29 -64s-43.666 -24 -72.999 -24z
M494.998 179.001c16.667 0 30.6689 5.33301 42.002 16s17 24.667 17 42s-5.66699 31.333 -17 42s-25.333 16 -42 16s-30.834 -5.33301 -42.501 -16s-17.5 -24.667 -17.5 -42s5.66699 -31.333 17 -42s25.666 -16 42.999 -16zM495 21.001c20.667 0 37.834 5.66699 51.501 17
s20.5 27 20.5 47c0 20.667 -6.83301 37 -20.5 49s-30.834 18 -51.501 18s-38 -6 -52 -18s-21 -28.333 -21 -49c0 -20 7 -35.667 21 -47s31.333 -17 52 -17zM134 0.000976562l337 595h32l-337 -595h-32z" />
    <glyph glyph-name="uni215E" unicode="&#x215e;" horiz-adv-x="588" 
d="M201 566h-166v28h197v-28l-136 -289h-31zM436 -4c-30 0 -54.6699 8 -74.0029 24s-29 37.333 -29 64c0 21.333 6.66699 39.166 20 53.499s30 23.5 50 27.5c-16 4 -29 12.5 -39 25.5s-15 28.833 -15 47.5c0 25.333 8.33301 45.333 25 60s37.334 22 62.001 22
s45.334 -7.33301 62.001 -22s25 -34.667 25 -60c0 -18.667 -5.16699 -34.5 -15.5 -47.5s-23.166 -21.5 -38.499 -25.5c19.333 -4 35.666 -13.167 48.999 -27.5s20 -32.166 20 -53.499c0 -26.667 -9.66699 -48 -29 -64s-43.666 -24 -72.999 -24zM435.997 179
c16.667 0 30.6689 5.33301 42.002 16s17 24.667 17 42s-5.66699 31.333 -17 42s-25.333 16 -42 16s-30.834 -5.33301 -42.501 -16s-17.5 -24.667 -17.5 -42s5.66699 -31.333 17 -42s25.666 -16 42.999 -16zM435.999 21c20.667 0 37.834 5.66699 51.501 17s20.5 27 20.5 47
c0 20.667 -6.83301 37 -20.5 49s-30.834 18 -51.501 18s-38 -6 -52 -18s-21 -28.333 -21 -49c0 -20 7 -35.667 21 -47s31.333 -17 52 -17zM74.999 0l337 595h32l-337 -595h-32z" />
    <glyph glyph-name="partialdiff" unicode="&#x2202;" horiz-adv-x="515" 
d="M159 680l44 0.000976562c177.333 -136.667 266 -289.334 266 -458.001c0 -68 -19.667 -123.333 -59 -166s-90 -64 -152 -64c-61.333 0 -112 21 -152 63s-60 96 -60 162c0 66.667 19.833 121.167 59.5 163.5s90.5 63.5 152.5 63.5c78 0 133.667 -35 167 -105
c-14.667 54.667 -44.5 111.5 -89.5 170.5s-103.833 115.833 -176.5 170.5zM436 217.001c0 58 -16.5 105.501 -49.5 142.501s-75.833 55.5 -128.5 55.5c-52 0 -94.667 -18.333 -128 -55s-50 -84.334 -50 -143.001c0 -58 16.667 -105.167 50 -141.5s76 -54.5 128 -54.5
s94.667 18.167 128 54.5s50 83.5 50 141.5z" />
    <glyph glyph-name="Delta" unicode="&#x2206;" horiz-adv-x="563" 
d="M550 0h-537l246 597h43zM59 29h444l-222 540z" />
    <glyph glyph-name="product" unicode="&#x220f;" horiz-adv-x="565" 
d="M484 -180h-32v743h-339v-743h-32v774h403v-774z" />
    <glyph glyph-name="summation" unicode="&#x2211;" horiz-adv-x="411" 
d="M247 208l-217 358v28h351v-28h-316l220 -358l-220 -361h316v-27h-351v27z" />
    <glyph glyph-name="minus" unicode="&#x2212;" horiz-adv-x="435" 
d="M40 278v29h355v-29h-355z" />
    <glyph glyph-name="radical" unicode="&#x221a;" horiz-adv-x="484" 
d="M426 595h33l-185 -595h-38l-118 343h-82v32h106l112 -338z" />
    <glyph glyph-name="infinity" unicode="&#x221e;" horiz-adv-x="657" 
d="M328 264l-44 -50c-36 -39.333 -75.333 -59 -118 -59c-35.333 0 -65.166 12 -89.499 36s-36.5 56 -36.5 96s12.167 71.833 36.5 95.5s54.166 35.5 89.499 35.5c42.667 0 82 -19.667 118 -59l44 -50l45 50c36 39.333 75.333 59 118 59
c35.333 0 65.166 -11.833 89.499 -35.5s36.5 -55.5 36.5 -95.5s-12.167 -72 -36.5 -96s-54.166 -36 -89.499 -36c-44 0 -83.333 19.667 -118 59zM309 287l-48 53.001c-29.333 32.667 -60.666 49 -93.999 49c-26.667 0 -49.167 -9.33301 -67.5 -28
s-27.5 -43.334 -27.5 -74.001c0 -31.333 9.16699 -56.333 27.5 -75s40.833 -28 67.5 -28c33.333 0 64.666 16.333 93.999 49zM395 340.001l-48.001 -53.001l48 -54c28.667 -32.667 60.334 -49 95.001 -49c26.667 0 49.167 9.33301 67.5 28s27.5 43.667 27.5 75
c0 30.667 -9.16699 55.334 -27.5 74.001s-40.833 28 -67.5 28c-34 0 -65.667 -16.333 -95 -49z" />
    <glyph glyph-name="integral" unicode="&#x222b;" horiz-adv-x="283" 
d="M105 -81v581c0 33.333 7.83301 58.666 23.5 75.999s38.167 26 67.5 26c26.667 0 49 -8.33301 67 -25v-31c-19.333 18 -41.666 27 -66.999 27c-38.667 0 -58 -25 -58 -75v-581c0 -33.333 -7.83301 -58.666 -23.5 -75.999s-38.167 -26 -67.5 -26
c-26.667 0 -49 8.33301 -67 25v31c19.333 -18 41.666 -27 66.999 -27c38.667 0 58 25 58 75z" />
    <glyph glyph-name="approxequal" unicode="&#x2248;" horiz-adv-x="440" 
d="M42 299l-0.00390625 36c31.333 32 63 48 95 48c20.667 0 48.334 -8.5 83.001 -25.5s61.334 -25.5 80.001 -25.5c32.667 0 65.334 17.333 98.001 52v-36c-31.333 -32 -64 -48 -98 -48c-20.667 0 -48.167 8.5 -82.5 25.5s-61.166 25.5 -80.499 25.5
c-29.333 0 -61 -17.333 -95 -52zM41.9961 201l-0.00390625 36c31.333 32 63 48 95 48c20.667 0 48.334 -8.5 83.001 -25.5s61.334 -25.5 80.001 -25.5c32.667 0 65.334 17.333 98.001 52v-36c-31.333 -32 -64 -48 -98 -48c-20.667 0 -48.167 8.5 -82.5 25.5
s-61.166 25.5 -80.499 25.5c-29.333 0 -61 -17.333 -95 -52z" />
    <glyph glyph-name="notequal" unicode="&#x2260;" horiz-adv-x="440" 
d="M143 220h-101v28h124l74 91h-198v28h220l71 87h35l-71 -87h101v-28h-123l-74 -91h197v-28h-220l-71 -88h-35z" />
    <glyph glyph-name="lessequal" unicode="&#x2264;" horiz-adv-x="319" 
d="M24 319v4l259 122v-33l-199 -91l199 -91v-33zM24 126v29h259v-29h-259z" />
    <glyph glyph-name="greaterequal" unicode="&#x2265;" horiz-adv-x="319" 
d="M295 323v-4l-259 -122v33l199 91l-199 91v33zM295 155v-29h-259v29h259z" />
    <glyph glyph-name="dotmath" unicode="&#x22c5;" horiz-adv-x="196" 
d="M70 261c0 8 2.66699 14.667 8 20s12 8 20 8s14.667 -2.66699 20 -8s8 -12 8 -20s-2.66699 -14.667 -8 -20s-12 -8 -20 -8s-14.667 2.66699 -20 8s-8 12 -8 20z" />
    <glyph glyph-name="lozenge" unicode="&#x25ca;" horiz-adv-x="450" 
d="M36 297l171 297h36l171 -297l-171 -297h-36zM380 297l-155 272l-155 -272l155 -272z" />
    <glyph glyph-name=".null" horiz-adv-x="0" 
 />
    <glyph glyph-name="nonmarkingreturn" horiz-adv-x="333" 
 />
    <glyph glyph-name="space_uni0326" horiz-adv-x="500" 
d="M272 -46l34 -0.000976562c0 -54 -23 -96 -69 -126h-26c22.667 18.667 38.5 37.334 47.5 56.001s13.5 42 13.5 70z" />
    <glyph glyph-name="zero.op" horiz-adv-x="552" 
d="M45 225c0 68 22 123.833 66 167.5s99 65.5 165 65.5s121 -21.833 165 -65.5s66 -99.5 66 -167.5s-22 -123.833 -66 -167.5s-99 -65.5 -165 -65.5s-121 21.833 -165 65.5s-66 99.5 -66 167.5zM79 225c0 -60.667 18.667 -109.834 56 -147.501s84.333 -56.5 141 -56.5
s103.667 18.833 141 56.5s56 86.834 56 147.501s-18.667 109.834 -56 147.501s-84.333 56.5 -141 56.5s-103.667 -18.833 -141 -56.5s-56 -86.834 -56 -147.501z" />
    <glyph glyph-name="one.op" horiz-adv-x="278" 
d="M19 399v28l162 30v-457h-33v421z" />
    <glyph glyph-name="two.op" horiz-adv-x="381" 
d="M76 30l283 -0.000976562v-30h-331v27c93.333 59.333 162.166 112 206.499 158s66.5 91.667 66.5 137c0 33.333 -10 59.5 -30 78.5s-46.667 28.5 -80 28.5c-56 0 -106 -30.333 -150 -91v41c16 24 37.333 43.167 64 57.5s55.334 21.5 86.001 21.5
c44 0 79 -12.167 105 -36.5s39 -57.5 39 -99.5c0 -91.333 -86.333 -188.666 -259 -291.999z" />
    <glyph glyph-name="three.op" horiz-adv-x="385" 
d="M27 345l-0.000976562 36.998c16 22 37.5 40.167 64.5 54.5s57.167 21.5 90.5 21.5c46 0 82.667 -13 110 -39s41 -59.333 41 -100c0 -39.333 -13.833 -73 -41.5 -101s-63.167 -47.333 -106.5 -58c44.667 -4.66699 83 -20.5 115 -47.5s48 -61.833 48 -104.5
c0 -48.667 -16.5 -87.5 -49.5 -116.5s-77.167 -43.5 -132.5 -43.5c-28 0 -55.667 5.16699 -83 15.5s-48.333 22.833 -63 37.5v35c44.667 -39.333 93.334 -59 146.001 -59c46 0 82.167 11.833 108.5 35.5s39.5 55.5 39.5 95.5c0 75.333 -59.667 121.333 -179 138v22
c56 14.667 97.333 33.834 124 57.501s40 54.834 40 93.501c0 32.667 -11 59.167 -33 79.5s-50 30.5 -84 30.5c-60 0 -111.667 -28 -155 -84z" />
    <glyph glyph-name="four.op" horiz-adv-x="467" 
d="M354 451v-391h103v-27h-103v-176h-32v176h-311v23l301 395h42zM322 419l-271 -359h271v359z" />
    <glyph glyph-name="five.op" horiz-adv-x="366" 
d="M113 420l-13.999 -198.999c75.333 -8.66699 136 -29.167 182 -61.5s69 -78.5 69 -138.5c0 -50.667 -16.667 -92.167 -50 -124.5s-80.333 -48.5 -141 -48.5c-56.667 0 -102.334 15.333 -137.001 46v35c42 -34.667 87.667 -52 137 -52c48.667 0 87 13 115 39s42 61 42 105
c0 54 -21.5 94.167 -64.5 120.5s-104.5 44.166 -184.5 53.499l18 255h250v-30h-222z" />
    <glyph glyph-name="six.op" horiz-adv-x="480" 
d="M261 594l37.001 -0.000976562l-154 -232l-42 -65c16 20.667 36.5 37.667 61.5 51s51.167 20 78.5 20c56 0 102.167 -16.833 138.5 -50.5s54.5 -79.167 54.5 -136.5c0 -52 -17.167 -96.5 -51.5 -133.5s-81.5 -55.5 -141.5 -55.5c-58.667 0 -105.334 18.5 -140.001 55.5
s-52 81.5 -52 133.5c0 60.667 20.667 122.334 62 185.001zM82.001 180.999c0 -48 15.167 -86.667 45.5 -116s68.5 -44 114.5 -44s84.167 14.667 114.5 44s45.5 68 45.5 116c0 47.333 -15.167 85.5 -45.5 114.5s-68.5 43.5 -114.5 43.5c-45.333 0 -83.333 -14.5 -114 -43.5
s-46 -67.167 -46 -114.5z" />
    <glyph glyph-name="seven.op" horiz-adv-x="393" 
d="M330 420h-316v30h351v-28l-269 -566h-35z" />
    <glyph glyph-name="eight.op" horiz-adv-x="474" 
d="M237 -8c-56 0 -101.998 14.833 -137.998 44.5s-54 70.834 -54 123.501c0 41.333 13 76 39 104s57.667 45.333 95 52c-28.667 8.66699 -52.667 24.167 -72 46.5s-29 51.5 -29 87.5c0 46 15.167 82.833 45.5 110.5s68.166 41.5 113.499 41.5s83.166 -13.833 113.499 -41.5
s45.5 -64.5 45.5 -110.5c0 -36 -9.66699 -65.167 -29 -87.5s-43.333 -37.833 -72 -46.5c37.333 -6.66699 69 -24 95 -52s39 -62.667 39 -104c0 -52.667 -18 -93.834 -54 -123.501s-82 -44.5 -138 -44.5zM237.002 328c35.333 0 65.166 11 89.499 33s36.5 51.667 36.5 89
c0 38 -12.167 68.167 -36.5 90.5s-54.166 33.5 -89.499 33.5s-65.166 -11.167 -89.499 -33.5s-36.5 -52.5 -36.5 -90.5c0 -37.333 12.167 -67 36.5 -89s54.166 -33 89.499 -33zM237.002 20c45.333 0 83 12.167 113 36.5s45 58.833 45 103.5c0 45.333 -15.167 80 -45.5 104
s-67.833 36 -112.5 36s-82.167 -12 -112.5 -36s-45.5 -58.667 -45.5 -104c0 -44.667 15 -79.167 45 -103.5s67.667 -36.5 113 -36.5z" />
    <glyph glyph-name="nine.op" horiz-adv-x="480" 
d="M219 -144l-37.001 0.000976562l154 232l42 65c-16 -20.667 -36.5 -37.667 -61.5 -51s-51.167 -20 -78.5 -20c-56 0 -102.167 16.833 -138.5 50.5s-54.5 79.167 -54.5 136.5c0 52 17.167 96.5 51.5 133.5s81.5 55.5 141.5 55.5c58.667 0 105.334 -18.5 140.001 -55.5
s52 -81.5 52 -133.5c0 -60.667 -20.667 -122.334 -62 -185.001zM397.999 269.001c0 48 -15.167 86.667 -45.5 116s-68.5 44 -114.5 44s-84.167 -14.667 -114.5 -44s-45.5 -68 -45.5 -116c0 -47.333 15.167 -85.5 45.5 -114.5s68.5 -43.5 114.5 -43.5
c45.333 0 83.333 14.5 114 43.5s46 67.167 46 114.5z" />
    <glyph glyph-name="commaturn" horiz-adv-x="500" 
d="M240 513h-33c0 60 25 106.333 75 139h26c-45.333 -38 -68 -84.333 -68 -139z" />
    <glyph glyph-name="registered.cap" horiz-adv-x="693" 
d="M45 297c0 86.667 28.667 159.167 86 217.5s129.333 87.5 216 87.5s158.5 -29.167 215.5 -87.5s85.5 -130.833 85.5 -217.5c0 -86 -28.5 -158.167 -85.5 -216.5s-128.833 -87.5 -215.5 -87.5s-158.667 29.167 -216 87.5s-86 130.5 -86 216.5zM68 297
c0 -81.333 26.333 -148.833 79 -202.5s119.334 -80.5 200.001 -80.5s147.334 26.833 200.001 80.5s79 121.167 79 202.5c0 82 -26.333 149.833 -79 203.5s-119.334 80.5 -200.001 80.5s-147.334 -26.833 -200.001 -80.5s-79 -121.5 -79 -203.5zM283 260v-142.001h-30v359
c21.333 4.66699 46 7 74 7c44 0 78 -9.66699 102 -29s36 -47.333 36 -84c0 -29.333 -9 -53.166 -27 -71.499s-41.667 -29.5 -71 -33.5l130 -148h-36l-124 142h-54zM283 451.999l0.000976562 -166h50c30 0 54.167 7.16699 72.5 21.5s27.5 35.5 27.5 63.5
c0 26.667 -8.83301 47.5 -26.5 62.5s-43.834 22.5 -78.501 22.5c-14 0 -29 -1.33301 -45 -4z" />
    <glyph glyph-name="plus.op" horiz-adv-x="435" 
d="M203 218h-163v29h163v163h29v-163h163v-29h-163v-163h-29v163z" />
    <glyph glyph-name="minus.op" horiz-adv-x="435" 
d="M40 218v29h355v-29h-355z" />
    <glyph glyph-name="multiply.op" horiz-adv-x="362" 
d="M161 231l-121 122l21 20l120 -122l120 122l21 -20l-120 -122l120 -122l-21 -20l-120 121l-120 -121l-21 20z" />
    <glyph glyph-name="divide.op" horiz-adv-x="435" 
d="M40 218v29h355v-29h-355zM188 83c0 8.66699 2.83301 15.834 8.5 21.501s12.5 8.5 20.5 8.5c8.66699 0 15.834 -2.83301 21.501 -8.5s8.5 -12.834 8.5 -21.501c0 -8 -2.83301 -14.833 -8.5 -20.5s-12.834 -8.5 -21.501 -8.5c-8 0 -14.833 2.83301 -20.5 8.5
s-8.5 12.5 -8.5 20.5zM188 383c0 8 2.83301 14.833 8.5 20.5s12.5 8.5 20.5 8.5c8.66699 0 15.834 -2.83301 21.501 -8.5s8.5 -12.5 8.5 -20.5c0 -8.66699 -2.83301 -15.834 -8.5 -21.501s-12.834 -8.5 -21.501 -8.5c-8 0 -14.833 2.83301 -20.5 8.5
s-8.5 12.834 -8.5 21.501z" />
    <glyph glyph-name="equal.op" horiz-adv-x="440" 
d="M42 159v29h356v-29h-356zM42 279v29h356v-29h-356z" />
    <glyph glyph-name="less.op" horiz-adv-x="319" 
d="M25 229v4l259 159v-35l-208 -126l208 -126v-35z" />
    <glyph glyph-name="greater.op" horiz-adv-x="319" 
d="M294 233v-4l-259 -159v35l208 126l-208 126v35z" />
    <glyph glyph-name="zero_slash.lt" 
d="M260 -8c-65.333 0 -117.833 28 -157.5 84s-59.5 129.667 -59.5 221s19.833 165 59.5 221s92.167 84 157.5 84s117.833 -28 157.5 -84s59.5 -129.667 59.5 -221s-19.833 -165 -59.5 -221s-92.167 -84 -157.5 -84zM149 68l200.001 476
c-26.667 19.333 -56.334 29 -89.001 29c-54.667 0 -99 -25 -133 -75s-51 -117 -51 -201c0 -104 24.333 -180.333 73 -229zM370.001 526l-200 -476c26.667 -19.333 56.667 -29 90 -29c54.667 0 99 25 133 75s51 117 51 201c0 102 -24.667 178.333 -74 229z" />
    <glyph glyph-name="zero.lt" 
d="M43 297c0 91.333 19.833 165 59.5 221s92.167 84 157.5 84s117.833 -28 157.5 -84s59.5 -129.667 59.5 -221s-19.833 -165 -59.5 -221s-92.167 -84 -157.5 -84s-117.833 28 -157.5 84s-59.5 129.667 -59.5 221zM76 297c0 -84 17 -151 51 -201s78.333 -75 133 -75
s99 25 133 75s51 117 51 201s-17 151 -51 201s-78.333 75 -133 75s-99 -25 -133 -75s-51 -117 -51 -201z" />
    <glyph glyph-name="one.lt" 
d="M109 530v30l214 42v-602h-33v565z" />
    <glyph glyph-name="two.lt" 
d="M119 29h317v-29h-365v24c47.333 40 87 74.833 119 104.5s64.833 63.167 98.5 100.5s58.834 73.5 75.501 108.5s25 68.5 25 100.5c0 43.333 -11.333 76.5 -34 99.5s-54 34.5 -94 34.5c-62.667 0 -117.334 -30 -164.001 -90v39c18 23.333 41.333 42.666 70 57.999
s60 23 94 23c48.667 0 87.667 -13.833 117 -41.5s44 -68.5 44 -122.5c0 -111.333 -101 -247.666 -303 -408.999z" />
    <glyph glyph-name="three.lt" 
d="M99 489l-0.000976562 36.998c16 22 37.5 40.167 64.5 54.5s57.167 21.5 90.5 21.5c46 0 82.667 -13 110 -39s41 -59.333 41 -100c0 -39.333 -13.833 -73 -41.5 -101s-63.167 -47.333 -106.5 -58c44.667 -4.66699 83 -20.5 115 -47.5s48 -61.833 48 -104.5
c0 -48.667 -16.5 -87.5 -49.5 -116.5s-77.167 -43.5 -132.5 -43.5c-28 0 -55.667 5.16699 -83 15.5s-48.333 22.833 -63 37.5v35c44.667 -39.333 93.334 -59 146.001 -59c46 0 82.167 11.833 108.5 35.5s39.5 55.5 39.5 95.5c0 75.333 -59.667 121.333 -179 138v22
c56 14.667 97.333 33.834 124 57.501s40 54.834 40 93.501c0 32.667 -11 59.167 -33 79.5s-50 30.5 -84 30.5c-60 0 -111.667 -28 -155 -84z" />
    <glyph glyph-name="four.lt" 
d="M380 594v-391h93v-27h-93v-176h-32v176h-311v23l301 395h42zM348 562l-271 -359h271v359z" />
    <glyph glyph-name="five.lt" 
d="M182 564l-13.999 -198.999c75.333 -8.66699 136 -29.167 182 -61.5s69 -78.5 69 -138.5c0 -50.667 -16.667 -92.167 -50 -124.5s-80.333 -48.5 -141 -48.5c-56.667 0 -102.334 15.333 -137.001 46v35c42 -34.667 87.667 -52 137 -52c48.667 0 87 13 115 39s42 61 42 105
c0 54 -21.5 94.167 -64.5 120.5s-104.5 44.166 -184.5 53.499l18 255h250v-30h-222z" />
    <glyph glyph-name="six.lt" 
d="M278 594l37.001 -0.000976562l-154 -232l-42 -65c16 20.667 36.5 37.667 61.5 51s51.167 20 78.5 20c56 0 102.167 -16.833 138.5 -50.5s54.5 -79.167 54.5 -136.5c0 -52 -17.167 -96.5 -51.5 -133.5s-81.5 -55.5 -141.5 -55.5c-58.667 0 -105.334 18.5 -140.001 55.5
s-52 81.5 -52 133.5c0 60.667 20.667 122.334 62 185.001zM99.001 180.999c0 -48 15.167 -86.833 45.5 -116.5s68.5 -44.5 114.5 -44.5s84.167 14.833 114.5 44.5s45.5 68.5 45.5 116.5c0 47.333 -15.167 85.5 -45.5 114.5s-68.5 43.5 -114.5 43.5
c-45.333 0 -83.333 -14.5 -114 -43.5s-46 -67.167 -46 -114.5z" />
    <glyph glyph-name="seven.lt" 
d="M410 564h-346v30h381v-28l-269 -566h-35z" />
    <glyph glyph-name="eight.lt" 
d="M260 -8c-56 0 -101.998 14.833 -137.998 44.5s-54 70.834 -54 123.501c0 41.333 13 76 39 104s57.667 45.333 95 52c-28.667 8.66699 -52.667 24.167 -72 46.5s-29 51.5 -29 87.5c0 46 15.167 82.833 45.5 110.5s68.166 41.5 113.499 41.5s83.166 -13.833 113.499 -41.5
s45.5 -64.5 45.5 -110.5c0 -36 -9.66699 -65.167 -29 -87.5s-43.333 -37.833 -72 -46.5c37.333 -6.66699 69 -24 95 -52s39 -62.667 39 -104c0 -52.667 -18 -93.834 -54 -123.501s-82 -44.5 -138 -44.5zM260.002 328c35.333 0 65.166 11 89.499 33s36.5 51.667 36.5 89
c0 38 -12.167 68.167 -36.5 90.5s-54.166 33.5 -89.499 33.5s-65.166 -11.167 -89.499 -33.5s-36.5 -52.5 -36.5 -90.5c0 -37.333 12.167 -67 36.5 -89s54.166 -33 89.499 -33zM260.002 20c45.333 0 83 12.167 113 36.5s45 58.833 45 103.5c0 45.333 -15.167 80 -45.5 104
s-67.833 36 -112.5 36s-82.167 -12 -112.5 -36s-45.5 -58.667 -45.5 -104c0 -44.667 15 -79.167 45 -103.5s67.667 -36.5 113 -36.5z" />
    <glyph glyph-name="nine.lt" 
d="M241 0l-37.001 0.000976562l154 232l42 65c-16 -20.667 -36.5 -37.667 -61.5 -51s-51.167 -20 -78.5 -20c-56 0 -102.167 16.833 -138.5 50.5s-54.5 79.167 -54.5 136.5c0 52 17.167 96.5 51.5 133.5s81.5 55.5 141.5 55.5c58.667 0 105.334 -18.5 140.001 -55.5
s52 -81.5 52 -133.5c0 -60.667 -20.667 -122.334 -62 -185.001zM419.999 413.001c0 48 -15.167 86.833 -45.5 116.5s-68.5 44.5 -114.5 44.5s-84.167 -14.833 -114.5 -44.5s-45.5 -68.5 -45.5 -116.5c0 -47.333 15.167 -85.5 45.5 -114.5s68.5 -43.5 114.5 -43.5
c45.333 0 83.333 14.5 114 43.5s46 67.167 46 114.5z" />
    <glyph glyph-name="zero_slash.ot" 
d="M39 225c0 68 21 123.833 63 167.5s94.667 65.5 158 65.5s116 -21.833 158 -65.5s63 -99.5 63 -167.5s-21 -123.833 -63 -167.5s-94.667 -65.5 -158 -65.5s-116 21.833 -158 65.5s-63 99.5 -63 167.5zM368 395l-195 -353.002c26 -14 55 -21 87 -21
c54 0 98.667 18.833 134 56.5s53 86.834 53 147.501c0 74.667 -26.333 131.334 -79 170.001zM150 55.998l194.999 353.001c-25.333 13.333 -53.666 20 -84.999 20c-54 0 -98.667 -18.833 -134 -56.5s-53 -86.834 -53 -147.501c0 -74.667 25.667 -131 77 -169z" />
    <glyph glyph-name="zero.ot" 
d="M39 225c0 68 21 123.833 63 167.5s94.667 65.5 158 65.5s116 -21.833 158 -65.5s63 -99.5 63 -167.5s-21 -123.833 -63 -167.5s-94.667 -65.5 -158 -65.5s-116 21.833 -158 65.5s-63 99.5 -63 167.5zM73 225c0 -60.667 17.667 -109.834 53 -147.501s80 -56.5 134 -56.5
s98.667 18.833 134 56.5s53 86.834 53 147.501s-17.667 109.834 -53 147.501s-80 56.5 -134 56.5s-98.667 -18.833 -134 -56.5s-53 -86.834 -53 -147.501z" />
    <glyph glyph-name="one.ot" 
d="M120 391v28l201 38v-457h-33v421z" />
    <glyph glyph-name="two.ot" 
d="M142 30l283 -0.000976562v-30h-331v27c93.333 59.333 162.166 112 206.499 158s66.5 91.667 66.5 137c0 33.333 -10 59.5 -30 78.5s-46.667 28.5 -80 28.5c-56.667 0 -106.667 -30 -150 -90v39c16 24 37.333 43.333 64 58s55.334 22 86.001 22c44 0 79 -12.167 105 -36.5
s39 -57.5 39 -99.5c0 -91.333 -86.333 -188.666 -259 -291.999z" />
    <glyph glyph-name="three.ot" 
d="M97 345l-0.000976562 36.998c16 22 37.5 40.167 64.5 54.5s57.167 21.5 90.5 21.5c46 0 82.667 -13 110 -39s41 -59.333 41 -100c0 -39.333 -13.833 -73 -41.5 -101s-63.167 -47.333 -106.5 -58c44.667 -4.66699 83 -20.5 115 -47.5s48 -61.833 48 -104.5
c0 -48.667 -16.5 -87.5 -49.5 -116.5s-77.167 -43.5 -132.5 -43.5c-28 0 -55.667 5.16699 -83 15.5s-48.333 22.833 -63 37.5v35c44.667 -39.333 93.334 -59 146.001 -59c46 0 82.167 11.833 108.5 35.5s39.5 55.5 39.5 95.5c0 75.333 -59.667 121.333 -179 138v22
c56 14.667 97.333 33.834 124 57.501s40 54.834 40 93.501c0 32.667 -11 59.167 -33 79.5s-50 30.5 -84 30.5c-60 0 -111.667 -28 -155 -84z" />
    <glyph glyph-name="four.ot" 
d="M389 451v-391h93v-27h-93v-176h-32v176h-311v23l301 395h42zM357 419l-271 -359h271v359z" />
    <glyph glyph-name="five.ot" 
d="M182 420l-13.999 -198.999c75.333 -8.66699 136 -29.167 182 -61.5s69 -78.5 69 -138.5c0 -50.667 -16.667 -92.167 -50 -124.5s-80.333 -48.5 -141 -48.5c-56.667 0 -102.334 15.333 -137.001 46v35c42 -34.667 87.667 -52 137 -52c48.667 0 87 13 115 39s42 61 42 105
c0 54 -21.5 94.167 -64.5 120.5s-104.5 44.166 -184.5 53.499l18 255h250v-30h-222z" />
    <glyph glyph-name="six.ot" 
d="M278 594l37.001 -0.000976562l-154 -232l-42 -65c16 20.667 36.5 37.667 61.5 51s51.167 20 78.5 20c56 0 102.167 -16.833 138.5 -50.5s54.5 -79.167 54.5 -136.5c0 -52 -17.167 -96.5 -51.5 -133.5s-81.5 -55.5 -141.5 -55.5c-58.667 0 -105.334 18.5 -140.001 55.5
s-52 81.5 -52 133.5c0 60.667 20.667 122.334 62 185.001zM99.001 180.999c0 -48 15.167 -86.833 45.5 -116.5s68.5 -44.5 114.5 -44.5s84.167 14.833 114.5 44.5s45.5 68.5 45.5 116.5c0 47.333 -15.167 85.5 -45.5 114.5s-68.5 43.5 -114.5 43.5
c-45.333 0 -83.333 -14.5 -114 -43.5s-46 -67.167 -46 -114.5z" />
    <glyph glyph-name="seven.ot" 
d="M404 420h-336v30h371v-28l-269 -566h-35z" />
    <glyph glyph-name="eight.ot" 
d="M260 -8c-56 0 -101.998 14.833 -137.998 44.5s-54 70.834 -54 123.501c0 41.333 13 76 39 104s57.667 45.333 95 52c-28.667 8.66699 -52.667 24.167 -72 46.5s-29 51.5 -29 87.5c0 46 15.167 82.833 45.5 110.5s68.166 41.5 113.499 41.5s83.166 -13.833 113.499 -41.5
s45.5 -64.5 45.5 -110.5c0 -36 -9.66699 -65.167 -29 -87.5s-43.333 -37.833 -72 -46.5c37.333 -6.66699 69 -24 95 -52s39 -62.667 39 -104c0 -52.667 -18 -93.834 -54 -123.501s-82 -44.5 -138 -44.5zM260.002 328c35.333 0 65.166 11 89.499 33s36.5 51.667 36.5 89
c0 38 -12.167 68.167 -36.5 90.5s-54.166 33.5 -89.499 33.5s-65.166 -11.167 -89.499 -33.5s-36.5 -52.5 -36.5 -90.5c0 -37.333 12.167 -67 36.5 -89s54.166 -33 89.499 -33zM260.002 20c45.333 0 83 12.167 113 36.5s45 58.833 45 103.5c0 45.333 -15.167 80 -45.5 104
s-67.833 36 -112.5 36s-82.167 -12 -112.5 -36s-45.5 -58.667 -45.5 -104c0 -44.667 15 -79.167 45 -103.5s67.667 -36.5 113 -36.5z" />
    <glyph glyph-name="nine.ot" 
d="M241 -144l-37.001 0.000976562l154 232l42 65c-16 -20.667 -36.5 -37.667 -61.5 -51s-51.167 -20 -78.5 -20c-56 0 -102.167 16.833 -138.5 50.5s-54.5 79.167 -54.5 136.5c0 52 17.167 96.5 51.5 133.5s81.5 55.5 141.5 55.5c58.667 0 105.334 -18.5 140.001 -55.5
s52 -81.5 52 -133.5c0 -60.667 -20.667 -122.334 -62 -185.001zM419.999 269.001c0 48 -15.167 86.833 -45.5 116.5s-68.5 44.5 -114.5 44.5s-84.167 -14.833 -114.5 -44.5s-45.5 -68.5 -45.5 -116.5c0 -47.333 15.167 -85.5 45.5 -114.5s68.5 -43.5 114.5 -43.5
c45.333 0 83.333 14.5 114 43.5s46 67.167 46 114.5z" />
    <glyph glyph-name="period.tab" horiz-adv-x="260" 
d="M102 26c0 8 2.66699 14.667 8 20s12 8 20 8s14.667 -2.66699 20 -8s8 -12 8 -20s-2.66699 -14.667 -8 -20s-12 -8 -20 -8s-14.667 2.66699 -20 8s-8 12 -8 20z" />
    <glyph glyph-name="comma.tab" horiz-adv-x="260" 
d="M114 65l36 -0.000976562c0 -37.333 -9.5 -74.666 -28.5 -111.999s-40.833 -64.333 -65.5 -81h-28c25.333 22 46 50.333 62 85s24 70.667 24 108z" />
    <glyph glyph-name="colon.tab" horiz-adv-x="260" 
d="M102 26c0 8 2.66699 14.667 8 20s12 8 20 8s14.667 -2.66699 20 -8s8 -12 8 -20s-2.66699 -14.667 -8 -20s-12 -8 -20 -8s-14.667 2.66699 -20 8s-8 12 -8 20zM102 386c0 8 2.66699 14.667 8 20s12 8 20 8s14.667 -2.66699 20 -8s8 -12 8 -20s-2.66699 -14.667 -8 -20
s-12 -8 -20 -8s-14.667 2.66699 -20 8s-8 12 -8 20z" />
    <glyph glyph-name="semicolon.tab" horiz-adv-x="260" 
d="M114 65l36 -0.000976562c0 -37.333 -9.5 -74.666 -28.5 -111.999s-40.833 -64.333 -65.5 -81h-28c25.333 22 46 50.333 62 85s24 70.667 24 108zM102 385.999c0 8 2.66699 14.667 8 20s12 8 20 8s14.667 -2.66699 20 -8s8 -12 8 -20s-2.66699 -14.667 -8 -20
s-12 -8 -20 -8s-14.667 2.66699 -20 8s-8 12 -8 20z" />
    <glyph glyph-name="zero_slash.op" horiz-adv-x="552" 
d="M276 -8c-66 0 -121 21.833 -165 65.5s-66 99.5 -66 167.5s22 123.833 66 167.5s99 65.5 165 65.5s121 -21.833 165 -65.5s66 -99.5 66 -167.5s-22 -123.833 -66 -167.5s-99 -65.5 -165 -65.5zM165 53l198 357.001c-27.333 12.667 -56.333 19 -87 19
c-56.667 0 -103.667 -18.833 -141 -56.5s-56 -86.834 -56 -147.501c0 -78 28.667 -135.333 86 -172zM387 397.001l-198 -357.001c27.333 -12.667 56.333 -19 87 -19c56.667 0 103.667 18.833 141 56.5s56 86.834 56 147.501c0 76 -28.667 133.333 -86 172z" />
    <glyph glyph-name="space.tab" horiz-adv-x="260" 
 />
    <glyph glyph-name="plusminus.op" horiz-adv-x="435" 
d="M203 276h-163v29h163v123h29v-123h163v-29h-163v-123h-29v123zM40 66v29h355v-29h-355z" />
    <glyph glyph-name="lessequal.op" horiz-adv-x="319" 
d="M24 259v4l259 122v-33l-199 -91l199 -91v-33zM24 66v27h259v-27h-259z" />
    <glyph glyph-name="greaterequal.op" horiz-adv-x="319" 
d="M295 263v-4l-259 -122v33l199 91l-199 91v33zM295 93v-27h-259v27h259z" />
    <glyph glyph-name="notequal.op" horiz-adv-x="440" 
d="M143 160h-101v28h124l74 91h-198v28h220l71 87h35l-71 -87h101v-28h-123l-74 -91h197v-28h-220l-71 -88h-35z" />
    <glyph glyph-name="approxequal.op" horiz-adv-x="440" 
d="M42 242l-0.00390625 36c31.333 32 63 48 95 48c20.667 0 48.334 -8.5 83.001 -25.5s61.334 -25.5 80.001 -25.5c32.667 0 65.334 17.333 98.001 52v-36c-31.333 -32 -64 -48 -98 -48c-20.667 0 -48.167 8.5 -82.5 25.5s-61.166 25.5 -80.499 25.5
c-29.333 0 -61 -17.333 -95 -52zM41.9961 144l-0.00390625 36c31.333 32 63 48 95 48c20.667 0 48.334 -8.5 83.001 -25.5s61.334 -25.5 80.001 -25.5c32.667 0 65.334 17.333 98.001 52v-36c-31.333 -32 -64 -48 -98 -48c-20.667 0 -48.167 8.5 -82.5 25.5
s-61.166 25.5 -80.499 25.5c-29.333 0 -61 -17.333 -95 -52z" />
    <glyph glyph-name="plus.lt" 
d="M245 278h-163v29h163v163h29v-163h163v-29h-163v-163h-29v163z" />
    <glyph glyph-name="minus.lt" 
d="M82 278v29h355v-29h-355z" />
    <glyph glyph-name="multiply.lt" 
d="M240 291l-121 122l21 20l120 -122l120 122l21 -20l-120 -122l120 -122l-21 -20l-120 121l-120 -121l-21 20z" />
    <glyph glyph-name="divide.lt" 
d="M82 278v29h355v-29h-355zM230 143c0 8.66699 2.83301 15.834 8.5 21.501s12.5 8.5 20.5 8.5c8.66699 0 15.834 -2.83301 21.501 -8.5s8.5 -12.834 8.5 -21.501c0 -8 -2.83301 -14.833 -8.5 -20.5s-12.834 -8.5 -21.501 -8.5c-8 0 -14.833 2.83301 -20.5 8.5
s-8.5 12.5 -8.5 20.5zM230 443c0 8 2.83301 14.833 8.5 20.5s12.5 8.5 20.5 8.5c8.66699 0 15.834 -2.83301 21.501 -8.5s8.5 -12.5 8.5 -20.5c0 -8.66699 -2.83301 -15.834 -8.5 -21.501s-12.834 -8.5 -21.501 -8.5c-8 0 -14.833 2.83301 -20.5 8.5
s-8.5 12.834 -8.5 21.501z" />
    <glyph glyph-name="equal.lt" 
d="M82 219v29h356v-29h-356zM82 339v29h356v-29h-356z" />
    <glyph glyph-name="less.lt" 
d="M130 289v4l259 159v-35l-208 -126l208 -126v-35z" />
    <glyph glyph-name="greater.lt" 
d="M389 293v-4l-259 -159v35l208 126l-208 126v35z" />
    <glyph glyph-name="plusminus.lt" 
d="M245 326h-163v29h163v123h29v-123h163v-29h-163v-123h-29v123zM82 116v29h355v-29h-355z" />
    <glyph glyph-name="lessequal.lt" 
d="M130 319v4l259 122v-33l-199 -91l199 -91v-33zM130 126v29h259v-29h-259z" />
    <glyph glyph-name="greaterequal.lt" 
d="M389 323v-4l-259 -122v33l199 91l-199 91v33zM389 155v-29h-259v29h259z" />
    <glyph glyph-name="notequal.lt" 
d="M183 220h-101v28h124l74 91h-198v28h220l71 87h35l-71 -87h101v-28h-123l-74 -91h197v-28h-220l-71 -88h-35z" />
    <glyph glyph-name="approxequal.lt" 
d="M82 299l-0.00390625 36c31.333 32 63 48 95 48c20.667 0 48.334 -8.5 83.001 -25.5s61.334 -25.5 80.001 -25.5c32.667 0 65.334 17.333 98.001 52v-36c-31.333 -32 -64 -48 -98 -48c-20.667 0 -48.167 8.5 -82.5 25.5s-61.166 25.5 -80.499 25.5
c-29.333 0 -61 -17.333 -95 -52zM81.9961 201l-0.00390625 36c31.333 32 63 48 95 48c20.667 0 48.334 -8.5 83.001 -25.5s61.334 -25.5 80.001 -25.5c32.667 0 65.334 17.333 98.001 52v-36c-31.333 -32 -64 -48 -98 -48c-20.667 0 -48.167 8.5 -82.5 25.5
s-61.166 25.5 -80.499 25.5c-29.333 0 -61 -17.333 -95 -52z" />
    <glyph glyph-name="plus.ot" 
d="M245 218h-163v29h163v163h29v-163h163v-29h-163v-163h-29v163z" />
    <glyph glyph-name="minus.ot" 
d="M82 218v29h355v-29h-355z" />
    <glyph glyph-name="multiply.ot" 
d="M240 231l-121 122l21 20l120 -122l120 122l21 -20l-120 -122l120 -122l-21 -20l-120 121l-120 -121l-21 20z" />
    <glyph glyph-name="divide.ot" 
d="M82 218v29h355v-29h-355zM230 83c0 8.66699 2.83301 15.834 8.5 21.501s12.5 8.5 20.5 8.5c8.66699 0 15.834 -2.83301 21.501 -8.5s8.5 -12.834 8.5 -21.501c0 -8 -2.83301 -14.833 -8.5 -20.5s-12.834 -8.5 -21.501 -8.5c-8 0 -14.833 2.83301 -20.5 8.5
s-8.5 12.5 -8.5 20.5zM230 383c0 8 2.83301 14.833 8.5 20.5s12.5 8.5 20.5 8.5c8.66699 0 15.834 -2.83301 21.501 -8.5s8.5 -12.5 8.5 -20.5c0 -8.66699 -2.83301 -15.834 -8.5 -21.501s-12.834 -8.5 -21.501 -8.5c-8 0 -14.833 2.83301 -20.5 8.5
s-8.5 12.834 -8.5 21.501z" />
    <glyph glyph-name="equal.ot" 
d="M82 159v29h356v-29h-356zM82 279v29h356v-29h-356z" />
    <glyph glyph-name="less.ot" 
d="M130 229v4l259 159v-35l-208 -126l208 -126v-35z" />
    <glyph glyph-name="greater.ot" 
d="M389 233v-4l-259 -159v35l208 126l-208 126v35z" />
    <glyph glyph-name="plusminus.ot" 
d="M245 276h-163v29h163v123h29v-123h163v-29h-163v-123h-29v123zM82 66v29h355v-29h-355z" />
    <glyph glyph-name="lessequal.ot" 
d="M130 259v4l259 122v-33l-199 -91l199 -91v-33zM130 66v27h259v-27h-259z" />
    <glyph glyph-name="greaterequal.ot" 
d="M389 263v-4l-259 -122v33l199 91l-199 91v33zM389 93v-27h-259v27h259z" />
    <glyph glyph-name="notequal.ot" 
d="M183 160h-101v28h124l74 91h-198v28h220l71 87h35l-71 -87h101v-28h-123l-74 -91h197v-28h-220l-71 -88h-35z" />
    <glyph glyph-name="approxequal.ot" 
d="M82 242l-0.00390625 36c31.333 32 63 48 95 48c20.667 0 48.334 -8.5 83.001 -25.5s61.334 -25.5 80.001 -25.5c32.667 0 65.334 17.333 98.001 52v-36c-31.333 -32 -64 -48 -98 -48c-20.667 0 -48.167 8.5 -82.5 25.5s-61.166 25.5 -80.499 25.5
c-29.333 0 -61 -17.333 -95 -52zM81.9961 144l-0.00390625 36c31.333 32 63 48 95 48c20.667 0 48.334 -8.5 83.001 -25.5s61.334 -25.5 80.001 -25.5c32.667 0 65.334 17.333 98.001 52v-36c-31.333 -32 -64 -48 -98 -48c-20.667 0 -48.167 8.5 -82.5 25.5
s-61.166 25.5 -80.499 25.5c-29.333 0 -61 -17.333 -95 -52z" />
    <glyph glyph-name="doublebar" horiz-adv-x="307" 
d="M96 -138v818h30v-818h-30zM180 -138v818h31v-818h-31z" />
    <glyph glyph-name="zero.slash" horiz-adv-x="524" 
d="M262 -8c-65.333 0 -117.833 28 -157.5 84s-59.5 129.667 -59.5 221s19.833 165 59.5 221s92.167 84 157.5 84s117.833 -28 157.5 -84s59.5 -129.667 59.5 -221s-19.833 -165 -59.5 -221s-92.167 -84 -157.5 -84zM151 68l200.001 476
c-26.667 19.333 -56.334 29 -89.001 29c-54.667 0 -99 -25 -133 -75s-51 -117 -51 -201c0 -104 24.333 -180.333 73 -229zM372.001 526l-200 -476c26.667 -19.333 56.667 -29 90 -29c54.667 0 99 25 133 75s51 117 51 201c0 102 -24.667 178.333 -74 229z" />
    <glyph glyph-name="invertedbreve" horiz-adv-x="500" 
d="M175 514h-28.002c0 36.667 9.16699 65.667 27.5 87s43.5 32 75.5 32s57.167 -10.667 75.5 -32s27.5 -50.333 27.5 -87h-28c0 28.667 -6.66699 51.5 -20 68.5s-31.666 25.5 -54.999 25.5s-41.666 -8.5 -54.999 -25.5s-20 -39.833 -20 -68.5z" />
    <glyph glyph-name="doublegrave" horiz-adv-x="500" 
d="M359 513h-31l-85 152h31zM256 513h-31l-85 152h31z" />
    <glyph glyph-name="caronSlovak" horiz-adv-x="500" 
d="M254 680h30l-40 -148h-30z" />
    <glyph glyph-name="dotbelow" horiz-adv-x="500" 
d="M250 -142c-7.33301 0 -13.666 2.5 -18.999 7.5s-8 11.5 -8 19.5s2.66699 14.5 8 19.5s11.666 7.5 18.999 7.5s13.666 -2.5 18.999 -7.5s8 -11.5 8 -19.5s-2.66699 -14.5 -8 -19.5s-11.666 -7.5 -18.999 -7.5z" />
    <glyph glyph-name="altcedilla" horiz-adv-x="500" 
d="M261 0l29.001 -0.000976562c-0.666992 -29.333 -7.33398 -57.166 -20.001 -83.499s-29 -47.5 -49 -63.5h-35c46.667 40.667 71.667 89.667 75 147z" />
    <glyph glyph-name="grave.cap" horiz-adv-x="500" 
d="M302 647h-32l-73 131h32z" />
    <glyph glyph-name="acute.cap" horiz-adv-x="500" 
d="M229 647h-32l73 131h32z" />
    <glyph glyph-name="circumflex.cap" horiz-adv-x="500" 
d="M258 774l109 -133h-34l-83 101l-83 -101h-34l109 133h16z" />
    <glyph glyph-name="tilde.cap" horiz-adv-x="500" 
d="M342 736l25.998 0.000976562c0 -29.333 -5.5 -52.5 -16.5 -69.5s-26.5 -25.5 -46.5 -25.5c-19.333 0 -39.666 11.667 -60.999 35s-37.666 35 -48.999 35c-25.333 0 -38 -22.333 -38 -67h-26c0 29.333 5.5 52.5 16.5 69.5s26.5 25.5 46.5 25.5
c15.333 0 29.333 -5.83301 42 -17.5s24.667 -23.334 36 -35.001s22 -17.5 32 -17.5c25.333 0 38 22.333 38 67z" />
    <glyph glyph-name="macron.cap" horiz-adv-x="500" 
d="M153 660v28h193v-28h-193z" />
    <glyph glyph-name="breve.cap" horiz-adv-x="500" 
d="M325 762h28c0 -36.667 -9.16699 -65.5 -27.5 -86.5s-43.5 -31.5 -75.5 -31.5s-57.167 10.5 -75.5 31.5s-27.5 49.833 -27.5 86.5h28c0 -28.667 6.5 -51.167 19.5 -67.5s31.5 -24.5 55.5 -24.5s42.5 8.16699 55.5 24.5s19.5 38.833 19.5 67.5z" />
    <glyph glyph-name="invertedbreve.cap" horiz-adv-x="500" 
d="M175 644h-28c0 36.667 9.16699 65.5 27.5 86.5s43.5 31.5 75.5 31.5s57.167 -10.5 75.5 -31.5s27.5 -49.833 27.5 -86.5h-28c0 28.667 -6.5 51.334 -19.5 68.001s-31.5 25 -55.5 25s-42.5 -8.33301 -55.5 -25s-19.5 -39.334 -19.5 -68.001z" />
    <glyph glyph-name="dotaccent.cap" horiz-adv-x="500" 
d="M250 655c-7.33301 0 -13.666 2.5 -18.999 7.5s-8 11.5 -8 19.5s2.66699 14.5 8 19.5s11.666 7.5 18.999 7.5s13.666 -2.5 18.999 -7.5s8 -11.5 8 -19.5s-2.66699 -14.5 -8 -19.5s-11.666 -7.5 -18.999 -7.5z" />
    <glyph glyph-name="dieresis.cap" horiz-adv-x="500" 
d="M176 655c-7.33301 0 -13.666 2.5 -18.999 7.5s-8 11.5 -8 19.5s2.66699 14.5 8 19.5s11.666 7.5 18.999 7.5s13.666 -2.5 18.999 -7.5s8 -11.5 8 -19.5s-2.66699 -14.5 -8 -19.5s-11.666 -7.5 -18.999 -7.5zM324 655c-7.33301 0 -13.666 2.5 -18.999 7.5s-8 11.5 -8 19.5
s2.66699 14.5 8 19.5s11.666 7.5 18.999 7.5s13.666 -2.5 18.999 -7.5s8 -11.5 8 -19.5s-2.66699 -14.5 -8 -19.5s-11.666 -7.5 -18.999 -7.5z" />
    <glyph glyph-name="ring.cap" horiz-adv-x="500" 
d="M173 702c0 21.333 7.5 39.166 22.5 53.499s33.167 21.5 54.5 21.5s39.5 -7.16699 54.5 -21.5s22.5 -32.166 22.5 -53.499s-7.5 -39.166 -22.5 -53.499s-33.167 -21.5 -54.5 -21.5s-39.5 7.16699 -54.5 21.5s-22.5 32.166 -22.5 53.499zM301 702
c0 15.333 -4.49902 27.666 -13.499 36.999s-21.5 14 -37.5 14s-28.5 -4.66699 -37.5 -14s-13.5 -21.666 -13.5 -36.999c0 -14.667 4.66699 -26.834 14 -36.501s21.666 -14.5 36.999 -14.5c16 0 28.5 4.83301 37.5 14.5s13.5 21.834 13.5 36.501z" />
    <glyph glyph-name="hungarumlaut.cap" horiz-adv-x="500" 
d="M171 647h-31l73 131h31zM274 647h-31l73 131h31z" />
    <glyph glyph-name="doublegrave.cap" horiz-adv-x="500" 
d="M347 647h-31l-73 131h31zM244 647h-31l-73 131h31z" />
    <glyph glyph-name="caron.cap" horiz-adv-x="500" 
d="M365 778l-106 -132h-18l-106 132h34l81 -104l81 104h34z" />
    <glyph glyph-name="exclamdown.cap" horiz-adv-x="236" 
d="M135 438v-438h-34v438h34zM90 569c0 8 2.66699 14.667 8 20s12 8 20 8s14.667 -2.66699 20 -8s8 -12 8 -20s-2.66699 -14.667 -8 -20s-12 -8 -20 -8s-14.667 2.66699 -20 8s-8 12 -8 20z" />
    <glyph glyph-name="questiondown.cap" horiz-adv-x="379" 
d="M351 100l-0.00195312 -39c-14.667 -20 -35.834 -36.5 -63.501 -49.5s-57.167 -19.5 -88.5 -19.5c-53.333 0 -94.666 15.167 -123.999 45.5s-44 68.833 -44 115.5c0 23.333 3.83301 45 11.5 65s16.834 36.5 27.501 49.5s24.334 25.167 41.001 36.5
s31.667 20.166 45 26.499s28.333 12.5 45 18.5v87h34v-105c-56 -20 -98.333 -43.167 -127 -69.5s-43 -62.833 -43 -109.5c0 -37.333 11.5 -68.166 34.5 -92.499s56.167 -36.5 99.5 -36.5c59.333 0 110 25.667 152 77zM243.998 568c0 -8 -2.66699 -14.667 -8 -20
s-12 -8 -20 -8s-14.667 2.66699 -20 8s-8 12 -8 20s2.66699 14.667 8 20s12 8 20 8s14.667 -2.66699 20 -8s8 -12 8 -20z" />
    <glyph glyph-name="guilsinglleft.cap" horiz-adv-x="260" 
d="M210 462l-123 -158l123 -158h-37l-123 158l123 158h37z" />
    <glyph glyph-name="guilsinglright.cap" horiz-adv-x="260" 
d="M173 304l-123 158h37l123 -158l-123 -158h-37z" />
    <glyph glyph-name="guillemotleft.cap" horiz-adv-x="378" 
d="M210 462l-123 -158l123 -158h-37l-123 158l123 158h37zM328 462l-123 -158l123 -158h-37l-123 158l123 158h37z" />
    <glyph glyph-name="guillemotright.cap" horiz-adv-x="378" 
d="M173 304l-123 158h37l123 -158l-123 -158h-37zM291 304l-123 158h37l123 -158l-123 -158h-37z" />
    <glyph glyph-name="slash.cap" horiz-adv-x="379" 
d="M18 -100l312 780h31l-311 -780h-32z" />
    <glyph glyph-name="backslash.cap" horiz-adv-x="379" 
d="M49 680l312 -780h-32l-311 780h31z" />
    <glyph glyph-name="bar.cap" horiz-adv-x="222" 
d="M96 -100v780h30v-780h-30z" />
    <glyph glyph-name="doublebar.cap" horiz-adv-x="307" 
d="M96 -100v780h30v-780h-30zM180 -100v780h31v-780h-31z" />
    <glyph glyph-name="brokenbar.cap" horiz-adv-x="221" 
d="M96 359v321h30v-321h-30zM96 -100v321h30v-321h-30z" />
    <glyph glyph-name="bullet.cap" horiz-adv-x="287" 
d="M70 302c0 20.667 7.16699 38 21.5 52s31.833 21 52.5 21s38 -7 52 -21s21 -31.333 21 -52s-7 -38.167 -21 -52.5s-31.333 -21.5 -52 -21.5s-38.167 7.16699 -52.5 21.5s-21.5 31.833 -21.5 52.5z" />
    <glyph glyph-name="periodcentered.cap" horiz-adv-x="196" 
d="M70 301c0 8 2.66699 14.667 8 20s12 8 20 8s14.667 -2.66699 20 -8s8 -12 8 -20s-2.66699 -14.667 -8 -20s-12 -8 -20 -8s-14.667 2.66699 -20 8s-8 12 -8 20z" />
    <glyph glyph-name="hyphen.cap" horiz-adv-x="355" 
d="M64 287v29h227v-29h-227z" />
    <glyph glyph-name="endash.cap" horiz-adv-x="572" 
d="M64 288v28h444v-28h-444z" />
    <glyph glyph-name="emdash.cap" horiz-adv-x="952" 
d="M64 288v28h824v-28h-824z" />
    <glyph glyph-name="parenleft.cap" horiz-adv-x="280" 
d="M270 -100l-39 0.00195312c-122 110 -183 240 -183 390s61 280 183 390h39c-60 -54.667 -106.833 -112.334 -140.5 -173.001s-50.5 -133 -50.5 -217s16.833 -156.333 50.5 -217s80.5 -118.334 140.5 -173.001z" />
    <glyph glyph-name="parenright.cap" horiz-adv-x="280" 
d="M10 680l39 -0.00195312c122 -110 183 -240 183 -390s-61 -280 -183 -390h-39c60 54.667 106.833 112.334 140.5 173.001s50.5 133 50.5 217s-16.833 156.333 -50.5 217s-80.5 118.334 -140.5 173.001z" />
    <glyph glyph-name="bracketleft.cap" horiz-adv-x="273" 
d="M101 654v-728h122v-26h-150v780h150v-26h-122z" />
    <glyph glyph-name="bracketright.cap" horiz-adv-x="273" 
d="M172 -74v728h-122v26h150v-780h-150v26h122z" />
    </font>
</defs>
</svg>
